<?xml version="1.0" encoding="us-ascii" standalone="no"?><svg xmlns="http://www.w3.org/2000/svg" xmlns:xlink="http://www.w3.org/1999/xlink" contentStyleType="text/css" height="968px" preserveAspectRatio="none" style="width:5218px;height:968px;background:#F5F5F5;" version="1.1" viewBox="0 0 5218 968" width="5218px" zoomAndPan="magnify"><defs/><g><rect fill="#F5F5F5" height="968" style="stroke:none;stroke-width:1.0;" width="5218" x="0" y="0"/><text fill="#000000" font-family="sans-serif" font-size="14" font-weight="bold" lengthAdjust="spacing" textLength="422" x="2391.25" y="22.9951">YTL Cement - Implementation Roadmap (Phase 1 &amp; 2)</text><!--cluster phase1--><g id="cluster_phase1"><rect fill="none" height="846.5" rx="2.5" ry="2.5" style="stroke:#181818;stroke-width:1.0;" width="2220" x="7" y="116.4069"/><text fill="#000000" font-family="sans-serif" font-size="14" font-weight="bold" lengthAdjust="spacing" textLength="391" x="921.5" y="131.402">PHASE 1: FOUNDATION &amp; QUICK WINS (18 Weeks)</text></g><!--cluster wave1--><g id="cluster_wave1"><rect fill="#E6F3FF" height="771" rx="2.5" ry="2.5" style="stroke:#181818;stroke-width:1.0;" width="1016" x="1187" y="167.9069"/><text fill="#000000" font-family="sans-serif" font-size="14" font-weight="bold" lengthAdjust="spacing" textLength="326" x="1532" y="182.902">WAVE 1: Core Infrastructure (Weeks 1-8)</text></g><!--cluster w1_2--><g id="cluster_w1_2"><rect fill="#CCCCFF" height="341" rx="2.5" ry="2.5" style="stroke:#181818;stroke-width:1.0;" width="311" x="1868" y="226.9069"/><text fill="#000000" font-family="sans-serif" font-size="14" font-weight="bold" lengthAdjust="spacing" textLength="132" x="1957.5" y="241.902">Week 1-2: Setup</text></g><!--cluster w3_4--><g id="cluster_w3_4"><rect fill="#CCFFCC" height="365.5" rx="2.5" ry="2.5" style="stroke:#181818;stroke-width:1.0;" width="358" x="1478" y="218.9069"/><text fill="#000000" font-family="sans-serif" font-size="14" font-weight="bold" lengthAdjust="spacing" textLength="212" x="1551" y="233.902">Week 3-4: Finance Go-Live</text></g><!--cluster w5_6--><g id="cluster_w5_6"><rect fill="#CCFFCC" height="220" rx="2.5" ry="2.5" style="stroke:#181818;stroke-width:1.0;" width="393" x="1786" y="694.9069"/><text fill="#000000" font-family="sans-serif" font-size="14" font-weight="bold" lengthAdjust="spacing" textLength="254" x="1855.5" y="709.902">Week 5-6: Procurement Go-Live</text></g><!--cluster w7_8--><g id="cluster_w7_8"><rect fill="#FFFFCC" height="211.5" rx="2.5" ry="2.5" style="stroke:#181818;stroke-width:1.0;" width="335" x="1427" y="694.9069"/><text fill="#000000" font-family="sans-serif" font-size="14" font-weight="bold" lengthAdjust="spacing" textLength="172" x="1508.5" y="709.902">Week 7-8: Integration</text></g><!--cluster wave2--><g id="cluster_wave2"><rect fill="#FFE6E6" height="771" rx="2.5" ry="2.5" style="stroke:#181818;stroke-width:1.0;" width="1132" x="31" y="159.4069"/><text fill="#000000" font-family="sans-serif" font-size="14" font-weight="bold" lengthAdjust="spacing" textLength="433" x="380.5" y="174.402">WAVE 2: Sales &amp; Distribution + e-Invoice (Weeks 9-12)</text></g><!--cluster w9_10--><g id="cluster_w9_10"><rect fill="#CCFFCC" height="341" rx="2.5" ry="2.5" style="stroke:#181818;stroke-width:1.0;" width="341" x="798" y="226.9069"/><text fill="#000000" font-family="sans-serif" font-size="14" font-weight="bold" lengthAdjust="spacing" textLength="203" x="867" y="241.902">Week 9-10: Sales Go-Live</text></g><!--cluster w11_12--><g id="cluster_w11_12"><rect fill="#CCFFCC" height="374" rx="2.5" ry="2.5" style="stroke:#181818;stroke-width:1.0;" width="438" x="328" y="210.4069"/><text fill="#000000" font-family="sans-serif" font-size="14" font-weight="bold" lengthAdjust="spacing" textLength="262" x="416" y="225.402">Week 11-12: e-Invoice &amp; Closure</text></g><!--cluster w12_hc--><g id="cluster_w12_hc"><rect fill="#FFCCCC" height="211.5" rx="2.5" ry="2.5" style="stroke:#181818;stroke-width:1.0;" width="399" x="740" y="694.9069"/><text fill="#000000" font-family="sans-serif" font-size="14" font-weight="bold" lengthAdjust="spacing" textLength="227" x="826" y="709.902">Week 12: Go-Live Hypercare</text></g><!--cluster phase2--><g id="cluster_phase2"><rect fill="#E6FFE6" height="416.5" rx="2.5" ry="2.5" style="stroke:#181818;stroke-width:1.0;" width="1807" x="2251" y="175.4069"/><text fill="#000000" font-family="sans-serif" font-size="14" font-weight="bold" lengthAdjust="spacing" textLength="434" x="2937.5" y="190.402">PHASE 2: OPTIMIZATION &amp; COMPLIANCE (Weeks 13-18)</text></g><!--cluster w13_14--><g id="cluster_w13_14"><rect fill="#CCFFCC" height="114" rx="2.5" ry="2.5" style="stroke:#181818;stroke-width:1.0;" width="618" x="3416" y="218.4069"/><text fill="#000000" font-family="sans-serif" font-size="14" font-weight="bold" lengthAdjust="spacing" textLength="233" x="3608.5" y="233.402">Week 13-14: SoD Compliance</text></g><!--cluster w15_16--><g id="cluster_w15_16"><rect fill="#CCFFCC" height="341" rx="2.5" ry="2.5" style="stroke:#181818;stroke-width:1.0;" width="396" x="2996" y="226.9069"/><text fill="#000000" font-family="sans-serif" font-size="14" font-weight="bold" lengthAdjust="spacing" textLength="250" x="3069" y="241.902">Week 15-16: Plant Maintenance</text></g><!--cluster w17_18--><g id="cluster_w17_18"><rect fill="#CCFFCC" height="341" rx="2.5" ry="2.5" style="stroke:#181818;stroke-width:1.0;" width="445" x="2527" y="226.9069"/><text fill="#000000" font-family="sans-serif" font-size="14" font-weight="bold" lengthAdjust="spacing" textLength="312" x="2593.5" y="241.902">Week 17-18: Dashboard &amp; Optimization</text></g><!--cluster phase3_plan--><g id="cluster_phase3_plan"><rect fill="none" height="440" rx="2.5" ry="2.5" style="stroke:#181818;stroke-width:1.0;" width="818" x="4082" y="167.9069"/><text fill="#000000" font-family="sans-serif" font-size="14" font-weight="bold" lengthAdjust="spacing" textLength="344" x="4319" y="182.902">POST PHASE 2: CONTINUOUS IMPROVEMENT</text></g><!--cluster phase3--><g id="cluster_phase3"><rect fill="#FFFFCC" height="357" rx="2.5" ry="2.5" style="stroke:#181818;stroke-width:1.0;" width="472" x="4114" y="218.9069"/><text fill="#000000" font-family="sans-serif" font-size="14" font-weight="bold" lengthAdjust="spacing" textLength="355" x="4172.5" y="233.902">Phase 3: Additional Plants (Quarterly Rollout)</text></g><g id="elem_GMN20"><path d="M1203.5,257.4069 L1203.5,312.8053 L1450.5,312.8053 L1450.5,267.4069 L1440.5,257.4069 L1203.5,257.4069 " fill="#FEFFDD" style="stroke:#181818;stroke-width:0.5;"/><path d="M1440.5,257.4069 L1440.5,267.4069 L1450.5,267.4069 L1440.5,257.4069 " fill="#FEFFDD" style="stroke:#181818;stroke-width:1.0;"/><text fill="#000000" font-family="sans-serif" font-size="13" font-weight="bold" lengthAdjust="spacing" textLength="126" x="1209.5" y="274.4738">Benefit Realized:</text><text fill="#000000" font-family="sans-serif" font-size="13" lengthAdjust="spacing" textLength="185" x="1209.5" y="289.6066">GL Close: 8 days -&gt; 4-5 days</text><text fill="#000000" font-family="sans-serif" font-size="13" lengthAdjust="spacing" textLength="226" x="1209.5" y="304.7394">Real-time anomaly detection active</text></g><!--entity setup1--><g id="elem_setup1"><rect fill="#F1F1F1" height="46.2969" rx="2.5" ry="2.5" style="stroke:#181818;stroke-width:0.5;" width="136" x="1884" y="261.9069"/><rect fill="#F1F1F1" height="10" style="stroke:#181818;stroke-width:0.5;" width="15" x="2000" y="266.9069"/><rect fill="#F1F1F1" height="2" style="stroke:#181818;stroke-width:0.5;" width="4" x="1998" y="268.9069"/><rect fill="#F1F1F1" height="2" style="stroke:#181818;stroke-width:0.5;" width="4" x="1998" y="272.9069"/><text fill="#000000" font-family="sans-serif" font-size="14" lengthAdjust="spacing" textLength="96" x="1899" y="294.902">System Setup</text></g><!--entity setup2--><g id="elem_setup2"><rect fill="#F1F1F1" height="46.2969" rx="2.5" ry="2.5" style="stroke:#181818;stroke-width:0.5;" width="108" x="2055" y="261.9069"/><rect fill="#F1F1F1" height="10" style="stroke:#181818;stroke-width:0.5;" width="15" x="2143" y="266.9069"/><rect fill="#F1F1F1" height="2" style="stroke:#181818;stroke-width:0.5;" width="4" x="2141" y="268.9069"/><rect fill="#F1F1F1" height="2" style="stroke:#181818;stroke-width:0.5;" width="4" x="2141" y="272.9069"/><text fill="#000000" font-family="sans-serif" font-size="14" lengthAdjust="spacing" textLength="68" x="2070" y="294.902">Data Prep</text></g><!--entity setup3--><g id="elem_setup3"><rect fill="#F1F1F1" height="46.2969" rx="2.5" ry="2.5" style="stroke:#181818;stroke-width:0.5;" width="117" x="1888.5" y="505.9069"/><rect fill="#F1F1F1" height="10" style="stroke:#181818;stroke-width:0.5;" width="15" x="1985.5" y="510.9069"/><rect fill="#F1F1F1" height="2" style="stroke:#181818;stroke-width:0.5;" width="4" x="1983.5" y="512.9069"/><rect fill="#F1F1F1" height="2" style="stroke:#181818;stroke-width:0.5;" width="4" x="1983.5" y="516.9069"/><text fill="#000000" font-family="sans-serif" font-size="14" lengthAdjust="spacing" textLength="77" x="1903.5" y="538.902">User Setup</text></g><!--entity gl_live--><g id="elem_gl_live"><rect fill="#F1F1F1" height="46.2969" rx="2.5" ry="2.5" style="stroke:#181818;stroke-width:0.5;" width="143" x="1521.5" y="261.9069"/><rect fill="#F1F1F1" height="10" style="stroke:#181818;stroke-width:0.5;" width="15" x="1644.5" y="266.9069"/><rect fill="#F1F1F1" height="2" style="stroke:#181818;stroke-width:0.5;" width="4" x="1642.5" y="268.9069"/><rect fill="#F1F1F1" height="2" style="stroke:#181818;stroke-width:0.5;" width="4" x="1642.5" y="272.9069"/><text fill="#000000" font-family="sans-serif" font-size="14" lengthAdjust="spacing" textLength="103" x="1536.5" y="294.902">GL Module Live</text></g><!--entity ar_live--><g id="elem_ar_live"><rect fill="#F1F1F1" height="46.2969" rx="2.5" ry="2.5" style="stroke:#181818;stroke-width:0.5;" width="112" x="1700" y="261.9069"/><rect fill="#F1F1F1" height="10" style="stroke:#181818;stroke-width:0.5;" width="15" x="1792" y="266.9069"/><rect fill="#F1F1F1" height="2" style="stroke:#181818;stroke-width:0.5;" width="4" x="1790" y="268.9069"/><rect fill="#F1F1F1" height="2" style="stroke:#181818;stroke-width:0.5;" width="4" x="1790" y="272.9069"/><text fill="#000000" font-family="sans-serif" font-size="14" lengthAdjust="spacing" textLength="72" x="1715" y="294.902">AP/AR Live</text></g><!--entity gl_mvp_live--><g id="elem_gl_mvp_live"><rect fill="#F1F1F1" height="62.5938" rx="2.5" ry="2.5" style="stroke:#181818;stroke-width:0.5;" width="159" x="1520.5" y="497.4069"/><rect fill="#F1F1F1" height="10" style="stroke:#181818;stroke-width:0.5;" width="15" x="1659.5" y="502.4069"/><rect fill="#F1F1F1" height="2" style="stroke:#181818;stroke-width:0.5;" width="4" x="1657.5" y="504.4069"/><rect fill="#F1F1F1" height="2" style="stroke:#181818;stroke-width:0.5;" width="4" x="1657.5" y="508.4069"/><text fill="#000000" font-family="sans-serif" font-size="14" lengthAdjust="spacing" textLength="119" x="1535.5" y="530.402">MVP: GL Anomaly</text><text fill="#000000" font-family="sans-serif" font-size="14" lengthAdjust="spacing" textLength="66" x="1535.5" y="546.6989">Deployed</text></g><!--entity proc_live--><g id="elem_proc_live"><rect fill="#F1F1F1" height="46.2969" rx="2.5" ry="2.5" style="stroke:#181818;stroke-width:0.5;" width="185" x="1801.5" y="729.9069"/><rect fill="#F1F1F1" height="10" style="stroke:#181818;stroke-width:0.5;" width="15" x="1966.5" y="734.9069"/><rect fill="#F1F1F1" height="2" style="stroke:#181818;stroke-width:0.5;" width="4" x="1964.5" y="736.9069"/><rect fill="#F1F1F1" height="2" style="stroke:#181818;stroke-width:0.5;" width="4" x="1964.5" y="740.9069"/><text fill="#000000" font-family="sans-serif" font-size="14" lengthAdjust="spacing" textLength="145" x="1816.5" y="762.902">Procurement Module</text></g><!--entity vendor_live--><g id="elem_vendor_live"><rect fill="#F1F1F1" height="46.2969" rx="2.5" ry="2.5" style="stroke:#181818;stroke-width:0.5;" width="141" x="2021.5" y="729.9069"/><rect fill="#F1F1F1" height="10" style="stroke:#181818;stroke-width:0.5;" width="15" x="2142.5" y="734.9069"/><rect fill="#F1F1F1" height="2" style="stroke:#181818;stroke-width:0.5;" width="4" x="2140.5" y="736.9069"/><rect fill="#F1F1F1" height="2" style="stroke:#181818;stroke-width:0.5;" width="4" x="2140.5" y="740.9069"/><text fill="#000000" font-family="sans-serif" font-size="14" lengthAdjust="spacing" textLength="101" x="2036.5" y="762.902">Vendor Master</text></g><!--entity vendor_mvp_live--><g id="elem_vendor_mvp_live"><rect fill="#F1F1F1" height="62.5938" rx="2.5" ry="2.5" style="stroke:#181818;stroke-width:0.5;" width="179" x="1804.5" y="835.9069"/><rect fill="#F1F1F1" height="10" style="stroke:#181818;stroke-width:0.5;" width="15" x="1963.5" y="840.9069"/><rect fill="#F1F1F1" height="2" style="stroke:#181818;stroke-width:0.5;" width="4" x="1961.5" y="842.9069"/><rect fill="#F1F1F1" height="2" style="stroke:#181818;stroke-width:0.5;" width="4" x="1961.5" y="846.9069"/><text fill="#000000" font-family="sans-serif" font-size="14" lengthAdjust="spacing" textLength="139" x="1819.5" y="868.902">MVP: Vendor Quality</text><text fill="#000000" font-family="sans-serif" font-size="14" lengthAdjust="spacing" textLength="66" x="1819.5" y="885.1989">Deployed</text></g><!--entity wb_link--><g id="elem_wb_link"><rect fill="#F1F1F1" height="46.2969" rx="2.5" ry="2.5" style="stroke:#181818;stroke-width:0.5;" width="158" x="1443" y="729.9069"/><rect fill="#F1F1F1" height="10" style="stroke:#181818;stroke-width:0.5;" width="15" x="1581" y="734.9069"/><rect fill="#F1F1F1" height="2" style="stroke:#181818;stroke-width:0.5;" width="4" x="1579" y="736.9069"/><rect fill="#F1F1F1" height="2" style="stroke:#181818;stroke-width:0.5;" width="4" x="1579" y="740.9069"/><text fill="#000000" font-family="sans-serif" font-size="14" lengthAdjust="spacing" textLength="118" x="1458" y="762.902">Weighbridge Link</text></g><!--entity data_sync--><g id="elem_data_sync"><rect fill="#F1F1F1" height="46.2969" rx="2.5" ry="2.5" style="stroke:#181818;stroke-width:0.5;" width="109" x="1636.5" y="729.9069"/><rect fill="#F1F1F1" height="10" style="stroke:#181818;stroke-width:0.5;" width="15" x="1725.5" y="734.9069"/><rect fill="#F1F1F1" height="2" style="stroke:#181818;stroke-width:0.5;" width="4" x="1723.5" y="736.9069"/><rect fill="#F1F1F1" height="2" style="stroke:#181818;stroke-width:0.5;" width="4" x="1723.5" y="740.9069"/><text fill="#000000" font-family="sans-serif" font-size="14" lengthAdjust="spacing" textLength="69" x="1651.5" y="762.902">Data Sync</text></g><!--entity integration_test--><g id="elem_integration_test"><rect fill="#F1F1F1" height="46.2969" rx="2.5" ry="2.5" style="stroke:#181818;stroke-width:0.5;" width="92" x="1476" y="844.4069"/><rect fill="#F1F1F1" height="10" style="stroke:#181818;stroke-width:0.5;" width="15" x="1548" y="849.4069"/><rect fill="#F1F1F1" height="2" style="stroke:#181818;stroke-width:0.5;" width="4" x="1546" y="851.4069"/><rect fill="#F1F1F1" height="2" style="stroke:#181818;stroke-width:0.5;" width="4" x="1546" y="855.4069"/><text fill="#000000" font-family="sans-serif" font-size="14" lengthAdjust="spacing" textLength="52" x="1491" y="877.402">Testing</text></g><g id="elem_GMN36"><path d="M47.5,249.4069 L47.5,319.9381 L300.5,319.9381 L300.5,259.4069 L290.5,249.4069 L47.5,249.4069 " fill="#FEFFDD" style="stroke:#181818;stroke-width:0.5;"/><path d="M290.5,249.4069 L290.5,259.4069 L300.5,259.4069 L290.5,249.4069 " fill="#FEFFDD" style="stroke:#181818;stroke-width:1.0;"/><text fill="#000000" font-family="sans-serif" font-size="13" font-weight="bold" lengthAdjust="spacing" textLength="134" x="53.5" y="266.4738">Benefits Realized:</text><text fill="#000000" font-family="sans-serif" font-size="13" lengthAdjust="spacing" textLength="232" x="53.5" y="281.6066">Invoice accuracy: 99.7% auto-match</text><text fill="#000000" font-family="sans-serif" font-size="13" lengthAdjust="spacing" textLength="232" x="53.5" y="296.7394">LHDN: 100% automated submission</text><text fill="#000000" font-family="sans-serif" font-size="13" lengthAdjust="spacing" textLength="200" x="53.5" y="311.8722">Total annual value: $722K-1.2M</text></g><!--entity so_live--><g id="elem_so_live"><rect fill="#F1F1F1" height="46.2969" rx="2.5" ry="2.5" style="stroke:#181818;stroke-width:0.5;" width="128" x="814" y="261.9069"/><rect fill="#F1F1F1" height="10" style="stroke:#181818;stroke-width:0.5;" width="15" x="922" y="266.9069"/><rect fill="#F1F1F1" height="2" style="stroke:#181818;stroke-width:0.5;" width="4" x="920" y="268.9069"/><rect fill="#F1F1F1" height="2" style="stroke:#181818;stroke-width:0.5;" width="4" x="920" y="272.9069"/><text fill="#000000" font-family="sans-serif" font-size="14" lengthAdjust="spacing" textLength="88" x="829" y="294.902">Sales Orders</text></g><!--entity do_live--><g id="elem_do_live"><rect fill="#F1F1F1" height="46.2969" rx="2.5" ry="2.5" style="stroke:#181818;stroke-width:0.5;" width="145" x="977.5" y="261.9069"/><rect fill="#F1F1F1" height="10" style="stroke:#181818;stroke-width:0.5;" width="15" x="1102.5" y="266.9069"/><rect fill="#F1F1F1" height="2" style="stroke:#181818;stroke-width:0.5;" width="4" x="1100.5" y="268.9069"/><rect fill="#F1F1F1" height="2" style="stroke:#181818;stroke-width:0.5;" width="4" x="1100.5" y="272.9069"/><text fill="#000000" font-family="sans-serif" font-size="14" lengthAdjust="spacing" textLength="105" x="992.5" y="294.902">Delivery Orders</text></g><!--entity cust_inv--><g id="elem_cust_inv"><rect fill="#F1F1F1" height="46.2969" rx="2.5" ry="2.5" style="stroke:#181818;stroke-width:0.5;" width="172" x="814" y="505.9069"/><rect fill="#F1F1F1" height="10" style="stroke:#181818;stroke-width:0.5;" width="15" x="966" y="510.9069"/><rect fill="#F1F1F1" height="2" style="stroke:#181818;stroke-width:0.5;" width="4" x="964" y="512.9069"/><rect fill="#F1F1F1" height="2" style="stroke:#181818;stroke-width:0.5;" width="4" x="964" y="516.9069"/><text fill="#000000" font-family="sans-serif" font-size="14" lengthAdjust="spacing" textLength="132" x="829" y="538.902">Customer Invoicing</text></g><!--entity inv_mvp_live--><g id="elem_inv_mvp_live"><rect fill="#F1F1F1" height="62.5938" rx="2.5" ry="2.5" style="stroke:#181818;stroke-width:0.5;" width="194" x="371" y="253.4069"/><rect fill="#F1F1F1" height="10" style="stroke:#181818;stroke-width:0.5;" width="15" x="545" y="258.4069"/><rect fill="#F1F1F1" height="2" style="stroke:#181818;stroke-width:0.5;" width="4" x="543" y="260.4069"/><rect fill="#F1F1F1" height="2" style="stroke:#181818;stroke-width:0.5;" width="4" x="543" y="264.4069"/><text fill="#000000" font-family="sans-serif" font-size="14" lengthAdjust="spacing" textLength="154" x="386" y="286.402">MVP: Invoice Matching</text><text fill="#000000" font-family="sans-serif" font-size="14" lengthAdjust="spacing" textLength="66" x="386" y="302.6989">Deployed</text></g><!--entity einv_mvp_live--><g id="elem_einv_mvp_live"><rect fill="#F1F1F1" height="62.5938" rx="2.5" ry="2.5" style="stroke:#181818;stroke-width:0.5;" width="141" x="600.5" y="253.4069"/><rect fill="#F1F1F1" height="10" style="stroke:#181818;stroke-width:0.5;" width="15" x="721.5" y="258.4069"/><rect fill="#F1F1F1" height="2" style="stroke:#181818;stroke-width:0.5;" width="4" x="719.5" y="260.4069"/><rect fill="#F1F1F1" height="2" style="stroke:#181818;stroke-width:0.5;" width="4" x="719.5" y="264.4069"/><text fill="#000000" font-family="sans-serif" font-size="14" lengthAdjust="spacing" textLength="101" x="615.5" y="286.402">MVP: e-Invoice</text><text fill="#000000" font-family="sans-serif" font-size="14" lengthAdjust="spacing" textLength="66" x="615.5" y="302.6989">Deployed</text></g><!--entity portal_live--><g id="elem_portal_live"><rect fill="#F1F1F1" height="62.5938" rx="2.5" ry="2.5" style="stroke:#181818;stroke-width:0.5;" width="151" x="392.5" y="497.4069"/><rect fill="#F1F1F1" height="10" style="stroke:#181818;stroke-width:0.5;" width="15" x="523.5" y="502.4069"/><rect fill="#F1F1F1" height="2" style="stroke:#181818;stroke-width:0.5;" width="4" x="521.5" y="504.4069"/><rect fill="#F1F1F1" height="2" style="stroke:#181818;stroke-width:0.5;" width="4" x="521.5" y="508.4069"/><text fill="#000000" font-family="sans-serif" font-size="14" lengthAdjust="spacing" textLength="111" x="407.5" y="530.402">Customer Portal</text><text fill="#000000" font-family="sans-serif" font-size="14" lengthAdjust="spacing" textLength="68" x="407.5" y="546.6989">Launched</text></g><!--entity stab--><g id="elem_stab"><rect fill="#F1F1F1" height="46.2969" rx="2.5" ry="2.5" style="stroke:#181818;stroke-width:0.5;" width="177" x="755.5" y="729.9069"/><rect fill="#F1F1F1" height="10" style="stroke:#181818;stroke-width:0.5;" width="15" x="912.5" y="734.9069"/><rect fill="#F1F1F1" height="2" style="stroke:#181818;stroke-width:0.5;" width="4" x="910.5" y="736.9069"/><rect fill="#F1F1F1" height="2" style="stroke:#181818;stroke-width:0.5;" width="4" x="910.5" y="740.9069"/><text fill="#000000" font-family="sans-serif" font-size="14" lengthAdjust="spacing" textLength="137" x="770.5" y="762.902">System Stabilization</text></g><!--entity resolve--><g id="elem_resolve"><rect fill="#F1F1F1" height="46.2969" rx="2.5" ry="2.5" style="stroke:#181818;stroke-width:0.5;" width="155" x="967.5" y="729.9069"/><rect fill="#F1F1F1" height="10" style="stroke:#181818;stroke-width:0.5;" width="15" x="1102.5" y="734.9069"/><rect fill="#F1F1F1" height="2" style="stroke:#181818;stroke-width:0.5;" width="4" x="1100.5" y="736.9069"/><rect fill="#F1F1F1" height="2" style="stroke:#181818;stroke-width:0.5;" width="4" x="1100.5" y="740.9069"/><text fill="#000000" font-family="sans-serif" font-size="14" lengthAdjust="spacing" textLength="115" x="982.5" y="762.902">Issue Resolution</text></g><!--entity tune--><g id="elem_tune"><rect fill="#F1F1F1" height="46.2969" rx="2.5" ry="2.5" style="stroke:#181818;stroke-width:0.5;" width="180" x="756" y="844.4069"/><rect fill="#F1F1F1" height="10" style="stroke:#181818;stroke-width:0.5;" width="15" x="916" y="849.4069"/><rect fill="#F1F1F1" height="2" style="stroke:#181818;stroke-width:0.5;" width="4" x="914" y="851.4069"/><rect fill="#F1F1F1" height="2" style="stroke:#181818;stroke-width:0.5;" width="4" x="914" y="855.4069"/><text fill="#000000" font-family="sans-serif" font-size="14" lengthAdjust="spacing" textLength="140" x="771" y="877.402">Performance Tuning</text></g><g id="elem_GMN52"><path d="M2267,241.9069 L2267,327.5709 L2507,327.5709 L2507,251.9069 L2497,241.9069 L2267,241.9069 " fill="#FEFFDD" style="stroke:#181818;stroke-width:0.5;"/><path d="M2497,241.9069 L2497,251.9069 L2507,251.9069 L2497,241.9069 " fill="#FEFFDD" style="stroke:#181818;stroke-width:1.0;"/><text fill="#000000" font-family="sans-serif" font-size="13" font-weight="bold" lengthAdjust="spacing" textLength="106" x="2273" y="258.9738">Final Benefits:</text><text fill="#000000" font-family="sans-serif" font-size="13" lengthAdjust="spacing" textLength="211" x="2273" y="274.1066">SoD: Real-time monitoring active</text><text fill="#000000" font-family="sans-serif" font-size="13" lengthAdjust="spacing" textLength="218" x="2273" y="289.2394">All modules optimized &amp; validated</text><text fill="#000000" font-family="sans-serif" font-size="13" lengthAdjust="spacing" textLength="155" x="2273" y="304.3722">Month 1 hypercare ends</text><text fill="#000000" font-family="sans-serif" font-size="13" lengthAdjust="spacing" textLength="219" x="2273" y="319.505">Month 2 transition to AMS support</text></g><!--entity sod_mvp_live--><g id="elem_sod_mvp_live"><rect fill="#F1F1F1" height="62.5938" rx="2.5" ry="2.5" style="stroke:#181818;stroke-width:0.5;" width="170" x="3848" y="253.4069"/><rect fill="#F1F1F1" height="10" style="stroke:#181818;stroke-width:0.5;" width="15" x="3998" y="258.4069"/><rect fill="#F1F1F1" height="2" style="stroke:#181818;stroke-width:0.5;" width="4" x="3996" y="260.4069"/><rect fill="#F1F1F1" height="2" style="stroke:#181818;stroke-width:0.5;" width="4" x="3996" y="264.4069"/><text fill="#000000" font-family="sans-serif" font-size="14" lengthAdjust="spacing" textLength="130" x="3863" y="286.402">MVP: SoD Analyzer</text><text fill="#000000" font-family="sans-serif" font-size="14" lengthAdjust="spacing" textLength="66" x="3863" y="302.6989">Deployed</text></g><!--entity compliance_audit--><g id="elem_compliance_audit"><rect fill="#F1F1F1" height="46.2969" rx="2.5" ry="2.5" style="stroke:#181818;stroke-width:0.5;" width="160" x="3653" y="261.9069"/><rect fill="#F1F1F1" height="10" style="stroke:#181818;stroke-width:0.5;" width="15" x="3793" y="266.9069"/><rect fill="#F1F1F1" height="2" style="stroke:#181818;stroke-width:0.5;" width="4" x="3791" y="268.9069"/><rect fill="#F1F1F1" height="2" style="stroke:#181818;stroke-width:0.5;" width="4" x="3791" y="272.9069"/><text fill="#000000" font-family="sans-serif" font-size="14" lengthAdjust="spacing" textLength="120" x="3668" y="294.902">Compliance Audit</text></g><!--entity realtime_monitor--><g id="elem_realtime_monitor"><rect fill="#F1F1F1" height="46.2969" rx="2.5" ry="2.5" style="stroke:#181818;stroke-width:0.5;" width="186" x="3432" y="261.9069"/><rect fill="#F1F1F1" height="10" style="stroke:#181818;stroke-width:0.5;" width="15" x="3598" y="266.9069"/><rect fill="#F1F1F1" height="2" style="stroke:#181818;stroke-width:0.5;" width="4" x="3596" y="268.9069"/><rect fill="#F1F1F1" height="2" style="stroke:#181818;stroke-width:0.5;" width="4" x="3596" y="272.9069"/><text fill="#000000" font-family="sans-serif" font-size="14" lengthAdjust="spacing" textLength="146" x="3447" y="294.902">Real-Time Monitoring</text></g><!--entity pm_opt--><g id="elem_pm_opt"><rect fill="#F1F1F1" height="46.2969" rx="2.5" ry="2.5" style="stroke:#181818;stroke-width:0.5;" width="181" x="3012.5" y="261.9069"/><rect fill="#F1F1F1" height="10" style="stroke:#181818;stroke-width:0.5;" width="15" x="3173.5" y="266.9069"/><rect fill="#F1F1F1" height="2" style="stroke:#181818;stroke-width:0.5;" width="4" x="3171.5" y="268.9069"/><rect fill="#F1F1F1" height="2" style="stroke:#181818;stroke-width:0.5;" width="4" x="3171.5" y="272.9069"/><text fill="#000000" font-family="sans-serif" font-size="14" lengthAdjust="spacing" textLength="141" x="3027.5" y="294.902">PM Module Optimize</text></g><!--entity asset_hier--><g id="elem_asset_hier"><rect fill="#F1F1F1" height="46.2969" rx="2.5" ry="2.5" style="stroke:#181818;stroke-width:0.5;" width="147" x="3228.5" y="261.9069"/><rect fill="#F1F1F1" height="10" style="stroke:#181818;stroke-width:0.5;" width="15" x="3355.5" y="266.9069"/><rect fill="#F1F1F1" height="2" style="stroke:#181818;stroke-width:0.5;" width="4" x="3353.5" y="268.9069"/><rect fill="#F1F1F1" height="2" style="stroke:#181818;stroke-width:0.5;" width="4" x="3353.5" y="272.9069"/><text fill="#000000" font-family="sans-serif" font-size="14" lengthAdjust="spacing" textLength="107" x="3243.5" y="294.902">Asset Hierarchy</text></g><!--entity prev_sched--><g id="elem_prev_sched"><rect fill="#F1F1F1" height="46.2969" rx="2.5" ry="2.5" style="stroke:#181818;stroke-width:0.5;" width="193" x="3012.5" y="505.9069"/><rect fill="#F1F1F1" height="10" style="stroke:#181818;stroke-width:0.5;" width="15" x="3185.5" y="510.9069"/><rect fill="#F1F1F1" height="2" style="stroke:#181818;stroke-width:0.5;" width="4" x="3183.5" y="512.9069"/><rect fill="#F1F1F1" height="2" style="stroke:#181818;stroke-width:0.5;" width="4" x="3183.5" y="516.9069"/><text fill="#000000" font-family="sans-serif" font-size="14" lengthAdjust="spacing" textLength="153" x="3027.5" y="538.902">Preventive Scheduling</text></g><!--entity dw_live--><g id="elem_dw_live"><rect fill="#F1F1F1" height="46.2969" rx="2.5" ry="2.5" style="stroke:#181818;stroke-width:0.5;" width="185" x="2542.5" y="261.9069"/><rect fill="#F1F1F1" height="10" style="stroke:#181818;stroke-width:0.5;" width="15" x="2707.5" y="266.9069"/><rect fill="#F1F1F1" height="2" style="stroke:#181818;stroke-width:0.5;" width="4" x="2705.5" y="268.9069"/><rect fill="#F1F1F1" height="2" style="stroke:#181818;stroke-width:0.5;" width="4" x="2705.5" y="272.9069"/><text fill="#000000" font-family="sans-serif" font-size="14" lengthAdjust="spacing" textLength="145" x="2557.5" y="294.902">Data Warehouse Live</text></g><!--entity exec_dash--><g id="elem_exec_dash"><rect fill="#F1F1F1" height="46.2969" rx="2.5" ry="2.5" style="stroke:#181818;stroke-width:0.5;" width="194" x="2762" y="261.9069"/><rect fill="#F1F1F1" height="10" style="stroke:#181818;stroke-width:0.5;" width="15" x="2936" y="266.9069"/><rect fill="#F1F1F1" height="2" style="stroke:#181818;stroke-width:0.5;" width="4" x="2934" y="268.9069"/><rect fill="#F1F1F1" height="2" style="stroke:#181818;stroke-width:0.5;" width="4" x="2934" y="272.9069"/><text fill="#000000" font-family="sans-serif" font-size="14" lengthAdjust="spacing" textLength="154" x="2777" y="294.902">Executive Dashboards</text></g><!--entity perf_verify--><g id="elem_perf_verify"><rect fill="#F1F1F1" height="46.2969" rx="2.5" ry="2.5" style="stroke:#181818;stroke-width:0.5;" width="207" x="2543.5" y="505.9069"/><rect fill="#F1F1F1" height="10" style="stroke:#181818;stroke-width:0.5;" width="15" x="2730.5" y="510.9069"/><rect fill="#F1F1F1" height="2" style="stroke:#181818;stroke-width:0.5;" width="4" x="2728.5" y="512.9069"/><rect fill="#F1F1F1" height="2" style="stroke:#181818;stroke-width:0.5;" width="4" x="2728.5" y="516.9069"/><text fill="#000000" font-family="sans-serif" font-size="14" lengthAdjust="spacing" textLength="167" x="2558.5" y="538.902">Performance Verification</text></g><g id="elem_GMN60"><path d="M4610,257.4069 L4610,312.8053 L4884,312.8053 L4884,267.4069 L4874,257.4069 L4610,257.4069 " fill="#FEFFDD" style="stroke:#181818;stroke-width:0.5;"/><path d="M4874,257.4069 L4874,267.4069 L4884,267.4069 L4874,257.4069 " fill="#FEFFDD" style="stroke:#181818;stroke-width:1.0;"/><text fill="#000000" font-family="sans-serif" font-size="13" lengthAdjust="spacing" textLength="232" x="4616" y="274.4738">Using Phase 1 blueprint as template</text><text fill="#000000" font-family="sans-serif" font-size="13" lengthAdjust="spacing" textLength="253" x="4616" y="289.6066">Faster implementation (12 weeks each)</text><text fill="#000000" font-family="sans-serif" font-size="13" lengthAdjust="spacing" textLength="186" x="4616" y="304.7394">MVP modules already proven</text></g><!--entity plant_b--><g id="elem_plant_b"><rect fill="#F1F1F1" height="46.2969" rx="2.5" ry="2.5" style="stroke:#181818;stroke-width:0.5;" width="180" x="4157" y="261.9069"/><rect fill="#F1F1F1" height="10" style="stroke:#181818;stroke-width:0.5;" width="15" x="4317" y="266.9069"/><rect fill="#F1F1F1" height="2" style="stroke:#181818;stroke-width:0.5;" width="4" x="4315" y="268.9069"/><rect fill="#F1F1F1" height="2" style="stroke:#181818;stroke-width:0.5;" width="4" x="4315" y="272.9069"/><text fill="#000000" font-family="sans-serif" font-size="14" lengthAdjust="spacing" textLength="140" x="4172" y="294.902">Plant B: Weeks 1-12</text></g><!--entity plant_c--><g id="elem_plant_c"><rect fill="#F1F1F1" height="46.2969" rx="2.5" ry="2.5" style="stroke:#181818;stroke-width:0.5;" width="189" x="4372.5" y="261.9069"/><rect fill="#F1F1F1" height="10" style="stroke:#181818;stroke-width:0.5;" width="15" x="4541.5" y="266.9069"/><rect fill="#F1F1F1" height="2" style="stroke:#181818;stroke-width:0.5;" width="4" x="4539.5" y="268.9069"/><rect fill="#F1F1F1" height="2" style="stroke:#181818;stroke-width:0.5;" width="4" x="4539.5" y="272.9069"/><text fill="#000000" font-family="sans-serif" font-size="14" lengthAdjust="spacing" textLength="149" x="4387.5" y="294.902">Plant C: Weeks 13-24</text></g><!--entity plant_d--><g id="elem_plant_d"><rect fill="#F1F1F1" height="46.2969" rx="2.5" ry="2.5" style="stroke:#181818;stroke-width:0.5;" width="169" x="4162.5" y="505.9069"/><rect fill="#F1F1F1" height="10" style="stroke:#181818;stroke-width:0.5;" width="15" x="4311.5" y="510.9069"/><rect fill="#F1F1F1" height="2" style="stroke:#181818;stroke-width:0.5;" width="4" x="4309.5" y="512.9069"/><rect fill="#F1F1F1" height="2" style="stroke:#181818;stroke-width:0.5;" width="4" x="4309.5" y="516.9069"/><text fill="#000000" font-family="sans-serif" font-size="14" lengthAdjust="spacing" textLength="129" x="4177.5" y="538.902">Plant D+: Ongoing</text></g><g id="elem_GMN63"><path d="M4916.5,387.9069 L4916.5,670.2975 L5211.5,670.2975 L5211.5,397.9069 L5201.5,387.9069 L4916.5,387.9069 " fill="#FEFFDD" style="stroke:#181818;stroke-width:0.5;"/><path d="M5201.5,387.9069 L5201.5,397.9069 L5211.5,397.9069 L5201.5,387.9069 " fill="#FEFFDD" style="stroke:#181818;stroke-width:1.0;"/><text fill="#000000" font-family="sans-serif" font-size="13" font-weight="bold" lengthAdjust="spacing" textLength="130" x="4922.5" y="404.9738">KEY MILESTONES:</text><text fill="#000000" font-family="sans-serif" font-size="13" lengthAdjust="spacing" textLength="4" x="4922.5" y="420.1066">&#160;</text><text fill="#000000" font-family="sans-serif" font-size="13" lengthAdjust="spacing" textLength="245" x="4922.5" y="435.2394">Week 4: GL Close Improvement Visible</text><text fill="#000000" font-family="sans-serif" font-size="13" lengthAdjust="spacing" textLength="176" x="4922.5" y="450.3722">Week 12: Go-Live Complete</text><text fill="#000000" font-family="sans-serif" font-size="13" lengthAdjust="spacing" textLength="274" x="4922.5" y="465.505">Week 12: Invoice Matching Benefit Realized</text><text fill="#000000" font-family="sans-serif" font-size="13" lengthAdjust="spacing" textLength="235" x="4922.5" y="480.6378">Week 18: All MVP Modules Optimized</text><text fill="#000000" font-family="sans-serif" font-size="13" lengthAdjust="spacing" textLength="240" x="4922.5" y="495.7706">Month 6: Full Annual Benefit Achieved</text><text fill="#000000" font-family="sans-serif" font-size="13" lengthAdjust="spacing" textLength="4" x="4922.5" y="510.9035">&#160;</text><text fill="#000000" font-family="sans-serif" font-size="13" font-weight="bold" lengthAdjust="spacing" textLength="179" x="4922.5" y="526.0363">RESOURCE ALLOCATION:</text><text fill="#000000" font-family="sans-serif" font-size="13" lengthAdjust="spacing" textLength="215" x="4922.5" y="541.1691">- SI Consultants: 40-50 FTE weeks</text><text fill="#000000" font-family="sans-serif" font-size="13" lengthAdjust="spacing" textLength="229" x="4922.5" y="556.3019">- Client Resources: 20-30 FTE weeks</text><text fill="#000000" font-family="sans-serif" font-size="13" lengthAdjust="spacing" textLength="209" x="4922.5" y="571.4347">- Testing Team: 15-20 FTE weeks</text><text fill="#000000" font-family="sans-serif" font-size="13" lengthAdjust="spacing" textLength="4" x="4922.5" y="586.5675">&#160;</text><text fill="#000000" font-family="sans-serif" font-size="13" font-weight="bold" lengthAdjust="spacing" textLength="127" x="4922.5" y="601.7003">RISK MITIGATION:</text><text fill="#000000" font-family="sans-serif" font-size="13" lengthAdjust="spacing" textLength="262" x="4922.5" y="616.8331">- Phased go-live (plant before marketing)</text><text fill="#000000" font-family="sans-serif" font-size="13" lengthAdjust="spacing" textLength="257" x="4922.5" y="631.966">- MVP modules reduce custom code risk</text><text fill="#000000" font-family="sans-serif" font-size="13" lengthAdjust="spacing" textLength="232" x="4922.5" y="647.0988">- Extensive testing (UT + SIT + UAT)</text><text fill="#000000" font-family="sans-serif" font-size="13" lengthAdjust="spacing" textLength="207" x="4922.5" y="662.2316">- Hypercare support for 1 month</text></g><!--link w3_4 to GMN20--><g id="link_w3_4_GMN20"><path d="M1477.9606,284.9069 C1477.9153,284.9069 1477.8699,284.9069 1477.8245,284.9069 C1477.4614,284.9069 1477.0983,284.9069 1476.7352,284.9069 C1473.8303,284.9069 1470.9256,284.9069 1468.0213,284.9069 C1462.2125,284.9069 1456.405,284.9069 1450.6,284.9069 " fill="none" id="w3_4-GMN20" style="stroke:#181818;stroke-width:1.0;stroke-dasharray:7.0,7.0;"/></g><!--link w11_12 to GMN36--><g id="link_w11_12_GMN36"><path d="M327.9541,284.9069 C327.9087,284.9069 327.8632,284.9069 327.8178,284.9069 C327.4544,284.9069 327.0909,284.9069 326.7275,284.9069 C323.82,284.9069 320.9125,284.9069 318.005,284.9069 C312.19,284.9069 306.375,284.9069 300.56,284.9069 " fill="none" id="w11_12-GMN36" style="stroke:#181818;stroke-width:1.0;stroke-dasharray:7.0,7.0;"/></g><!--link sod_mvp_live to GMN52--><g id="link_sod_mvp_live_GMN52"><path d="M3925.42,253.3169 C3912.05,205.4569 3879.23,116.1569 3813.5,78.4069 C3752.37,43.2969 2607.68,47.1369 2544.5,78.4069 C2476.01,112.3069 2429.17,191.8469 2405.33,241.7269 " fill="none" id="sod_mvp_live-GMN52" style="stroke:#181818;stroke-width:1.0;stroke-dasharray:7.0,7.0;"/></g><!--link phase3 to GMN60--><g id="link_phase3_GMN60"><path d="M4113.9773,244.9593 C4113.8103,243.8354 4113.6455,242.6947 4113.4835,241.5384 C4112.8354,236.913 4112.2325,232.0359 4111.7121,226.9678 C4110.6714,216.8317 4109.9613,205.9319 4109.8825,194.7544 C4109.5675,150.0444 4119.355,100.8919 4158.5,78.4069 C4197.23,56.1569 4519.68,60.2669 4560.5,78.4069 C4643.72,115.3769 4705.5,209.8669 4732.3,257.1169 " fill="none" id="phase3-GMN60" style="stroke:#181818;stroke-width:1.0;stroke-dasharray:7.0,7.0;"/></g><!--link GMN60 to GMN63--><g id="link_GMN60_GMN63"><path d="M4781.83,312.4969 C4814.64,337.5469 4866.1,376.8269 4916.14,415.0269 " fill="none" id="GMN60-GMN63" style="stroke:#181818;stroke-width:1.0;stroke-dasharray:7.0,7.0;"/></g><!--SRC=[ZLTfRzj64FskNp5esi1smDIaVF930KP7J5XNJCb6sXJ4YbnBX4akiRkKenJvxvrT7gRErWPiQJapExFptjkXZ6HCuUjq01sQq5I20MwInVepaH5BuO6HC24Pd4oMH50muJrOfotn4gKPuII1EGbU5fpbQTXXCUFmhd-fVbijJWD9qWM6_sLovtWzC6teZsUZhZDrnoCCysNcTkxXoHrvS6BUm1EbB-Bq5o02ChML2V-qMW2DC4_EeuxIOPo2cpvp8YJF0vdZrnFj3gPnKuHu9IkCyAvtrM_t-nW9O3CKMgEnPOD7PPuLBgPlmRiE_jGU005BCfQga_dBMmj9ayBXR-KWr2Tprx1B9849fmqhQzTg9YZV3jRMPZzRUzDj6nTuWb5Aqe32PsOCeXKj4c_x5ohnVh_JsPVuvm4CMPXZ8EMYTrl4VeoVTssToU_EmviTuGViXeyJ6p2maxA4nEjlQPTcCLlJi0gVhB8trmCLNHfNDXuK2x236dqRLLtwLyUgQleLvUcjCrm-aFCZJKD4w11XGxasNkcLOoMMFbzo4aTokypI_V-KUctSs8XPIHTSyweeyTg_GSBq3vNuHAF5SiwZSA5QbxxeJL_dk5dwSW1stZeDj5c8tto1ttODfrJ8A5rei-Wj9L_YUhE6b4aA75EGm9uroifOPsUVQ4gV8maF5C_b1mtjixFo6MAY4pD1RRZ17DO2Z3_WmhZKdqiJvMJ8AA502lH0I2MUbv8RWl_AayJ3rIcqoeIsbK2HbyHKe9Hq8rI2Q9xh41-06cwwOb5GoyAjOLflkc2fC-zTzQuEw09QdrUnDn1vwvldno1Pk8nvIBaeICqEOAjBrJfVDut3GyQTN4YMe5eKLLMj2t3PZzBLCTYP9bPkDmxalUuEygQKFDCthMCbQH9KpaCYWoLklqK3p66J0xiHwWIsNEbntxho2UEInD_I0SdJO5awPthnFwcd3g1i8zojCye3KfTl-Sj0eK6f_Z7DbsGU8T0rJuhEuigkkIj4JX7VWiLvRShLrttLJIX_PZpHUZxDqwglCa_f4HhgbcqJKUnXOjKr4g1Eac1jm-tjn-lVWEII6ObgPMaukEkER33Fpujd-8Y68F9v4Wc1HPHMKuQ7ZOnDKGfXHU8SAVxhjMNT6-P7QxZBs9zxHW3in7WoTOVkdzKGq1aF9mFN6NLwzHNUDioRnXnWwLkyhzdQsjDTDCTxqMDTd0jmT8dKSPRTRVlcziMu3KpbvwIeGJyetyAcOE4cD9l0hBS29myZMH2oNlI9MjnsqhetLRetP6aa6Qywpl61qaC_ATRtAPwkzT8mrOqP4tNd4QNTQQFSIz-yEbpkP5XD0UCCDqEi52HAV9RjfEe8d4VWBgASy62vBcO1jUOlSMqdDATu5IhX1a-nCu-hoZ9yuWkrTh2cQsot3LqYbdD6U8YOAFDht9FcjOyJui7IzCttXAnUibmqffpmTM_pUjzfaEjiwrqB1QRum0znhNM4gO-KHyzHy2O5g2ZF_agjhgiYDocx0wIpCpN6nL2Hj-8iWj5kt8v9ZPBcjUZ4CJvHZHJ0oawgKqDAHg6YhhP2XCabJklBIl0KEKNZaGMIarH4-igK39oXXvpFbAQs6apUOl7Ocq9DvSvuD7L7i_7C0tSuUHW_zeQzqVIDkMq_GwJkqBPuaMZRu8IXtXvFGaDQm0dEMHo7Cnm97bWSirmsXA2zDIer-wCPySc6wYt0j8hMg7L_lj-yKvkt3UkYOH_ij-z-GFLA5wp6jZOEz_Uyo5W7cWdLmUhrQOx2cM5FfPPwYef1PD7OlfvB8Tfy_ph1-_bLfqb9i3mjElWugI50ObIFSAtcNkJWLkjqJdCcKTHR2dRtlQymT0SzRpeUzJm5ErpMDBomwybDlG6gO7goVen4D8zfPTQyIxK6KhdnR7jIWEr1iJP6pYiagrA6PIcLBYcZ0gGeTlqShPpYrgc2EHWR5ITiwQ8UUjvuze0NY3COZ3lwOYa8PO3dOfQfo6Efu6N3nRbnUGxzQQyuKctJYIDLgBgqSnvGjBBEZVQsLJaput-Is4g8hQP5aOVhtUFfJjtF6pdeneUmO8RYFvnesC2SFgkts8Jm5we2dshRPcCvwYYUPA1784HZgD0bNhHTxpiglr3XP9dNoMoAWw_dghypPrg4gwUTYjc0co864tMuhHee_m80]--></g></svg>