<?xml version="1.0" encoding="us-ascii" standalone="no"?><svg xmlns="http://www.w3.org/2000/svg" xmlns:xlink="http://www.w3.org/1999/xlink" contentStyleType="text/css" height="787px" preserveAspectRatio="none" style="width:3559px;height:787px;background:#F5F5F5;" version="1.1" viewBox="0 0 3559 787" width="3559px" zoomAndPan="magnify"><defs/><g><rect fill="#F5F5F5" height="787" style="stroke:none;stroke-width:1.0;" width="3559" x="0" y="0"/><text fill="#000000" font-family="sans-serif" font-size="14" font-weight="bold" lengthAdjust="spacing" textLength="466" x="1539.75" y="22.9951">YTL Cement - Integration Architecture (Middleware &amp; APIs)</text><!--cluster sync--><g id="cluster_sync"><rect fill="#FFE6E6" height="273" rx="2.5" ry="2.5" style="stroke:#181818;stroke-width:1.0;" width="358" x="7" y="171.6069"/><text fill="#000000" font-family="sans-serif" font-size="14" font-weight="bold" lengthAdjust="spacing" textLength="238" x="67" y="186.602">SYNCHRONOUS INTEGRATIONS</text><text fill="#000000" font-family="sans-serif" font-size="14" font-weight="bold" lengthAdjust="spacing" textLength="257" x="57.5" y="202.8989">(Real-time, Guaranteed Delivery)</text></g><!--cluster async--><g id="cluster_async"><rect fill="#E6F3FF" height="459" rx="2.5" ry="2.5" style="stroke:#181818;stroke-width:1.0;" width="533" x="710" y="171.6069"/><text fill="#000000" font-family="sans-serif" font-size="14" font-weight="bold" lengthAdjust="spacing" textLength="249" x="852" y="186.602">ASYNCHRONOUS INTEGRATIONS</text><text fill="#000000" font-family="sans-serif" font-size="14" font-weight="bold" lengthAdjust="spacing" textLength="162" x="895.5" y="202.8989">(Batch/Event-Driven)</text></g><!--cluster api--><g id="cluster_api"><rect fill="#FFFFCC" height="644.5" rx="2.5" ry="2.5" style="stroke:#181818;stroke-width:1.0;" width="958" x="1662" y="137.1069"/><text fill="#000000" font-family="sans-serif" font-size="14" font-weight="bold" lengthAdjust="spacing" textLength="144" x="2069" y="152.102">API INTEGRATIONS</text><text fill="#000000" font-family="sans-serif" font-size="14" font-weight="bold" lengthAdjust="spacing" textLength="227" x="2027.5" y="168.3989">(External Partners &amp; Portals)</text></g><!--cluster vendor_api--><g id="cluster_vendor_api"><rect fill="none" height="224" rx="2.5" ry="2.5" style="stroke:#181818;stroke-width:1.0;" width="345" x="2243" y="204.1069"/><text fill="#000000" font-family="sans-serif" font-size="14" font-weight="bold" lengthAdjust="spacing" textLength="148" x="2341.5" y="219.102">Vendor Portal APIs</text></g><!--cluster customer_api--><g id="cluster_customer_api"><rect fill="none" height="224" rx="2.5" ry="2.5" style="stroke:#181818;stroke-width:1.0;" width="371" x="1848" y="204.1069"/><text fill="#000000" font-family="sans-serif" font-size="14" font-weight="bold" lengthAdjust="spacing" textLength="167" x="1950" y="219.102">Customer Portal APIs</text></g><!--cluster partner_api--><g id="cluster_partner_api"><rect fill="none" height="241" rx="2.5" ry="2.5" style="stroke:#181818;stroke-width:1.0;" width="325" x="2239" y="508.6069"/><text fill="#000000" font-family="sans-serif" font-size="14" font-weight="bold" lengthAdjust="spacing" textLength="167" x="2318" y="523.602">External Partner APIs</text></g><!--cluster dw_int--><g id="cluster_dw_int"><rect fill="#CCFFCC" height="273" rx="2.5" ry="2.5" style="stroke:#181818;stroke-width:1.0;" width="404" x="266" y="484.6069"/><text fill="#000000" font-family="sans-serif" font-size="14" font-weight="bold" lengthAdjust="spacing" textLength="255" x="340.5" y="499.602">DATA WAREHOUSE INTEGRATION</text><text fill="#000000" font-family="sans-serif" font-size="14" font-weight="bold" lengthAdjust="spacing" textLength="183" x="376.5" y="515.8989">(Analytics &amp; Reporting)</text></g><!--cluster backup--><g id="cluster_backup"><rect fill="#FFCCCC" height="257" rx="2.5" ry="2.5" style="stroke:#181818;stroke-width:1.0;" width="310" x="2921" y="500.6069"/><text fill="#000000" font-family="sans-serif" font-size="14" font-weight="bold" lengthAdjust="spacing" textLength="263" x="2944.5" y="515.602">BACKUP &amp; ARCHIVE INTEGRATION</text></g><!--entity s4_po--><g id="elem_s4_po"><rect fill="#F1F1F1" height="62.5938" rx="2.5" ry="2.5" style="stroke:#181818;stroke-width:0.5;" width="101" x="50.5" y="230.6069"/><rect fill="#F1F1F1" height="10" style="stroke:#181818;stroke-width:0.5;" width="15" x="131.5" y="235.6069"/><rect fill="#F1F1F1" height="2" style="stroke:#181818;stroke-width:0.5;" width="4" x="129.5" y="237.6069"/><rect fill="#F1F1F1" height="2" style="stroke:#181818;stroke-width:0.5;" width="4" x="129.5" y="241.6069"/><text fill="#000000" font-family="sans-serif" font-size="14" lengthAdjust="spacing" textLength="61" x="65.5" y="263.602">S/4HANA</text><text fill="#000000" font-family="sans-serif" font-size="14" lengthAdjust="spacing" textLength="54" x="65.5" y="279.8989">PO/STO</text></g><!--entity pi_sync--><g id="elem_pi_sync"><rect fill="#F1F1F1" height="62.5938" rx="2.5" ry="2.5" style="stroke:#181818;stroke-width:0.5;" width="154" x="187" y="230.6069"/><rect fill="#F1F1F1" height="10" style="stroke:#181818;stroke-width:0.5;" width="15" x="321" y="235.6069"/><rect fill="#F1F1F1" height="2" style="stroke:#181818;stroke-width:0.5;" width="4" x="319" y="237.6069"/><rect fill="#F1F1F1" height="2" style="stroke:#181818;stroke-width:0.5;" width="4" x="319" y="241.6069"/><text fill="#000000" font-family="sans-serif" font-size="14" lengthAdjust="spacing" textLength="60" x="202" y="263.602">SAP PI/XI</text><text fill="#000000" font-family="sans-serif" font-size="14" lengthAdjust="spacing" textLength="114" x="202" y="279.8989">Message Queue</text></g><!--entity wb_sync--><g id="elem_wb_sync"><rect fill="#F1F1F1" height="62.5938" rx="2.5" ry="2.5" style="stroke:#181818;stroke-width:0.5;" width="127" x="132.5" y="357.6069"/><rect fill="#F1F1F1" height="10" style="stroke:#181818;stroke-width:0.5;" width="15" x="239.5" y="362.6069"/><rect fill="#F1F1F1" height="2" style="stroke:#181818;stroke-width:0.5;" width="4" x="237.5" y="364.6069"/><rect fill="#F1F1F1" height="2" style="stroke:#181818;stroke-width:0.5;" width="4" x="237.5" y="368.6069"/><text fill="#000000" font-family="sans-serif" font-size="14" lengthAdjust="spacing" textLength="87" x="147.5" y="390.602">Weighbridge</text><text fill="#000000" font-family="sans-serif" font-size="14" lengthAdjust="spacing" textLength="71" x="147.5" y="406.8989">(102 - GR)</text></g><!--entity s4_gl--><g id="elem_s4_gl"><rect fill="#F1F1F1" height="62.5938" rx="2.5" ry="2.5" style="stroke:#181818;stroke-width:0.5;" width="123" x="753.5" y="230.6069"/><rect fill="#F1F1F1" height="10" style="stroke:#181818;stroke-width:0.5;" width="15" x="856.5" y="235.6069"/><rect fill="#F1F1F1" height="2" style="stroke:#181818;stroke-width:0.5;" width="4" x="854.5" y="237.6069"/><rect fill="#F1F1F1" height="2" style="stroke:#181818;stroke-width:0.5;" width="4" x="854.5" y="241.6069"/><text fill="#000000" font-family="sans-serif" font-size="14" lengthAdjust="spacing" textLength="83" x="768.5" y="263.602">S/4HANA GL</text><text fill="#000000" font-family="sans-serif" font-size="14" lengthAdjust="spacing" textLength="51" x="768.5" y="279.8989">Module</text></g><!--entity event_bus--><g id="elem_event_bus"><rect fill="#F1F1F1" height="62.5938" rx="2.5" ry="2.5" style="stroke:#181818;stroke-width:0.5;" width="134" x="912" y="230.6069"/><rect fill="#F1F1F1" height="10" style="stroke:#181818;stroke-width:0.5;" width="15" x="1026" y="235.6069"/><rect fill="#F1F1F1" height="2" style="stroke:#181818;stroke-width:0.5;" width="4" x="1024" y="237.6069"/><rect fill="#F1F1F1" height="2" style="stroke:#181818;stroke-width:0.5;" width="4" x="1024" y="241.6069"/><text fill="#000000" font-family="sans-serif" font-size="14" lengthAdjust="spacing" textLength="94" x="927" y="263.602">Message Bus</text><text fill="#000000" font-family="sans-serif" font-size="14" lengthAdjust="spacing" textLength="91" x="927" y="279.8989">(Event Topic)</text></g><!--entity async_invoice--><g id="elem_async_invoice"><rect fill="#F1F1F1" height="62.5938" rx="2.5" ry="2.5" style="stroke:#181818;stroke-width:0.5;" width="137" x="1081.5" y="230.6069"/><rect fill="#F1F1F1" height="10" style="stroke:#181818;stroke-width:0.5;" width="15" x="1198.5" y="235.6069"/><rect fill="#F1F1F1" height="2" style="stroke:#181818;stroke-width:0.5;" width="4" x="1196.5" y="237.6069"/><rect fill="#F1F1F1" height="2" style="stroke:#181818;stroke-width:0.5;" width="4" x="1196.5" y="241.6069"/><text fill="#000000" font-family="sans-serif" font-size="14" lengthAdjust="spacing" textLength="48" x="1096.5" y="263.602">Invoice</text><text fill="#000000" font-family="sans-serif" font-size="14" lengthAdjust="spacing" textLength="97" x="1096.5" y="279.8989">Matching MVP</text></g><!--entity async_gl--><g id="elem_async_gl"><rect fill="#F1F1F1" height="62.5938" rx="2.5" ry="2.5" style="stroke:#181818;stroke-width:0.5;" width="120" x="755" y="357.6069"/><rect fill="#F1F1F1" height="10" style="stroke:#181818;stroke-width:0.5;" width="15" x="855" y="362.6069"/><rect fill="#F1F1F1" height="2" style="stroke:#181818;stroke-width:0.5;" width="4" x="853" y="364.6069"/><rect fill="#F1F1F1" height="2" style="stroke:#181818;stroke-width:0.5;" width="4" x="853" y="368.6069"/><text fill="#000000" font-family="sans-serif" font-size="14" lengthAdjust="spacing" textLength="80" x="770" y="390.602">GL Anomaly</text><text fill="#000000" font-family="sans-serif" font-size="14" lengthAdjust="spacing" textLength="30" x="770" y="406.8989">MVP</text></g><!--entity async_vendor--><g id="elem_async_vendor"><rect fill="#F1F1F1" height="62.5938" rx="2.5" ry="2.5" style="stroke:#181818;stroke-width:0.5;" width="140" x="910" y="357.6069"/><rect fill="#F1F1F1" height="10" style="stroke:#181818;stroke-width:0.5;" width="15" x="1030" y="362.6069"/><rect fill="#F1F1F1" height="2" style="stroke:#181818;stroke-width:0.5;" width="4" x="1028" y="364.6069"/><rect fill="#F1F1F1" height="2" style="stroke:#181818;stroke-width:0.5;" width="4" x="1028" y="368.6069"/><text fill="#000000" font-family="sans-serif" font-size="14" lengthAdjust="spacing" textLength="100" x="925" y="390.602">Vendor Quality</text><text fill="#000000" font-family="sans-serif" font-size="14" lengthAdjust="spacing" textLength="30" x="925" y="406.8989">MVP</text></g><!--entity async_sod--><g id="elem_async_sod"><rect fill="#F1F1F1" height="62.5938" rx="2.5" ry="2.5" style="stroke:#181818;stroke-width:0.5;" width="131" x="1085.5" y="357.6069"/><rect fill="#F1F1F1" height="10" style="stroke:#181818;stroke-width:0.5;" width="15" x="1196.5" y="362.6069"/><rect fill="#F1F1F1" height="2" style="stroke:#181818;stroke-width:0.5;" width="4" x="1194.5" y="364.6069"/><rect fill="#F1F1F1" height="2" style="stroke:#181818;stroke-width:0.5;" width="4" x="1194.5" y="368.6069"/><text fill="#000000" font-family="sans-serif" font-size="14" lengthAdjust="spacing" textLength="91" x="1100.5" y="390.602">SoD Analyzer</text><text fill="#000000" font-family="sans-serif" font-size="14" lengthAdjust="spacing" textLength="30" x="1100.5" y="406.8989">MVP</text></g><!--entity s4_ap--><g id="elem_s4_ap"><rect fill="#F1F1F1" height="62.5938" rx="2.5" ry="2.5" style="stroke:#181818;stroke-width:0.5;" width="123" x="753.5" y="543.6069"/><rect fill="#F1F1F1" height="10" style="stroke:#181818;stroke-width:0.5;" width="15" x="856.5" y="548.6069"/><rect fill="#F1F1F1" height="2" style="stroke:#181818;stroke-width:0.5;" width="4" x="854.5" y="550.6069"/><rect fill="#F1F1F1" height="2" style="stroke:#181818;stroke-width:0.5;" width="4" x="854.5" y="554.6069"/><text fill="#000000" font-family="sans-serif" font-size="14" lengthAdjust="spacing" textLength="83" x="768.5" y="576.602">S/4HANA AP</text><text fill="#000000" font-family="sans-serif" font-size="14" lengthAdjust="spacing" textLength="51" x="768.5" y="592.8989">Module</text></g><!--entity s4_vendor--><g id="elem_s4_vendor"><rect fill="#F1F1F1" height="62.5938" rx="2.5" ry="2.5" style="stroke:#181818;stroke-width:0.5;" width="155" x="911.5" y="543.6069"/><rect fill="#F1F1F1" height="10" style="stroke:#181818;stroke-width:0.5;" width="15" x="1046.5" y="548.6069"/><rect fill="#F1F1F1" height="2" style="stroke:#181818;stroke-width:0.5;" width="4" x="1044.5" y="550.6069"/><rect fill="#F1F1F1" height="2" style="stroke:#181818;stroke-width:0.5;" width="4" x="1044.5" y="554.6069"/><text fill="#000000" font-family="sans-serif" font-size="14" lengthAdjust="spacing" textLength="115" x="926.5" y="576.602">S/4HANA Vendor</text><text fill="#000000" font-family="sans-serif" font-size="14" lengthAdjust="spacing" textLength="47" x="926.5" y="592.8989">Master</text></g><!--entity api_gw--><g id="elem_api_gw"><rect fill="#F1F1F1" height="62.5938" rx="2.5" ry="2.5" style="stroke:#181818;stroke-width:0.5;" width="124" x="1705" y="230.6069"/><rect fill="#F1F1F1" height="10" style="stroke:#181818;stroke-width:0.5;" width="15" x="1809" y="235.6069"/><rect fill="#F1F1F1" height="2" style="stroke:#181818;stroke-width:0.5;" width="4" x="1807" y="237.6069"/><rect fill="#F1F1F1" height="2" style="stroke:#181818;stroke-width:0.5;" width="4" x="1807" y="241.6069"/><text fill="#000000" font-family="sans-serif" font-size="14" lengthAdjust="spacing" textLength="61" x="1720" y="263.602">S/4HANA</text><text fill="#000000" font-family="sans-serif" font-size="14" lengthAdjust="spacing" textLength="84" x="1720" y="279.8989">API Gateway</text></g><!--entity rfq_api--><g id="elem_rfq_api"><rect fill="#F1F1F1" height="46.2969" rx="2.5" ry="2.5" style="stroke:#181818;stroke-width:0.5;" width="121" x="2259.5" y="239.1069"/><rect fill="#F1F1F1" height="10" style="stroke:#181818;stroke-width:0.5;" width="15" x="2360.5" y="244.1069"/><rect fill="#F1F1F1" height="2" style="stroke:#181818;stroke-width:0.5;" width="4" x="2358.5" y="246.1069"/><rect fill="#F1F1F1" height="2" style="stroke:#181818;stroke-width:0.5;" width="4" x="2358.5" y="250.1069"/><text fill="#000000" font-family="sans-serif" font-size="14" lengthAdjust="spacing" textLength="81" x="2274.5" y="272.102">Submit RFQ</text></g><!--entity po_status_api--><g id="elem_po_status_api"><rect fill="#F1F1F1" height="46.2969" rx="2.5" ry="2.5" style="stroke:#181818;stroke-width:0.5;" width="156" x="2416" y="239.1069"/><rect fill="#F1F1F1" height="10" style="stroke:#181818;stroke-width:0.5;" width="15" x="2552" y="244.1069"/><rect fill="#F1F1F1" height="2" style="stroke:#181818;stroke-width:0.5;" width="4" x="2550" y="246.1069"/><rect fill="#F1F1F1" height="2" style="stroke:#181818;stroke-width:0.5;" width="4" x="2550" y="250.1069"/><text fill="#000000" font-family="sans-serif" font-size="14" lengthAdjust="spacing" textLength="116" x="2431" y="272.102">Check PO Status</text></g><!--entity inv_status_api--><g id="elem_inv_status_api"><rect fill="#F1F1F1" height="46.2969" rx="2.5" ry="2.5" style="stroke:#181818;stroke-width:0.5;" width="132" x="2259" y="366.1069"/><rect fill="#F1F1F1" height="10" style="stroke:#181818;stroke-width:0.5;" width="15" x="2371" y="371.1069"/><rect fill="#F1F1F1" height="2" style="stroke:#181818;stroke-width:0.5;" width="4" x="2369" y="373.1069"/><rect fill="#F1F1F1" height="2" style="stroke:#181818;stroke-width:0.5;" width="4" x="2369" y="377.1069"/><text fill="#000000" font-family="sans-serif" font-size="14" lengthAdjust="spacing" textLength="92" x="2274" y="399.102">View Invoices</text></g><!--entity order_track_api--><g id="elem_order_track_api"><rect fill="#F1F1F1" height="46.2969" rx="2.5" ry="2.5" style="stroke:#181818;stroke-width:0.5;" width="142" x="1864" y="239.1069"/><rect fill="#F1F1F1" height="10" style="stroke:#181818;stroke-width:0.5;" width="15" x="1986" y="244.1069"/><rect fill="#F1F1F1" height="2" style="stroke:#181818;stroke-width:0.5;" width="4" x="1984" y="246.1069"/><rect fill="#F1F1F1" height="2" style="stroke:#181818;stroke-width:0.5;" width="4" x="1984" y="250.1069"/><text fill="#000000" font-family="sans-serif" font-size="14" lengthAdjust="spacing" textLength="102" x="1879" y="272.102">Order Tracking</text></g><!--entity inv_down_api--><g id="elem_inv_down_api"><rect fill="#F1F1F1" height="46.2969" rx="2.5" ry="2.5" style="stroke:#181818;stroke-width:0.5;" width="161" x="2041.5" y="239.1069"/><rect fill="#F1F1F1" height="10" style="stroke:#181818;stroke-width:0.5;" width="15" x="2182.5" y="244.1069"/><rect fill="#F1F1F1" height="2" style="stroke:#181818;stroke-width:0.5;" width="4" x="2180.5" y="246.1069"/><rect fill="#F1F1F1" height="2" style="stroke:#181818;stroke-width:0.5;" width="4" x="2180.5" y="250.1069"/><text fill="#000000" font-family="sans-serif" font-size="14" lengthAdjust="spacing" textLength="121" x="2056.5" y="272.102">Invoice Download</text></g><!--entity pay_status_api--><g id="elem_pay_status_api"><rect fill="#F1F1F1" height="46.2969" rx="2.5" ry="2.5" style="stroke:#181818;stroke-width:0.5;" width="148" x="1864" y="366.1069"/><rect fill="#F1F1F1" height="10" style="stroke:#181818;stroke-width:0.5;" width="15" x="1992" y="371.1069"/><rect fill="#F1F1F1" height="2" style="stroke:#181818;stroke-width:0.5;" width="4" x="1990" y="373.1069"/><rect fill="#F1F1F1" height="2" style="stroke:#181818;stroke-width:0.5;" width="4" x="1990" y="377.1069"/><text fill="#000000" font-family="sans-serif" font-size="14" lengthAdjust="spacing" textLength="108" x="1879" y="399.102">Payment Status</text></g><!--entity lhdn_api--><g id="elem_lhdn_api"><rect fill="#F1F1F1" height="62.5938" rx="2.5" ry="2.5" style="stroke:#181818;stroke-width:0.5;" width="140" x="2255" y="543.6069"/><rect fill="#F1F1F1" height="10" style="stroke:#181818;stroke-width:0.5;" width="15" x="2375" y="548.6069"/><rect fill="#F1F1F1" height="2" style="stroke:#181818;stroke-width:0.5;" width="4" x="2373" y="550.6069"/><rect fill="#F1F1F1" height="2" style="stroke:#181818;stroke-width:0.5;" width="4" x="2373" y="554.6069"/><text fill="#000000" font-family="sans-serif" font-size="14" lengthAdjust="spacing" textLength="100" x="2270" y="576.602">LHDN MyInvois</text><text fill="#000000" font-family="sans-serif" font-size="14" lengthAdjust="spacing" textLength="72" x="2270" y="592.8989">(e-Invoice)</text></g><!--entity bank_api--><g id="elem_bank_api"><rect fill="#F1F1F1" height="62.5938" rx="2.5" ry="2.5" style="stroke:#181818;stroke-width:0.5;" width="118" x="2430" y="543.6069"/><rect fill="#F1F1F1" height="10" style="stroke:#181818;stroke-width:0.5;" width="15" x="2528" y="548.6069"/><rect fill="#F1F1F1" height="2" style="stroke:#181818;stroke-width:0.5;" width="4" x="2526" y="550.6069"/><rect fill="#F1F1F1" height="2" style="stroke:#181818;stroke-width:0.5;" width="4" x="2526" y="554.6069"/><text fill="#000000" font-family="sans-serif" font-size="14" lengthAdjust="spacing" textLength="68" x="2445" y="576.602">Bank APIs</text><text fill="#000000" font-family="sans-serif" font-size="14" lengthAdjust="spacing" textLength="78" x="2445" y="592.8989">(Payments)</text></g><!--entity dcs_api--><g id="elem_dcs_api"><rect fill="#F1F1F1" height="62.5938" rx="2.5" ry="2.5" style="stroke:#181818;stroke-width:0.5;" width="109" x="2270.5" y="670.6069"/><rect fill="#F1F1F1" height="10" style="stroke:#181818;stroke-width:0.5;" width="15" x="2359.5" y="675.6069"/><rect fill="#F1F1F1" height="2" style="stroke:#181818;stroke-width:0.5;" width="4" x="2357.5" y="677.6069"/><rect fill="#F1F1F1" height="2" style="stroke:#181818;stroke-width:0.5;" width="4" x="2357.5" y="681.6069"/><text fill="#000000" font-family="sans-serif" font-size="14" lengthAdjust="spacing" textLength="69" x="2285.5" y="703.602">DCS/Plant</text><text fill="#000000" font-family="sans-serif" font-size="14" lengthAdjust="spacing" textLength="59" x="2285.5" y="719.8989">Systems</text></g><!--entity cdc--><g id="elem_cdc"><rect fill="#F1F1F1" height="62.5938" rx="2.5" ry="2.5" style="stroke:#181818;stroke-width:0.5;" width="101" x="325.5" y="543.6069"/><rect fill="#F1F1F1" height="10" style="stroke:#181818;stroke-width:0.5;" width="15" x="406.5" y="548.6069"/><rect fill="#F1F1F1" height="2" style="stroke:#181818;stroke-width:0.5;" width="4" x="404.5" y="550.6069"/><rect fill="#F1F1F1" height="2" style="stroke:#181818;stroke-width:0.5;" width="4" x="404.5" y="554.6069"/><text fill="#000000" font-family="sans-serif" font-size="14" lengthAdjust="spacing" textLength="61" x="340.5" y="576.602">S/4HANA</text><text fill="#000000" font-family="sans-serif" font-size="14" lengthAdjust="spacing" textLength="31" x="340.5" y="592.8989">CDC</text></g><!--entity repl--><g id="elem_repl"><rect fill="#F1F1F1" height="62.5938" rx="2.5" ry="2.5" style="stroke:#181818;stroke-width:0.5;" width="116" x="530" y="543.6069"/><rect fill="#F1F1F1" height="10" style="stroke:#181818;stroke-width:0.5;" width="15" x="626" y="548.6069"/><rect fill="#F1F1F1" height="2" style="stroke:#181818;stroke-width:0.5;" width="4" x="624" y="550.6069"/><rect fill="#F1F1F1" height="2" style="stroke:#181818;stroke-width:0.5;" width="4" x="624" y="554.6069"/><text fill="#000000" font-family="sans-serif" font-size="14" lengthAdjust="spacing" textLength="65" x="545" y="576.602">Real-time</text><text fill="#000000" font-family="sans-serif" font-size="14" lengthAdjust="spacing" textLength="76" x="545" y="592.8989">Replication</text></g><!--entity dw--><g id="elem_dw"><rect fill="#F1F1F1" height="62.5938" rx="2.5" ry="2.5" style="stroke:#181818;stroke-width:0.5;" width="155" x="298.5" y="670.6069"/><rect fill="#F1F1F1" height="10" style="stroke:#181818;stroke-width:0.5;" width="15" x="433.5" y="675.6069"/><rect fill="#F1F1F1" height="2" style="stroke:#181818;stroke-width:0.5;" width="4" x="431.5" y="677.6069"/><rect fill="#F1F1F1" height="2" style="stroke:#181818;stroke-width:0.5;" width="4" x="431.5" y="681.6069"/><text fill="#000000" font-family="sans-serif" font-size="14" lengthAdjust="spacing" textLength="115" x="313.5" y="703.602">Data Warehouse</text><text fill="#000000" font-family="sans-serif" font-size="14" lengthAdjust="spacing" textLength="108" x="313.5" y="719.8989">(Hadoop/Spark)</text></g><!--entity bi--><g id="elem_bi"><rect fill="#F1F1F1" height="62.5938" rx="2.5" ry="2.5" style="stroke:#181818;stroke-width:0.5;" width="157" x="488.5" y="670.6069"/><rect fill="#F1F1F1" height="10" style="stroke:#181818;stroke-width:0.5;" width="15" x="625.5" y="675.6069"/><rect fill="#F1F1F1" height="2" style="stroke:#181818;stroke-width:0.5;" width="4" x="623.5" y="677.6069"/><rect fill="#F1F1F1" height="2" style="stroke:#181818;stroke-width:0.5;" width="4" x="623.5" y="681.6069"/><text fill="#000000" font-family="sans-serif" font-size="14" lengthAdjust="spacing" textLength="55" x="503.5" y="703.602">BI Tools</text><text fill="#000000" font-family="sans-serif" font-size="14" lengthAdjust="spacing" textLength="117" x="503.5" y="719.8989">(Looker/Tableau)</text></g><!--entity prod--><g id="elem_prod"><rect fill="#F1F1F1" height="62.5938" rx="2.5" ry="2.5" style="stroke:#181818;stroke-width:0.5;" width="115" x="2964.5" y="543.6069"/><rect fill="#F1F1F1" height="10" style="stroke:#181818;stroke-width:0.5;" width="15" x="3059.5" y="548.6069"/><rect fill="#F1F1F1" height="2" style="stroke:#181818;stroke-width:0.5;" width="4" x="3057.5" y="550.6069"/><rect fill="#F1F1F1" height="2" style="stroke:#181818;stroke-width:0.5;" width="4" x="3057.5" y="554.6069"/><text fill="#000000" font-family="sans-serif" font-size="14" lengthAdjust="spacing" textLength="61" x="2979.5" y="576.602">S/4HANA</text><text fill="#000000" font-family="sans-serif" font-size="14" lengthAdjust="spacing" textLength="75" x="2979.5" y="592.8989">Production</text></g><!--entity backup_sys--><g id="elem_backup_sys"><rect fill="#F1F1F1" height="62.5938" rx="2.5" ry="2.5" style="stroke:#181818;stroke-width:0.5;" width="92" x="3115" y="543.6069"/><rect fill="#F1F1F1" height="10" style="stroke:#181818;stroke-width:0.5;" width="15" x="3187" y="548.6069"/><rect fill="#F1F1F1" height="2" style="stroke:#181818;stroke-width:0.5;" width="4" x="3185" y="550.6069"/><rect fill="#F1F1F1" height="2" style="stroke:#181818;stroke-width:0.5;" width="4" x="3185" y="554.6069"/><text fill="#000000" font-family="sans-serif" font-size="14" lengthAdjust="spacing" textLength="52" x="3130" y="576.602">Backup</text><text fill="#000000" font-family="sans-serif" font-size="14" lengthAdjust="spacing" textLength="51" x="3130" y="592.8989">System</text></g><!--entity archive--><g id="elem_archive"><rect fill="#F1F1F1" height="62.5938" rx="2.5" ry="2.5" style="stroke:#181818;stroke-width:0.5;" width="94" x="2975" y="670.6069"/><rect fill="#F1F1F1" height="10" style="stroke:#181818;stroke-width:0.5;" width="15" x="3049" y="675.6069"/><rect fill="#F1F1F1" height="2" style="stroke:#181818;stroke-width:0.5;" width="4" x="3047" y="677.6069"/><rect fill="#F1F1F1" height="2" style="stroke:#181818;stroke-width:0.5;" width="4" x="3047" y="681.6069"/><text fill="#000000" font-family="sans-serif" font-size="14" lengthAdjust="spacing" textLength="50" x="2990" y="703.602">Archive</text><text fill="#000000" font-family="sans-serif" font-size="14" lengthAdjust="spacing" textLength="54" x="2990" y="719.8989">Storage</text></g><g id="elem_GMN6"><path d="M389,234.6069 L389,290.0053 L683,290.0053 L683,244.6069 L673,234.6069 L389,234.6069 " fill="#FEFFDD" style="stroke:#181818;stroke-width:0.5;"/><path d="M673,234.6069 L673,244.6069 L683,244.6069 L673,234.6069 " fill="#FEFFDD" style="stroke:#181818;stroke-width:1.0;"/><text fill="#000000" font-family="sans-serif" font-size="13" font-weight="bold" lengthAdjust="spacing" textLength="241" x="395" y="251.6738">SLA: &lt;5 seconds per transaction</text><text fill="#000000" font-family="sans-serif" font-size="13" lengthAdjust="spacing" textLength="272" x="395" y="266.8066">Error handling: Retry x3, escalate to queue</text><text fill="#000000" font-family="sans-serif" font-size="13" lengthAdjust="spacing" textLength="273" x="395" y="281.9394">Use case: Purchase orders, goods receipts</text></g><g id="elem_GMN18"><path d="M1267.5,234.6069 L1267.5,290.0053 L1634.5,290.0053 L1634.5,244.6069 L1624.5,234.6069 L1267.5,234.6069 " fill="#FEFFDD" style="stroke:#181818;stroke-width:0.5;"/><path d="M1624.5,234.6069 L1624.5,244.6069 L1634.5,244.6069 L1624.5,234.6069 " fill="#FEFFDD" style="stroke:#181818;stroke-width:1.0;"/><text fill="#000000" font-family="sans-serif" font-size="13" font-weight="bold" lengthAdjust="spacing" textLength="207" x="1273.5" y="251.6738">SLA: &lt;10 minutes per batch</text><text fill="#000000" font-family="sans-serif" font-size="13" lengthAdjust="spacing" textLength="312" x="1273.5" y="266.8066">Error handling: Retry x5, DLQ (dead letter queue)</text><text fill="#000000" font-family="sans-serif" font-size="13" lengthAdjust="spacing" textLength="346" x="1273.5" y="281.9394">Use cases: Continuous monitoring, anomaly detection</text></g><g id="elem_GMN35"><path d="M2644.5,226.6069 L2644.5,297.1381 L2999.5,297.1381 L2999.5,236.6069 L2989.5,226.6069 L2644.5,226.6069 " fill="#FEFFDD" style="stroke:#181818;stroke-width:0.5;"/><path d="M2989.5,226.6069 L2989.5,236.6069 L2999.5,236.6069 L2989.5,226.6069 " fill="#FEFFDD" style="stroke:#181818;stroke-width:1.0;"/><text fill="#000000" font-family="sans-serif" font-size="13" font-weight="bold" lengthAdjust="spacing" textLength="215" x="2650.5" y="243.6738">SLA: &lt;2 seconds per request</text><text fill="#000000" font-family="sans-serif" font-size="13" lengthAdjust="spacing" textLength="334" x="2650.5" y="258.8066">Security: OAuth2, encrypted payloads, IP whitelisting</text><text fill="#000000" font-family="sans-serif" font-size="13" lengthAdjust="spacing" textLength="262" x="2650.5" y="273.9394">Error handling: Retry x3, fallback to batch</text><text fill="#000000" font-family="sans-serif" font-size="13" lengthAdjust="spacing" textLength="238" x="2650.5" y="289.0722">Rate limiting: 100 req/sec per partner</text></g><g id="elem_GMN43"><path d="M2644,539.6069 L2644,610.1381 L2894,610.1381 L2894,549.6069 L2884,539.6069 L2644,539.6069 " fill="#FEFFDD" style="stroke:#181818;stroke-width:0.5;"/><path d="M2884,539.6069 L2884,549.6069 L2894,549.6069 L2884,539.6069 " fill="#FEFFDD" style="stroke:#181818;stroke-width:1.0;"/><text fill="#000000" font-family="sans-serif" font-size="13" font-weight="bold" lengthAdjust="spacing" textLength="211" x="2650" y="556.6738">SLA: &lt;1 hour data freshness</text><text fill="#000000" font-family="sans-serif" font-size="13" lengthAdjust="spacing" textLength="159" x="2650" y="571.8066">Fact tables: Transactions</text><text fill="#000000" font-family="sans-serif" font-size="13" lengthAdjust="spacing" textLength="196" x="2650" y="586.9394">Dimension tables: Master data</text><text fill="#000000" font-family="sans-serif" font-size="13" lengthAdjust="spacing" textLength="229" x="2650" y="602.0722">Aggregated views: Analytics models</text></g><g id="elem_GMN50"><path d="M3255.5,547.6069 L3255.5,603.0053 L3552.5,603.0053 L3552.5,557.6069 L3542.5,547.6069 L3255.5,547.6069 " fill="#FEFFDD" style="stroke:#181818;stroke-width:0.5;"/><path d="M3542.5,547.6069 L3542.5,557.6069 L3552.5,557.6069 L3542.5,547.6069 " fill="#FEFFDD" style="stroke:#181818;stroke-width:1.0;"/><text fill="#000000" font-family="sans-serif" font-size="13" font-weight="bold" lengthAdjust="spacing" textLength="88" x="3261.5" y="564.6738">RPO: 1 hour</text><text fill="#000000" font-family="sans-serif" font-size="13" font-weight="bold" lengthAdjust="spacing" textLength="94" x="3261.5" y="579.8066">RTO: 4 hours</text><text fill="#000000" font-family="sans-serif" font-size="13" lengthAdjust="spacing" textLength="276" x="3261.5" y="594.9394">Retention: Daily (30 days), Monthly (1 year)</text></g><!--link sync to GMN6--><g id="link_sync_GMN6"><path d="M9.2109,170.9197 C9.2422,170.6265 9.2743,170.3333 9.3069,170.0401 C9.4376,168.8675 9.5787,167.6951 9.7306,166.5237 C10.0346,164.1811 10.382,161.8427 10.7764,159.515 C12.3542,150.2038 14.685,141.0617 17.9981,132.4897 C24.6244,115.3456 35.18,100.4819 51.5,91.1069 C107,59.2269 279.56,68.6769 339.5,91.1069 C416.37,119.8769 483.02,193.8069 515.29,234.3969 " fill="none" id="sync-GMN6" style="stroke:#181818;stroke-width:1.0;stroke-dasharray:7.0,7.0;"/></g><!--link async to GMN18--><g id="link_async_GMN18"><path d="M712.2109,170.9197 C712.2422,170.6265 712.2743,170.3333 712.3069,170.0401 C712.4376,168.8675 712.5787,167.6951 712.7306,166.5237 C713.0346,164.1811 713.382,161.8427 713.7764,159.515 C715.3542,150.2038 717.685,141.0617 720.9981,132.4897 C727.6244,115.3456 738.18,100.4819 754.5,91.1069 C799.11,65.4869 1168.6,75.1169 1217.5,91.1069 C1304.18,119.4569 1385.32,193.5569 1425.21,234.2869 " fill="none" id="async-GMN18" style="stroke:#181818;stroke-width:1.0;stroke-dasharray:7.0,7.0;"/></g><!--link api to GMN35--><g id="link_api_GMN35"><path d="M1671.5162,136.5481 C1671.6103,136.2749 1671.7053,136.0023 1671.8013,135.7301 C1672.1852,134.6416 1672.584,133.5612 1672.9981,132.4897 C1679.6244,115.3456 1690.18,100.4819 1706.5,91.1069 C1789.75,43.2969 2478.75,62.8669 2570.5,91.1069 C2656.54,117.5869 2739.53,184.6469 2785.37,226.4869 " fill="none" id="api-GMN35" style="stroke:#181818;stroke-width:1.0;stroke-dasharray:7.0,7.0;"/></g><!--link dw_int to GMN43--><g id="link_dw_int_GMN43"><path d="M272.4733,484.1983 C272.5411,484.0375 272.6095,483.877 272.6786,483.7168 C272.8166,483.3963 272.9571,483.077 273.1001,482.7589 C275.388,477.6697 278.3113,472.8931 282,468.6069 C287.2,462.5569 291.57,465.4969 299.5,464.6069 C330.51,461.1069 2515.49,461.1069 2546.5,464.6069 C2612.07,472.0069 2678.74,510.0269 2721.77,539.4269 " fill="none" id="dw_int-GMN43" style="stroke:#181818;stroke-width:1.0;stroke-dasharray:7.0,7.0;"/></g><!--link backup to GMN50--><g id="link_backup_GMN50"><path d="M2930.9144,500.3764 C2931.1101,499.6835 2931.3128,498.9927 2931.5228,498.3044 C2934.8825,487.2906 2940.0975,476.9019 2948,468.6069 C2953.5,462.8269 2957.57,465.4969 2965.5,464.6069 C2992,461.6169 3179,461.6169 3205.5,464.6069 C3271.34,472.0369 3336.25,517.3069 3373.1,547.5469 " fill="none" id="backup-GMN50" style="stroke:#181818;stroke-width:1.0;stroke-dasharray:7.0,7.0;"/></g><!--SRC=[VLPRR-8u57xdLnpDIAksegBt1xGlQO0MBIqfq7P7smgPv3HO13jZEp3PrVptFRPfIr9QyHBiS_tEvRFX9aFuCHb0Y4iK1WwXBmocYXak1GGgddE3iIaKmjuDJv8Cruo-_u0WwklzXbvmaJF5bZ1ZyI9LiX19A3Efu7lltFuQ3KNgJAJavjlunsruFHhU3k_7qB-TTAz6mQG_l1q_YRqHikpGy2KsuQeWWnG49j31ZAzGbVlVW6dGfOZ9RgzxqRs0_ne0iLpcKjYm_nctpgw3s-19HCFMU39yTl9dqrpMn888edxhx_wJk46jMOfmLs21JZxdK-kYgl68F9tF54zIf32FZqu8eglHlbDOpxp2xqP3I8EWIDI0V86DcOE3yI1emv_de36M8Y4NgC1GTfh55k230vBgAaLupPb8CYxIDepGg19-dJO1TSmoHeQDX9ysJ9A-rmWnqzY6gA3gq1T8bQ3IJKYb91U4D_BSw0QA16nObH84NzJWafbutkgkAE_3ZYBWXSUTUU2x5xtJNkyJuE5gG93AfCZm5Viqgqg-0dvPQ7BctC14vZpsOA8zcCuANTNgYvNaCM5_OwCZWE3c8Nf-2slA_NrLwMe0WP1BbfMaLn6l1_L0A17wTmNBkFaWlNAtjOHbXuoJwNzHrUMrJ7QZ4qHrT5Y-Mz87PDFL1jMhz2QG3ut6QfrsV0HBBWg3ljLc5hElckoy2Pt17Umbo1B8q91BtsdxMwscsn1AOSYkB3GifU16AhBI1EP1XWJjag26_gJfedwzrxg_o1MX215JHb3xqag9f38iqvkcoxcTzLul33-TTMltYkPZpShdZSuqNJT8UilvfiBUk5jRphv7T6hTMFDL1yLioGsCUdVEh7hvQUNgKk4SumL4GnWRPWhjLuYSQlTlby83npLi-jcBK_DMvN_NWWyBRUGIFuOVRovs9p2q6m4cYdOorScvSajYQkpHhjWsOK57haKcMV8MNa87knGYLZh2s4wUbLzdKo_wUpgvFzYTpU2wSmitfGlHhWuyt4Jh5qSsJtP6UCd4mdaWbKsqsclCw6QNHYSSjwACkET9Z4iQlwNFAuct4leuWkxcTG1FAgjU8GsJDcu2nnWNYdPC6uP1OUOdjDv5hChS4CyHSXPqsk7z2DQMSZEkQU3IB-dXXMMPfLrB3sxIINfawIBZrBvE-FZeo0RHeg1SG1kSTuzf9vW4y1YCkjT43jtjYIK4tSepFBQ3EiASsf4S-55DrhI53NmFmo-dDUo43iuugL7i6_S_2RASyTWzFlpeqV-gS8SP1e_q1fdJChAKVCqIAVFMc59R-F8cwwhAPPzuHcQs3mPIBb2r9coM8IistS1tLDNdjBrPWHmgIApx5uLwBeZEN65xnELWh4LQb9DtShT4rg6iXBPFgLS1lzUT7ReFqbHXocmFh6WxqFqxpakPOFO9ZLy6uL_taNs6ZSBh_aEbMDzyYyUB8hSRD0o_g4caY9JYDxXpLIUmIsVdTHwUtqtJowV6rEwnkAAIZ8aUYEZzIlQ7En3sPXp2esX8hUe0TeZIoOHEpjo91vcwdfnGd6teC4wKitTwH22MUhy9DqHEStjq32KojVyEsVy0]--></g></svg>