<?xml version="1.0" encoding="us-ascii" standalone="no"?><svg xmlns="http://www.w3.org/2000/svg" xmlns:xlink="http://www.w3.org/1999/xlink" contentStyleType="text/css" height="690px" preserveAspectRatio="none" style="width:4341px;height:690px;background:#F5F5F5;" version="1.1" viewBox="0 0 4341 690" width="4341px" zoomAndPan="magnify"><defs/><g><rect fill="#F5F5F5" height="690" style="stroke:none;stroke-width:1.0;" width="4341" x="0" y="0"/><text fill="#000000" font-family="sans-serif" font-size="14" font-weight="bold" lengthAdjust="spacing" textLength="418" x="1954.5" y="22.9951">YTL Cement - Application Landscape (As-Is vs To-Be)</text><!--cluster asis--><g id="cluster_asis"><path d="M8.5,43.2969 L292.5,43.2969 A3.75,3.75 0 0 1 295,45.7969 L302,65.5938 L1877.5,65.5938 A2.5,2.5 0 0 1 1880,68.0938 L1880,379.7969 A2.5,2.5 0 0 1 1877.5,382.2969 L8.5,382.2969 A2.5,2.5 0 0 1 6,379.7969 L6,45.7969 A2.5,2.5 0 0 1 8.5,43.2969 " fill="none" style="stroke:#000000;stroke-width:1.5;"/><line style="stroke:#000000;stroke-width:1.5;" x1="6" x2="302" y1="65.5938" y2="65.5938"/><text fill="#000000" font-family="sans-serif" font-size="14" font-weight="bold" lengthAdjust="spacing" textLength="283" x="10" y="58.292">AS-IS: ECC6 Fragmented Landscape</text></g><!--cluster core_asis--><g id="cluster_core_asis"><rect fill="#FF9999" height="256" rx="2.5" ry="2.5" style="stroke:#181818;stroke-width:1.0;" width="648" x="1192" y="94.2969"/><text fill="#000000" font-family="sans-serif" font-size="14" font-weight="bold" lengthAdjust="spacing" textLength="170" x="1431" y="109.292">CORE ERP (SAP ECC6)</text></g><!--cluster legacy_asis--><g id="cluster_legacy_asis"><rect fill="#FF6B6B" height="247.5" rx="2.5" ry="2.5" style="stroke:#181818;stroke-width:1.0;" width="387" x="781" y="94.2969"/><text fill="#000000" font-family="sans-serif" font-size="14" font-weight="bold" lengthAdjust="spacing" textLength="139" x="905" y="109.292">LEGACY SYSTEMS</text></g><!--cluster db_asis--><g id="cluster_db_asis"><rect fill="#FFCCCC" height="114" rx="2.5" ry="2.5" style="stroke:#181818;stroke-width:1.0;" width="328" x="429" y="94.2969"/><text fill="#000000" font-family="sans-serif" font-size="14" font-weight="bold" lengthAdjust="spacing" textLength="158" x="514" y="109.292">DATABASES (Siloed)</text></g><!--cluster report_asis--><g id="cluster_report_asis"><rect fill="#FFEEEE" height="114" rx="2.5" ry="2.5" style="stroke:#181818;stroke-width:1.0;" width="367" x="38" y="94.2969"/><text fill="#000000" font-family="sans-serif" font-size="14" font-weight="bold" lengthAdjust="spacing" textLength="160" x="141.5" y="109.292">REPORTING (Manual)</text></g><!--cluster tobe--><g id="cluster_tobe"><path d="M2256.5,43.2969 L2598.5,43.2969 A3.75,3.75 0 0 1 2601,45.7969 L2608,65.5938 L3957.5,65.5938 A2.5,2.5 0 0 1 3960,68.0938 L3960,680.7969 A2.5,2.5 0 0 1 3957.5,683.2969 L2256.5,683.2969 A2.5,2.5 0 0 1 2254,680.7969 L2254,45.7969 A2.5,2.5 0 0 1 2256.5,43.2969 " fill="none" style="stroke:#000000;stroke-width:1.5;"/><line style="stroke:#000000;stroke-width:1.5;" x1="2254" x2="2608" y1="65.5938" y2="65.5938"/><text fill="#000000" font-family="sans-serif" font-size="14" font-weight="bold" lengthAdjust="spacing" textLength="341" x="2258" y="58.292">TO-BE: Integrated S/4HANA + MVP Platform</text></g><!--cluster core_tobe--><g id="cluster_core_tobe"><rect fill="#99FF99" height="256" rx="2.5" ry="2.5" style="stroke:#181818;stroke-width:1.0;" width="648" x="3272" y="94.2969"/><text fill="#000000" font-family="sans-serif" font-size="14" font-weight="bold" lengthAdjust="spacing" textLength="243" x="3474.5" y="109.292">CORE ERP (SAP S/4HANA 2025)</text></g><!--cluster mvp_tobe--><g id="cluster_mvp_tobe"><rect fill="#99CCFF" height="256" rx="2.5" ry="2.5" style="stroke:#181818;stroke-width:1.0;" width="518" x="2730" y="94.2969"/><text fill="#000000" font-family="sans-serif" font-size="14" font-weight="bold" lengthAdjust="spacing" textLength="201" x="2888.5" y="109.292">MVP INTELLIGENCE LAYER</text></g><!--cluster integration_tobe--><g id="cluster_integration_tobe"><rect fill="#CCFFCC" height="237" rx="2.5" ry="2.5" style="stroke:#181818;stroke-width:1.0;" width="329" x="3306" y="414.2969"/><text fill="#000000" font-family="sans-serif" font-size="14" font-weight="bold" lengthAdjust="spacing" textLength="158" x="3391.5" y="429.292">INTEGRATION LAYER</text></g><!--cluster dw_tobe--><g id="cluster_dw_tobe"><rect fill="#E6F3FF" height="114" rx="2.5" ry="2.5" style="stroke:#181818;stroke-width:1.0;" width="420" x="2286" y="94.2969"/><text fill="#000000" font-family="sans-serif" font-size="14" font-weight="bold" lengthAdjust="spacing" textLength="256" x="2368" y="109.292">DATA WAREHOUSE &amp; ANALYTICS</text></g><!--cluster external_tobe--><g id="cluster_external_tobe"><rect fill="#FFFFCC" height="237" rx="2.5" ry="2.5" style="stroke:#181818;stroke-width:1.0;" width="616" x="2666" y="414.2969"/><text fill="#000000" font-family="sans-serif" font-size="14" font-weight="bold" lengthAdjust="spacing" textLength="198" x="2875" y="429.292">EXTERNAL INTEGRATIONS</text></g><!--entity fin_asis--><g id="elem_fin_asis"><rect fill="#F1F1F1" height="62.5938" rx="2.5" ry="2.5" style="stroke:#181818;stroke-width:0.5;" width="149" x="1207.5" y="129.2969"/><rect fill="#F1F1F1" height="10" style="stroke:#181818;stroke-width:0.5;" width="15" x="1336.5" y="134.2969"/><rect fill="#F1F1F1" height="2" style="stroke:#181818;stroke-width:0.5;" width="4" x="1334.5" y="136.2969"/><rect fill="#F1F1F1" height="2" style="stroke:#181818;stroke-width:0.5;" width="4" x="1334.5" y="140.2969"/><text fill="#000000" font-family="sans-serif" font-size="14" lengthAdjust="spacing" textLength="109" x="1222.5" y="162.292">Finance Module</text><text fill="#000000" font-family="sans-serif" font-size="14" lengthAdjust="spacing" textLength="81" x="1222.5" y="178.5889">(GL, AP, AR)</text></g><!--entity mm_asis--><g id="elem_mm_asis"><rect fill="#F1F1F1" height="62.5938" rx="2.5" ry="2.5" style="stroke:#181818;stroke-width:0.5;" width="209" x="1391.5" y="129.2969"/><rect fill="#F1F1F1" height="10" style="stroke:#181818;stroke-width:0.5;" width="15" x="1580.5" y="134.2969"/><rect fill="#F1F1F1" height="2" style="stroke:#181818;stroke-width:0.5;" width="4" x="1578.5" y="136.2969"/><rect fill="#F1F1F1" height="2" style="stroke:#181818;stroke-width:0.5;" width="4" x="1578.5" y="140.2969"/><text fill="#000000" font-family="sans-serif" font-size="14" lengthAdjust="spacing" textLength="79" x="1406.5" y="162.292">MM Module</text><text fill="#000000" font-family="sans-serif" font-size="14" lengthAdjust="spacing" textLength="169" x="1406.5" y="178.5889">(Materials, Procurement)</text></g><!--entity pp_asis--><g id="elem_pp_asis"><rect fill="#F1F1F1" height="62.5938" rx="2.5" ry="2.5" style="stroke:#181818;stroke-width:0.5;" width="188" x="1636" y="129.2969"/><rect fill="#F1F1F1" height="10" style="stroke:#181818;stroke-width:0.5;" width="15" x="1804" y="134.2969"/><rect fill="#F1F1F1" height="2" style="stroke:#181818;stroke-width:0.5;" width="4" x="1802" y="136.2969"/><rect fill="#F1F1F1" height="2" style="stroke:#181818;stroke-width:0.5;" width="4" x="1802" y="140.2969"/><text fill="#000000" font-family="sans-serif" font-size="14" lengthAdjust="spacing" textLength="73" x="1651" y="162.292">PP Module</text><text fill="#000000" font-family="sans-serif" font-size="14" lengthAdjust="spacing" textLength="148" x="1651" y="178.5889">(Production Planning)</text></g><!--entity sd_asis--><g id="elem_sd_asis"><rect fill="#F1F1F1" height="62.5938" rx="2.5" ry="2.5" style="stroke:#181818;stroke-width:0.5;" width="186" x="1208" y="271.2969"/><rect fill="#F1F1F1" height="10" style="stroke:#181818;stroke-width:0.5;" width="15" x="1374" y="276.2969"/><rect fill="#F1F1F1" height="2" style="stroke:#181818;stroke-width:0.5;" width="4" x="1372" y="278.2969"/><rect fill="#F1F1F1" height="2" style="stroke:#181818;stroke-width:0.5;" width="4" x="1372" y="282.2969"/><text fill="#000000" font-family="sans-serif" font-size="14" lengthAdjust="spacing" textLength="75" x="1223" y="304.292">SD Module</text><text fill="#000000" font-family="sans-serif" font-size="14" lengthAdjust="spacing" textLength="146" x="1223" y="320.5889">(Sales &amp; Distribution)</text></g><!--entity pm_asis--><g id="elem_pm_asis"><rect fill="#F1F1F1" height="62.5938" rx="2.5" ry="2.5" style="stroke:#181818;stroke-width:0.5;" width="177" x="1428.5" y="271.2969"/><rect fill="#F1F1F1" height="10" style="stroke:#181818;stroke-width:0.5;" width="15" x="1585.5" y="276.2969"/><rect fill="#F1F1F1" height="2" style="stroke:#181818;stroke-width:0.5;" width="4" x="1583.5" y="278.2969"/><rect fill="#F1F1F1" height="2" style="stroke:#181818;stroke-width:0.5;" width="4" x="1583.5" y="282.2969"/><text fill="#000000" font-family="sans-serif" font-size="14" lengthAdjust="spacing" textLength="76" x="1443.5" y="304.292">PM Module</text><text fill="#000000" font-family="sans-serif" font-size="14" lengthAdjust="spacing" textLength="137" x="1443.5" y="320.5889">(Plant Maintenance)</text></g><!--entity wb_asis--><g id="elem_wb_asis"><rect fill="#F1F1F1" height="62.5938" rx="2.5" ry="2.5" style="stroke:#181818;stroke-width:0.5;" width="127" x="814.5" y="129.2969"/><rect fill="#F1F1F1" height="10" style="stroke:#181818;stroke-width:0.5;" width="15" x="921.5" y="134.2969"/><rect fill="#F1F1F1" height="2" style="stroke:#181818;stroke-width:0.5;" width="4" x="919.5" y="136.2969"/><rect fill="#F1F1F1" height="2" style="stroke:#181818;stroke-width:0.5;" width="4" x="919.5" y="140.2969"/><text fill="#000000" font-family="sans-serif" font-size="14" lengthAdjust="spacing" textLength="87" x="829.5" y="162.292">Weighbridge</text><text fill="#000000" font-family="sans-serif" font-size="14" lengthAdjust="spacing" textLength="86" x="829.5" y="178.5889">VB6 Custom</text></g><!--entity vendor_excel--><g id="elem_vendor_excel"><rect fill="#F1F1F1" height="46.2969" rx="2.5" ry="2.5" style="stroke:#181818;stroke-width:0.5;" width="155" x="976.5" y="137.7969"/><rect fill="#F1F1F1" height="10" style="stroke:#181818;stroke-width:0.5;" width="15" x="1111.5" y="142.7969"/><rect fill="#F1F1F1" height="2" style="stroke:#181818;stroke-width:0.5;" width="4" x="1109.5" y="144.7969"/><rect fill="#F1F1F1" height="2" style="stroke:#181818;stroke-width:0.5;" width="4" x="1109.5" y="148.7969"/><text fill="#000000" font-family="sans-serif" font-size="14" lengthAdjust="spacing" textLength="115" x="991.5" y="170.792">Excel Vendor DB</text></g><!--entity gl_excel--><g id="elem_gl_excel"><rect fill="#F1F1F1" height="46.2969" rx="2.5" ry="2.5" style="stroke:#181818;stroke-width:0.5;" width="161" x="797.5" y="279.7969"/><rect fill="#F1F1F1" height="10" style="stroke:#181818;stroke-width:0.5;" width="15" x="938.5" y="284.7969"/><rect fill="#F1F1F1" height="2" style="stroke:#181818;stroke-width:0.5;" width="4" x="936.5" y="286.7969"/><rect fill="#F1F1F1" height="2" style="stroke:#181818;stroke-width:0.5;" width="4" x="936.5" y="290.7969"/><text fill="#000000" font-family="sans-serif" font-size="14" lengthAdjust="spacing" textLength="121" x="812.5" y="312.792">Excel GL Tracking</text></g><!--entity sod_email--><g id="elem_sod_email"><rect fill="#F1F1F1" height="46.2969" rx="2.5" ry="2.5" style="stroke:#181818;stroke-width:0.5;" width="158" x="994" y="279.7969"/><rect fill="#F1F1F1" height="10" style="stroke:#181818;stroke-width:0.5;" width="15" x="1132" y="284.7969"/><rect fill="#F1F1F1" height="2" style="stroke:#181818;stroke-width:0.5;" width="4" x="1130" y="286.7969"/><rect fill="#F1F1F1" height="2" style="stroke:#181818;stroke-width:0.5;" width="4" x="1130" y="290.7969"/><text fill="#000000" font-family="sans-serif" font-size="14" lengthAdjust="spacing" textLength="118" x="1009" y="312.792">Email-Based SoD</text></g><!--entity oracle_asis--><g id="elem_oracle_asis"><rect fill="#F1F1F1" height="62.5938" rx="2.5" ry="2.5" style="stroke:#181818;stroke-width:0.5;" width="115" x="625.5" y="129.2969"/><rect fill="#F1F1F1" height="10" style="stroke:#181818;stroke-width:0.5;" width="15" x="720.5" y="134.2969"/><rect fill="#F1F1F1" height="2" style="stroke:#181818;stroke-width:0.5;" width="4" x="718.5" y="136.2969"/><rect fill="#F1F1F1" height="2" style="stroke:#181818;stroke-width:0.5;" width="4" x="718.5" y="140.2969"/><text fill="#000000" font-family="sans-serif" font-size="14" lengthAdjust="spacing" textLength="75" x="640.5" y="162.292">Oracle 11g</text><text fill="#000000" font-family="sans-serif" font-size="14" lengthAdjust="spacing" textLength="63" x="640.5" y="178.5889">ECC6 DB</text></g><!--entity shared_asis--><g id="elem_shared_asis"><rect fill="#F1F1F1" height="62.5938" rx="2.5" ry="2.5" style="stroke:#181818;stroke-width:0.5;" width="145" x="445.5" y="129.2969"/><rect fill="#F1F1F1" height="10" style="stroke:#181818;stroke-width:0.5;" width="15" x="570.5" y="134.2969"/><rect fill="#F1F1F1" height="2" style="stroke:#181818;stroke-width:0.5;" width="4" x="568.5" y="136.2969"/><rect fill="#F1F1F1" height="2" style="stroke:#181818;stroke-width:0.5;" width="4" x="568.5" y="140.2969"/><text fill="#000000" font-family="sans-serif" font-size="14" lengthAdjust="spacing" textLength="96" x="460.5" y="162.292">Shared Drives</text><text fill="#000000" font-family="sans-serif" font-size="14" lengthAdjust="spacing" textLength="105" x="460.5" y="178.5889">(Vendor, Sales)</text></g><!--entity report_manual--><g id="elem_report_manual"><rect fill="#F1F1F1" height="62.5938" rx="2.5" ry="2.5" style="stroke:#181818;stroke-width:0.5;" width="153" x="235.5" y="129.2969"/><rect fill="#F1F1F1" height="10" style="stroke:#181818;stroke-width:0.5;" width="15" x="368.5" y="134.2969"/><rect fill="#F1F1F1" height="2" style="stroke:#181818;stroke-width:0.5;" width="4" x="366.5" y="136.2969"/><rect fill="#F1F1F1" height="2" style="stroke:#181818;stroke-width:0.5;" width="4" x="366.5" y="140.2969"/><text fill="#000000" font-family="sans-serif" font-size="14" lengthAdjust="spacing" textLength="113" x="250.5" y="162.292">Monthly Reports</text><text fill="#000000" font-family="sans-serif" font-size="14" lengthAdjust="spacing" textLength="46" x="250.5" y="178.5889">(Excel)</text></g><!--entity audit_manual--><g id="elem_audit_manual"><rect fill="#F1F1F1" height="62.5938" rx="2.5" ry="2.5" style="stroke:#181818;stroke-width:0.5;" width="146" x="54" y="129.2969"/><rect fill="#F1F1F1" height="10" style="stroke:#181818;stroke-width:0.5;" width="15" x="180" y="134.2969"/><rect fill="#F1F1F1" height="2" style="stroke:#181818;stroke-width:0.5;" width="4" x="178" y="136.2969"/><rect fill="#F1F1F1" height="2" style="stroke:#181818;stroke-width:0.5;" width="4" x="178" y="140.2969"/><text fill="#000000" font-family="sans-serif" font-size="14" lengthAdjust="spacing" textLength="106" x="69" y="162.292">Audit Requests</text><text fill="#000000" font-family="sans-serif" font-size="14" lengthAdjust="spacing" textLength="59" x="69" y="178.5889">(Ad-hoc)</text></g><!--entity fin_tobe--><g id="elem_fin_tobe"><rect fill="#F1F1F1" height="62.5938" rx="2.5" ry="2.5" style="stroke:#181818;stroke-width:0.5;" width="149" x="3287.5" y="129.2969"/><rect fill="#F1F1F1" height="10" style="stroke:#181818;stroke-width:0.5;" width="15" x="3416.5" y="134.2969"/><rect fill="#F1F1F1" height="2" style="stroke:#181818;stroke-width:0.5;" width="4" x="3414.5" y="136.2969"/><rect fill="#F1F1F1" height="2" style="stroke:#181818;stroke-width:0.5;" width="4" x="3414.5" y="140.2969"/><text fill="#000000" font-family="sans-serif" font-size="14" lengthAdjust="spacing" textLength="109" x="3302.5" y="162.292">Finance Module</text><text fill="#000000" font-family="sans-serif" font-size="14" lengthAdjust="spacing" textLength="81" x="3302.5" y="178.5889">(GL, AP, AR)</text></g><!--entity mm_tobe--><g id="elem_mm_tobe"><rect fill="#F1F1F1" height="62.5938" rx="2.5" ry="2.5" style="stroke:#181818;stroke-width:0.5;" width="209" x="3471.5" y="129.2969"/><rect fill="#F1F1F1" height="10" style="stroke:#181818;stroke-width:0.5;" width="15" x="3660.5" y="134.2969"/><rect fill="#F1F1F1" height="2" style="stroke:#181818;stroke-width:0.5;" width="4" x="3658.5" y="136.2969"/><rect fill="#F1F1F1" height="2" style="stroke:#181818;stroke-width:0.5;" width="4" x="3658.5" y="140.2969"/><text fill="#000000" font-family="sans-serif" font-size="14" lengthAdjust="spacing" textLength="79" x="3486.5" y="162.292">MM Module</text><text fill="#000000" font-family="sans-serif" font-size="14" lengthAdjust="spacing" textLength="169" x="3486.5" y="178.5889">(Materials, Procurement)</text></g><!--entity pp_tobe--><g id="elem_pp_tobe"><rect fill="#F1F1F1" height="62.5938" rx="2.5" ry="2.5" style="stroke:#181818;stroke-width:0.5;" width="188" x="3716" y="129.2969"/><rect fill="#F1F1F1" height="10" style="stroke:#181818;stroke-width:0.5;" width="15" x="3884" y="134.2969"/><rect fill="#F1F1F1" height="2" style="stroke:#181818;stroke-width:0.5;" width="4" x="3882" y="136.2969"/><rect fill="#F1F1F1" height="2" style="stroke:#181818;stroke-width:0.5;" width="4" x="3882" y="140.2969"/><text fill="#000000" font-family="sans-serif" font-size="14" lengthAdjust="spacing" textLength="73" x="3731" y="162.292">PP Module</text><text fill="#000000" font-family="sans-serif" font-size="14" lengthAdjust="spacing" textLength="148" x="3731" y="178.5889">(Production Planning)</text></g><!--entity sd_tobe--><g id="elem_sd_tobe"><rect fill="#F1F1F1" height="62.5938" rx="2.5" ry="2.5" style="stroke:#181818;stroke-width:0.5;" width="186" x="3288" y="271.2969"/><rect fill="#F1F1F1" height="10" style="stroke:#181818;stroke-width:0.5;" width="15" x="3454" y="276.2969"/><rect fill="#F1F1F1" height="2" style="stroke:#181818;stroke-width:0.5;" width="4" x="3452" y="278.2969"/><rect fill="#F1F1F1" height="2" style="stroke:#181818;stroke-width:0.5;" width="4" x="3452" y="282.2969"/><text fill="#000000" font-family="sans-serif" font-size="14" lengthAdjust="spacing" textLength="75" x="3303" y="304.292">SD Module</text><text fill="#000000" font-family="sans-serif" font-size="14" lengthAdjust="spacing" textLength="146" x="3303" y="320.5889">(Sales &amp; Distribution)</text></g><!--entity pm_tobe--><g id="elem_pm_tobe"><rect fill="#F1F1F1" height="62.5938" rx="2.5" ry="2.5" style="stroke:#181818;stroke-width:0.5;" width="177" x="3508.5" y="271.2969"/><rect fill="#F1F1F1" height="10" style="stroke:#181818;stroke-width:0.5;" width="15" x="3665.5" y="276.2969"/><rect fill="#F1F1F1" height="2" style="stroke:#181818;stroke-width:0.5;" width="4" x="3663.5" y="278.2969"/><rect fill="#F1F1F1" height="2" style="stroke:#181818;stroke-width:0.5;" width="4" x="3663.5" y="282.2969"/><text fill="#000000" font-family="sans-serif" font-size="14" lengthAdjust="spacing" textLength="76" x="3523.5" y="304.292">PM Module</text><text fill="#000000" font-family="sans-serif" font-size="14" lengthAdjust="spacing" textLength="137" x="3523.5" y="320.5889">(Plant Maintenance)</text></g><!--entity invoice_mvp_tobe--><g id="elem_invoice_mvp_tobe"><rect fill="#F1F1F1" height="62.5938" rx="2.5" ry="2.5" style="stroke:#181818;stroke-width:0.5;" width="155" x="2746.5" y="129.2969"/><rect fill="#F1F1F1" height="10" style="stroke:#181818;stroke-width:0.5;" width="15" x="2881.5" y="134.2969"/><rect fill="#F1F1F1" height="2" style="stroke:#181818;stroke-width:0.5;" width="4" x="2879.5" y="136.2969"/><rect fill="#F1F1F1" height="2" style="stroke:#181818;stroke-width:0.5;" width="4" x="2879.5" y="140.2969"/><text fill="#000000" font-family="sans-serif" font-size="14" lengthAdjust="spacing" textLength="115" x="2761.5" y="162.292">Invoice Matching</text><text fill="#000000" font-family="sans-serif" font-size="14" lengthAdjust="spacing" textLength="51" x="2761.5" y="178.5889">Module</text></g><!--entity gl_mvp_tobe--><g id="elem_gl_mvp_tobe"><rect fill="#F1F1F1" height="62.5938" rx="2.5" ry="2.5" style="stroke:#181818;stroke-width:0.5;" width="120" x="2937" y="129.2969"/><rect fill="#F1F1F1" height="10" style="stroke:#181818;stroke-width:0.5;" width="15" x="3037" y="134.2969"/><rect fill="#F1F1F1" height="2" style="stroke:#181818;stroke-width:0.5;" width="4" x="3035" y="136.2969"/><rect fill="#F1F1F1" height="2" style="stroke:#181818;stroke-width:0.5;" width="4" x="3035" y="140.2969"/><text fill="#000000" font-family="sans-serif" font-size="14" lengthAdjust="spacing" textLength="80" x="2952" y="162.292">GL Anomaly</text><text fill="#000000" font-family="sans-serif" font-size="14" lengthAdjust="spacing" textLength="61" x="2952" y="178.5889">Detector</text></g><!--entity vendor_mvp_tobe--><g id="elem_vendor_mvp_tobe"><rect fill="#F1F1F1" height="62.5938" rx="2.5" ry="2.5" style="stroke:#181818;stroke-width:0.5;" width="140" x="3092" y="129.2969"/><rect fill="#F1F1F1" height="10" style="stroke:#181818;stroke-width:0.5;" width="15" x="3212" y="134.2969"/><rect fill="#F1F1F1" height="2" style="stroke:#181818;stroke-width:0.5;" width="4" x="3210" y="136.2969"/><rect fill="#F1F1F1" height="2" style="stroke:#181818;stroke-width:0.5;" width="4" x="3210" y="140.2969"/><text fill="#000000" font-family="sans-serif" font-size="14" lengthAdjust="spacing" textLength="100" x="3107" y="162.292">Vendor Quality</text><text fill="#000000" font-family="sans-serif" font-size="14" lengthAdjust="spacing" textLength="60" x="3107" y="178.5889">Manager</text></g><!--entity sod_mvp_tobe--><g id="elem_sod_mvp_tobe"><rect fill="#F1F1F1" height="62.5938" rx="2.5" ry="2.5" style="stroke:#181818;stroke-width:0.5;" width="131" x="2758.5" y="271.2969"/><rect fill="#F1F1F1" height="10" style="stroke:#181818;stroke-width:0.5;" width="15" x="2869.5" y="276.2969"/><rect fill="#F1F1F1" height="2" style="stroke:#181818;stroke-width:0.5;" width="4" x="2867.5" y="278.2969"/><rect fill="#F1F1F1" height="2" style="stroke:#181818;stroke-width:0.5;" width="4" x="2867.5" y="282.2969"/><text fill="#000000" font-family="sans-serif" font-size="14" lengthAdjust="spacing" textLength="91" x="2773.5" y="304.292">SoD Analyzer</text><text fill="#000000" font-family="sans-serif" font-size="14" lengthAdjust="spacing" textLength="69" x="2773.5" y="320.5889">Real-Time</text></g><!--entity einvoice_mvp_tobe--><g id="elem_einvoice_mvp_tobe"><rect fill="#F1F1F1" height="62.5938" rx="2.5" ry="2.5" style="stroke:#181818;stroke-width:0.5;" width="157" x="2924.5" y="271.2969"/><rect fill="#F1F1F1" height="10" style="stroke:#181818;stroke-width:0.5;" width="15" x="3061.5" y="276.2969"/><rect fill="#F1F1F1" height="2" style="stroke:#181818;stroke-width:0.5;" width="4" x="3059.5" y="278.2969"/><rect fill="#F1F1F1" height="2" style="stroke:#181818;stroke-width:0.5;" width="4" x="3059.5" y="282.2969"/><text fill="#000000" font-family="sans-serif" font-size="14" lengthAdjust="spacing" textLength="117" x="2939.5" y="304.292">e-Invoice Module</text><text fill="#000000" font-family="sans-serif" font-size="14" lengthAdjust="spacing" textLength="110" x="2939.5" y="320.5889">(LHDN MyInvois)</text></g><!--entity pi_tobe--><g id="elem_pi_tobe"><rect fill="#F1F1F1" height="62.5938" rx="2.5" ry="2.5" style="stroke:#181818;stroke-width:0.5;" width="118" x="3322" y="449.2969"/><rect fill="#F1F1F1" height="10" style="stroke:#181818;stroke-width:0.5;" width="15" x="3420" y="454.2969"/><rect fill="#F1F1F1" height="2" style="stroke:#181818;stroke-width:0.5;" width="4" x="3418" y="456.2969"/><rect fill="#F1F1F1" height="2" style="stroke:#181818;stroke-width:0.5;" width="4" x="3418" y="460.2969"/><text fill="#000000" font-family="sans-serif" font-size="14" lengthAdjust="spacing" textLength="60" x="3337" y="482.292">SAP PI/XI</text><text fill="#000000" font-family="sans-serif" font-size="14" lengthAdjust="spacing" textLength="78" x="3337" y="498.5889">Middleware</text></g><!--entity api_tobe--><g id="elem_api_tobe"><rect fill="#F1F1F1" height="62.5938" rx="2.5" ry="2.5" style="stroke:#181818;stroke-width:0.5;" width="144" x="3475" y="449.2969"/><rect fill="#F1F1F1" height="10" style="stroke:#181818;stroke-width:0.5;" width="15" x="3599" y="454.2969"/><rect fill="#F1F1F1" height="2" style="stroke:#181818;stroke-width:0.5;" width="4" x="3597" y="456.2969"/><rect fill="#F1F1F1" height="2" style="stroke:#181818;stroke-width:0.5;" width="4" x="3597" y="460.2969"/><text fill="#000000" font-family="sans-serif" font-size="14" lengthAdjust="spacing" textLength="84" x="3490" y="482.292">API Gateway</text><text fill="#000000" font-family="sans-serif" font-size="14" lengthAdjust="spacing" textLength="104" x="3490" y="498.5889">(REST/OAuth2)</text></g><!--entity mq_tobe--><g id="elem_mq_tobe"><rect fill="#F1F1F1" height="62.5938" rx="2.5" ry="2.5" style="stroke:#181818;stroke-width:0.5;" width="154" x="3322" y="572.2969"/><rect fill="#F1F1F1" height="10" style="stroke:#181818;stroke-width:0.5;" width="15" x="3456" y="577.2969"/><rect fill="#F1F1F1" height="2" style="stroke:#181818;stroke-width:0.5;" width="4" x="3454" y="579.2969"/><rect fill="#F1F1F1" height="2" style="stroke:#181818;stroke-width:0.5;" width="4" x="3454" y="583.2969"/><text fill="#000000" font-family="sans-serif" font-size="14" lengthAdjust="spacing" textLength="114" x="3337" y="605.292">Message Queue</text><text fill="#000000" font-family="sans-serif" font-size="14" lengthAdjust="spacing" textLength="80" x="3337" y="621.5889">(Event Bus)</text></g><!--entity dw_real--><g id="elem_dw_real"><rect fill="#F1F1F1" height="62.5938" rx="2.5" ry="2.5" style="stroke:#181818;stroke-width:0.5;" width="155" x="2534.5" y="129.2969"/><rect fill="#F1F1F1" height="10" style="stroke:#181818;stroke-width:0.5;" width="15" x="2669.5" y="134.2969"/><rect fill="#F1F1F1" height="2" style="stroke:#181818;stroke-width:0.5;" width="4" x="2667.5" y="136.2969"/><rect fill="#F1F1F1" height="2" style="stroke:#181818;stroke-width:0.5;" width="4" x="2667.5" y="140.2969"/><text fill="#000000" font-family="sans-serif" font-size="14" lengthAdjust="spacing" textLength="115" x="2549.5" y="162.292">Data Warehouse</text><text fill="#000000" font-family="sans-serif" font-size="14" lengthAdjust="spacing" textLength="108" x="2549.5" y="178.5889">(Hadoop/Spark)</text></g><!--entity dashboard_tobe--><g id="elem_dashboard_tobe"><rect fill="#F1F1F1" height="62.5938" rx="2.5" ry="2.5" style="stroke:#181818;stroke-width:0.5;" width="197" x="2302.5" y="129.2969"/><rect fill="#F1F1F1" height="10" style="stroke:#181818;stroke-width:0.5;" width="15" x="2479.5" y="134.2969"/><rect fill="#F1F1F1" height="2" style="stroke:#181818;stroke-width:0.5;" width="4" x="2477.5" y="136.2969"/><rect fill="#F1F1F1" height="2" style="stroke:#181818;stroke-width:0.5;" width="4" x="2477.5" y="140.2969"/><text fill="#000000" font-family="sans-serif" font-size="14" lengthAdjust="spacing" textLength="157" x="2317.5" y="162.292">Real-Time Dashboards</text><text fill="#000000" font-family="sans-serif" font-size="14" lengthAdjust="spacing" textLength="117" x="2317.5" y="178.5889">(Looker/Tableau)</text></g><!--entity wb_tobe--><g id="elem_wb_tobe"><rect fill="#F1F1F1" height="62.5938" rx="2.5" ry="2.5" style="stroke:#181818;stroke-width:0.5;" width="207" x="2682.5" y="449.2969"/><rect fill="#F1F1F1" height="10" style="stroke:#181818;stroke-width:0.5;" width="15" x="2869.5" y="454.2969"/><rect fill="#F1F1F1" height="2" style="stroke:#181818;stroke-width:0.5;" width="4" x="2867.5" y="456.2969"/><rect fill="#F1F1F1" height="2" style="stroke:#181818;stroke-width:0.5;" width="4" x="2867.5" y="460.2969"/><text fill="#000000" font-family="sans-serif" font-size="14" lengthAdjust="spacing" textLength="142" x="2697.5" y="482.292">Weighbridge System</text><text fill="#000000" font-family="sans-serif" font-size="14" lengthAdjust="spacing" textLength="167" x="2697.5" y="498.5889">(Real-time bi-directional)</text></g><!--entity dcs_tobe--><g id="elem_dcs_tobe"><rect fill="#F1F1F1" height="62.5938" rx="2.5" ry="2.5" style="stroke:#181818;stroke-width:0.5;" width="172" x="2925" y="449.2969"/><rect fill="#F1F1F1" height="10" style="stroke:#181818;stroke-width:0.5;" width="15" x="3077" y="454.2969"/><rect fill="#F1F1F1" height="2" style="stroke:#181818;stroke-width:0.5;" width="4" x="3075" y="456.2969"/><rect fill="#F1F1F1" height="2" style="stroke:#181818;stroke-width:0.5;" width="4" x="3075" y="460.2969"/><text fill="#000000" font-family="sans-serif" font-size="14" lengthAdjust="spacing" textLength="132" x="2940" y="482.292">DCS/Plant Systems</text><text fill="#000000" font-family="sans-serif" font-size="14" lengthAdjust="spacing" textLength="127" x="2940" y="498.5889">(Asset monitoring)</text></g><!--entity lhdn_tobe--><g id="elem_lhdn_tobe"><rect fill="#F1F1F1" height="62.5938" rx="2.5" ry="2.5" style="stroke:#181818;stroke-width:0.5;" width="133" x="3132.5" y="449.2969"/><rect fill="#F1F1F1" height="10" style="stroke:#181818;stroke-width:0.5;" width="15" x="3245.5" y="454.2969"/><rect fill="#F1F1F1" height="2" style="stroke:#181818;stroke-width:0.5;" width="4" x="3243.5" y="456.2969"/><rect fill="#F1F1F1" height="2" style="stroke:#181818;stroke-width:0.5;" width="4" x="3243.5" y="460.2969"/><text fill="#000000" font-family="sans-serif" font-size="14" lengthAdjust="spacing" textLength="81" x="3147.5" y="482.292">LHDN Portal</text><text fill="#000000" font-family="sans-serif" font-size="14" lengthAdjust="spacing" textLength="93" x="3147.5" y="498.5889">(MyInvois API)</text></g><!--entity customer_portal--><g id="elem_customer_portal"><rect fill="#F1F1F1" height="62.5938" rx="2.5" ry="2.5" style="stroke:#181818;stroke-width:0.5;" width="151" x="2710.5" y="572.2969"/><rect fill="#F1F1F1" height="10" style="stroke:#181818;stroke-width:0.5;" width="15" x="2841.5" y="577.2969"/><rect fill="#F1F1F1" height="2" style="stroke:#181818;stroke-width:0.5;" width="4" x="2839.5" y="579.2969"/><rect fill="#F1F1F1" height="2" style="stroke:#181818;stroke-width:0.5;" width="4" x="2839.5" y="583.2969"/><text fill="#000000" font-family="sans-serif" font-size="14" lengthAdjust="spacing" textLength="111" x="2725.5" y="605.292">Customer Portal</text><text fill="#000000" font-family="sans-serif" font-size="14" lengthAdjust="spacing" textLength="106" x="2725.5" y="621.5889">(Web + Mobile)</text></g><!--entity vendor_portal--><g id="elem_vendor_portal"><rect fill="#F1F1F1" height="62.5938" rx="2.5" ry="2.5" style="stroke:#181818;stroke-width:0.5;" width="133" x="2896.5" y="572.2969"/><rect fill="#F1F1F1" height="10" style="stroke:#181818;stroke-width:0.5;" width="15" x="3009.5" y="577.2969"/><rect fill="#F1F1F1" height="2" style="stroke:#181818;stroke-width:0.5;" width="4" x="3007.5" y="579.2969"/><rect fill="#F1F1F1" height="2" style="stroke:#181818;stroke-width:0.5;" width="4" x="3007.5" y="583.2969"/><text fill="#000000" font-family="sans-serif" font-size="14" lengthAdjust="spacing" textLength="93" x="2911.5" y="605.292">Vendor Portal</text><text fill="#000000" font-family="sans-serif" font-size="14" lengthAdjust="spacing" textLength="89" x="2911.5" y="621.5889">(Self-service)</text></g><g id="elem_GMN46"><path d="M1904,252.2969 L1904,353.0938 L2230,353.0938 L2230,262.2969 L2220,252.2969 L1904,252.2969 " fill="#FEFFDD" style="stroke:#181818;stroke-width:0.5;"/><path d="M2220,252.2969 L2220,262.2969 L2230,262.2969 L2220,252.2969 " fill="#FEFFDD" style="stroke:#181818;stroke-width:1.0;"/><text fill="#000000" font-family="sans-serif" font-size="13" font-weight="bold" lengthAdjust="spacing" textLength="130" x="1910" y="269.3638">AS-IS Pain Points:</text><text fill="#000000" font-family="sans-serif" font-size="13" lengthAdjust="spacing" textLength="248" x="1910" y="284.4966">- Fragmented systems (no integration)</text><text fill="#000000" font-family="sans-serif" font-size="13" lengthAdjust="spacing" textLength="211" x="1910" y="299.6294">- Manual processes (error-prone)</text><text fill="#000000" font-family="sans-serif" font-size="13" lengthAdjust="spacing" textLength="217" x="1910" y="314.7622">- Data silos (no real-time visibility)</text><text fill="#000000" font-family="sans-serif" font-size="13" lengthAdjust="spacing" textLength="220" x="1910" y="329.895">- Legacy technology (13 years old)</text><text fill="#000000" font-family="sans-serif" font-size="13" lengthAdjust="spacing" textLength="305" x="1910" y="345.0278">- Maintenance overhead (100+ customizations)</text></g><g id="elem_GMN49"><path d="M3984,252.2969 L3984,353.0938 L4334,353.0938 L4334,262.2969 L4324,252.2969 L3984,252.2969 " fill="#FEFFDD" style="stroke:#181818;stroke-width:0.5;"/><path d="M4324,252.2969 L4324,262.2969 L4334,262.2969 L4324,252.2969 " fill="#FEFFDD" style="stroke:#181818;stroke-width:1.0;"/><text fill="#000000" font-family="sans-serif" font-size="13" font-weight="bold" lengthAdjust="spacing" textLength="114" x="3990" y="269.3638">TO-BE Benefits:</text><text fill="#000000" font-family="sans-serif" font-size="13" lengthAdjust="spacing" textLength="218" x="3990" y="284.4966">- Integrated platform (end-to-end)</text><text fill="#000000" font-family="sans-serif" font-size="13" lengthAdjust="spacing" textLength="265" x="3990" y="299.6294">- Automated processes (99.7% accuracy)</text><text fill="#000000" font-family="sans-serif" font-size="13" lengthAdjust="spacing" textLength="192" x="3990" y="314.7622">- Real-time data (dashboards)</text><text fill="#000000" font-family="sans-serif" font-size="13" lengthAdjust="spacing" textLength="240" x="3990" y="329.895">- Modern cloud-capable (future-proof)</text><text fill="#000000" font-family="sans-serif" font-size="13" lengthAdjust="spacing" textLength="329" x="3990" y="345.0278">- Lower TCO (MVP modules replace customizations)</text></g><!--link asis to GMN46--><g id="link_asis_GMN46"><path d="M1880.0725,167.5912 C1880.1679,167.6598 1880.2642,167.7289 1880.3611,167.7985 C1881.9128,168.9125 1883.6585,170.1658 1885.5792,171.5448 C1893.2622,177.0609 1903.7469,184.5888 1915.8288,193.2631 C1939.9925,210.6119 1970.545,232.5469 1997.85,252.1469 " fill="none" id="asis-GMN46" style="stroke:#181818;stroke-width:1.0;stroke-dasharray:7.0,7.0;"/></g><!--link tobe to GMN49--><g id="link_tobe_GMN49"><path d="M3960.2666,167.3873 C3960.466,167.5222 3960.6687,167.6592 3960.8746,167.7985 C3962.5215,168.9125 3964.3744,170.1658 3966.4131,171.5448 C3974.5681,177.0609 3985.6975,184.5888 3998.5225,193.2631 C4024.1725,210.6119 4056.605,232.5469 4085.59,252.1469 " fill="none" id="tobe-GMN49" style="stroke:#181818;stroke-width:1.0;stroke-dasharray:7.0,7.0;"/></g><!--SRC=[fLPjRzis4FxkNt5eiS59gwLfrmpfDrcM7G5sh5fQqs0P0bgaRI8IgPAKKxVeVz-HacKZaR5YKnCKaUwvb-Vk7j9mapEuJISGi8890nxuPPdpZ1Wk1Ko8e3eZ9OE-hxr8mqP3Ahq1E-df1ovAeaW12v8zh9Ii10raBXMy7Bst_tgz4Z-G5OCNVk95oGS8W-02HegiR2H6zzvV0D7umpLyx_K05CiC4IjCx4KmcuSGpcFe9txi79muuqmgTkyGBqUZItmG2VXaiYYbi8NyDUA2Y8p1LD8gPtUYFvwy1Z_6t_d9tzR7aWlduYbmEjrZfiGmnKckNqEiP5OfnrADBufEU1pluOYXLUQeZ7CY11Uh6bkMdTXakCSc96SQVeKXrqRnHMMzr61DkmCVv6sZ6PWIZaGx6fgmRSe_dX0z2ST-S0l9RPA6qyHndBCLoROjonU3Yy5pbcyONwqNYjCLXlqqk82WqaOMBjhZeZFFy6l6SlZ41CLX6GwSwSRzTS_ifsxxyGHIXGE553h4AZzYNH2UUmEYSS0IEQm9a_IUsVSTXG_zr1_uIPZWYF5SCbeF65sqXGVuF2zyXiaW_lnyTIVSO3ULIFU-kxjheZ2heU8Rfh59DGMlmNMwQQqpETQaUHZFvcbqFGOSJ56HlCvLiL8gq-ORulCytwaKPfrlOUwCRNZ7QnssyL0ufq-HVaMvGToNYca7zActbbcD9FRZ7lYZz-DWxzEPDmW_G8H3k5B4hdnozlkLV-t3AvX-YkrEcALKXQl2o0Nxb_tVeT- -UVl-G0SSykNbfLM2_wW3riN_q84k-C_gG1VsftMWC_1FwK23V3fYjYtHTHfE9j4ul0v2cFYtuTnnNMpAbkeW68sUKns9ZUIMQcAoDTPu9-f4N4nUVxpVkNaAnWNtXIn8lhqJGsOm9QbsctuCquZ8Hnm-RX27Mu63fmubvHWKjG7ZORHlJDs9EIEvb_A2jNfn3CUyjieToPEhuJLCj-vziyUiezgdL5kQntC_ZMRN1oppPbcmomtRbkik1R8R4KTddoEicrEQiqVKZhgzl3DrFuvWZ8FyI92g_ZnCqhEPNvdrssQLZy2cJ6kxpXyhLjbomurzFQYQKeilnmgqqWet_ZoyclsPX3Z2kBkJspGAwlE5FZO5XXUZTrtZD2I6m0qMjPQLjf6l29MoF4lmtl5G1qSVYZsNhBQTC2HwlP14KIjS4oaVc3fBoI9df6eyx0oELH5-JiCv9Wu7_QeBO5zH5724cZ96e-u-7HoHa6orOOLbtsPeR8OBxb5kus77IQF7U79sTM8O96VrHjT-d1XhpGmKKd3SbrPNQAOxFRXHZL7hIMvLhPbPbCEenkLhsYs6zR7Er1vymnPMnkM2vusgP8tDVUbiZYnhwo1X-TBJJ6tuJfQQbMtXxZGHqY19qg1ha4jeZiRJKtUfX1Yb3LtYrkWFfwVumJkyOUgQ9kWBURXO9ywkFaAXH3t72KUDxJEbfFBmXM2rYPj0ZTU2seLgcxRXccFXA3gruSJTbG1LQotm4hpQGl_y7MmPKNWZoEakO2l383TChHcXQFVcpQk6ElxDfQTFUaW4sCAVbT_qvlJKdQqmO88j-RxsWwEsR0vNB4jGpqWF_wlpm9r7dNKs-zelBt_xunSW6PvjM4bjk1zIQedejxkYcu8anGM0B9SLzV0YR_SA-ilAuFbeQPJBXXtvY9EJ1ZEyj-3vKZZXTBUEd20NHul_1m00]--></g></svg>