<?xml version="1.0" encoding="us-ascii" standalone="no"?><svg xmlns="http://www.w3.org/2000/svg" xmlns:xlink="http://www.w3.org/1999/xlink" contentStyleType="text/css" height="718px" preserveAspectRatio="none" style="width:4278px;height:718px;background:#F5F5F5;" version="1.1" viewBox="0 0 4278 718" width="4278px" zoomAndPan="magnify"><defs/><g><rect fill="#F5F5F5" height="718" style="stroke:none;stroke-width:1.0;" width="4278" x="0" y="0"/><text fill="#000000" font-family="sans-serif" font-size="14" font-weight="bold" lengthAdjust="spacing" textLength="447" x="1908.5" y="22.9951">YTL Cement - Technology Stack &amp; Infrastructure (To-Be)</text><!--cluster app_layer--><g id="cluster_app_layer"><rect fill="#E6F3FF" height="331.5" rx="2.5" ry="2.5" style="stroke:#181818;stroke-width:1.0;" width="960" x="7" y="44.2969"/><text fill="#000000" font-family="sans-serif" font-size="14" font-weight="bold" lengthAdjust="spacing" textLength="157" x="408.5" y="59.292">APPLICATION LAYER</text></g><!--cluster s4--><g id="cluster_s4"><rect fill="#99CCFF" height="248.5" rx="2.5" ry="2.5" style="stroke:#181818;stroke-width:1.0;" width="448" x="479" y="95.2969"/><text fill="#000000" font-family="sans-serif" font-size="14" font-weight="bold" lengthAdjust="spacing" textLength="114" x="646" y="110.292">S/4HANA 2025</text></g><!--cluster mvp_stack--><g id="cluster_mvp_stack"><rect fill="#CCFFCC" height="248.5" rx="2.5" ry="2.5" style="stroke:#181818;stroke-width:1.0;" width="416" x="39" y="95.2969"/><text fill="#000000" font-family="sans-serif" font-size="14" font-weight="bold" lengthAdjust="spacing" textLength="105" x="194.5" y="110.292">MVP Modules</text></g><!--cluster integration--><g id="cluster_integration"><rect fill="#FFFFCC" height="264.5" rx="2.5" ry="2.5" style="stroke:#181818;stroke-width:1.0;" width="411" x="1263" y="87.2969"/><text fill="#000000" font-family="sans-serif" font-size="14" font-weight="bold" lengthAdjust="spacing" textLength="283" x="1327" y="102.292">INTEGRATION &amp; MIDDLEWARE LAYER</text></g><!--cluster data_layer--><g id="cluster_data_layer"><rect fill="#FFCCCC" height="264.5" rx="2.5" ry="2.5" style="stroke:#181818;stroke-width:1.0;" width="400" x="1984" y="87.2969"/><text fill="#000000" font-family="sans-serif" font-size="14" font-weight="bold" lengthAdjust="spacing" textLength="97" x="2135.5" y="102.292">DATA LAYER</text></g><!--cluster analytics--><g id="cluster_analytics"><rect fill="#E6E6FF" height="249" rx="2.5" ry="2.5" style="stroke:#181818;stroke-width:1.0;" width="348" x="2404" y="431.7969"/><text fill="#000000" font-family="sans-serif" font-size="14" font-weight="bold" lengthAdjust="spacing" textLength="236" x="2460" y="446.792">ANALYTICS &amp; INSIGHTS LAYER</text></g><!--cluster infra--><g id="cluster_infra"><rect fill="#CCFFFF" height="668.5" rx="2.5" ry="2.5" style="stroke:#181818;stroke-width:1.0;" width="739" x="2784" y="44.2969"/><text fill="#000000" font-family="sans-serif" font-size="14" font-weight="bold" lengthAdjust="spacing" textLength="191" x="3058" y="59.292">INFRASTRUCTURE LAYER</text></g><!--cluster compute--><g id="cluster_compute"><rect fill="none" height="248.5" rx="2.5" ry="2.5" style="stroke:#181818;stroke-width:1.0;" width="338" x="3145" y="95.2969"/><text fill="#000000" font-family="sans-serif" font-size="14" font-weight="bold" lengthAdjust="spacing" textLength="71" x="3278.5" y="110.292">Compute</text></g><!--cluster storage--><g id="cluster_storage"><rect fill="none" height="248.5" rx="2.5" ry="2.5" style="stroke:#181818;stroke-width:1.0;" width="305" x="2816" y="95.2969"/><text fill="#000000" font-family="sans-serif" font-size="14" font-weight="bold" lengthAdjust="spacing" textLength="62" x="2937.5" y="110.292">Storage</text></g><!--cluster networking--><g id="cluster_networking"><rect fill="none" height="249" rx="2.5" ry="2.5" style="stroke:#181818;stroke-width:1.0;" width="273" x="3164" y="431.7969"/><text fill="#000000" font-family="sans-serif" font-size="14" font-weight="bold" lengthAdjust="spacing" textLength="91" x="3255" y="446.792">Networking</text></g><!--cluster deployment--><g id="cluster_deployment"><rect fill="#FFE6E6" height="273" rx="2.5" ry="2.5" style="stroke:#181818;stroke-width:1.0;" width="374" x="3563" y="415.7969"/><text fill="#000000" font-family="sans-serif" font-size="14" font-weight="bold" lengthAdjust="spacing" textLength="104" x="3698" y="430.792">DEPLOYMENT</text></g><!--entity s4_fin--><g id="elem_s4_fin"><rect fill="#F1F1F1" height="62.5938" rx="2.5" ry="2.5" style="stroke:#181818;stroke-width:0.5;" width="99" x="495.5" y="130.2969"/><rect fill="#F1F1F1" height="10" style="stroke:#181818;stroke-width:0.5;" width="15" x="574.5" y="135.2969"/><rect fill="#F1F1F1" height="2" style="stroke:#181818;stroke-width:0.5;" width="4" x="572.5" y="137.2969"/><rect fill="#F1F1F1" height="2" style="stroke:#181818;stroke-width:0.5;" width="4" x="572.5" y="141.2969"/><text fill="#000000" font-family="sans-serif" font-size="14" lengthAdjust="spacing" textLength="59" x="510.5" y="163.292">Financial</text><text fill="#000000" font-family="sans-serif" font-size="14" lengthAdjust="spacing" textLength="51" x="510.5" y="179.5889">Module</text></g><!--entity s4_proc--><g id="elem_s4_proc"><rect fill="#F1F1F1" height="62.5938" rx="2.5" ry="2.5" style="stroke:#181818;stroke-width:0.5;" width="130" x="630" y="130.2969"/><rect fill="#F1F1F1" height="10" style="stroke:#181818;stroke-width:0.5;" width="15" x="740" y="135.2969"/><rect fill="#F1F1F1" height="2" style="stroke:#181818;stroke-width:0.5;" width="4" x="738" y="137.2969"/><rect fill="#F1F1F1" height="2" style="stroke:#181818;stroke-width:0.5;" width="4" x="738" y="141.2969"/><text fill="#000000" font-family="sans-serif" font-size="14" lengthAdjust="spacing" textLength="90" x="645" y="163.292">Procurement</text><text fill="#000000" font-family="sans-serif" font-size="14" lengthAdjust="spacing" textLength="51" x="645" y="179.5889">Module</text></g><!--entity s4_prod--><g id="elem_s4_prod"><rect fill="#F1F1F1" height="62.5938" rx="2.5" ry="2.5" style="stroke:#181818;stroke-width:0.5;" width="115" x="795.5" y="130.2969"/><rect fill="#F1F1F1" height="10" style="stroke:#181818;stroke-width:0.5;" width="15" x="890.5" y="135.2969"/><rect fill="#F1F1F1" height="2" style="stroke:#181818;stroke-width:0.5;" width="4" x="888.5" y="137.2969"/><rect fill="#F1F1F1" height="2" style="stroke:#181818;stroke-width:0.5;" width="4" x="888.5" y="141.2969"/><text fill="#000000" font-family="sans-serif" font-size="14" lengthAdjust="spacing" textLength="75" x="810.5" y="163.292">Production</text><text fill="#000000" font-family="sans-serif" font-size="14" lengthAdjust="spacing" textLength="51" x="810.5" y="179.5889">Module</text></g><!--entity s4_sales--><g id="elem_s4_sales"><rect fill="#F1F1F1" height="62.5938" rx="2.5" ry="2.5" style="stroke:#181818;stroke-width:0.5;" width="91" x="499.5" y="264.7969"/><rect fill="#F1F1F1" height="10" style="stroke:#181818;stroke-width:0.5;" width="15" x="570.5" y="269.7969"/><rect fill="#F1F1F1" height="2" style="stroke:#181818;stroke-width:0.5;" width="4" x="568.5" y="271.7969"/><rect fill="#F1F1F1" height="2" style="stroke:#181818;stroke-width:0.5;" width="4" x="568.5" y="275.7969"/><text fill="#000000" font-family="sans-serif" font-size="14" lengthAdjust="spacing" textLength="37" x="514.5" y="297.792">Sales</text><text fill="#000000" font-family="sans-serif" font-size="14" lengthAdjust="spacing" textLength="51" x="514.5" y="314.0889">Module</text></g><!--entity s4_pm--><g id="elem_s4_pm"><rect fill="#F1F1F1" height="62.5938" rx="2.5" ry="2.5" style="stroke:#181818;stroke-width:0.5;" width="129" x="625.5" y="264.7969"/><rect fill="#F1F1F1" height="10" style="stroke:#181818;stroke-width:0.5;" width="15" x="734.5" y="269.7969"/><rect fill="#F1F1F1" height="2" style="stroke:#181818;stroke-width:0.5;" width="4" x="732.5" y="271.7969"/><rect fill="#F1F1F1" height="2" style="stroke:#181818;stroke-width:0.5;" width="4" x="732.5" y="275.7969"/><text fill="#000000" font-family="sans-serif" font-size="14" lengthAdjust="spacing" textLength="34" x="640.5" y="297.792">Plant</text><text fill="#000000" font-family="sans-serif" font-size="14" lengthAdjust="spacing" textLength="89" x="640.5" y="314.0889">Maintenance</text></g><!--entity mvp_inv--><g id="elem_mvp_inv"><rect fill="#F1F1F1" height="62.5938" rx="2.5" ry="2.5" style="stroke:#181818;stroke-width:0.5;" width="103" x="55.5" y="130.2969"/><rect fill="#F1F1F1" height="10" style="stroke:#181818;stroke-width:0.5;" width="15" x="138.5" y="135.2969"/><rect fill="#F1F1F1" height="2" style="stroke:#181818;stroke-width:0.5;" width="4" x="136.5" y="137.2969"/><rect fill="#F1F1F1" height="2" style="stroke:#181818;stroke-width:0.5;" width="4" x="136.5" y="141.2969"/><text fill="#000000" font-family="sans-serif" font-size="14" lengthAdjust="spacing" textLength="48" x="70.5" y="163.292">Invoice</text><text fill="#000000" font-family="sans-serif" font-size="14" lengthAdjust="spacing" textLength="63" x="70.5" y="179.5889">Matching</text></g><!--entity mvp_gl--><g id="elem_mvp_gl"><rect fill="#F1F1F1" height="62.5938" rx="2.5" ry="2.5" style="stroke:#181818;stroke-width:0.5;" width="120" x="194" y="130.2969"/><rect fill="#F1F1F1" height="10" style="stroke:#181818;stroke-width:0.5;" width="15" x="294" y="135.2969"/><rect fill="#F1F1F1" height="2" style="stroke:#181818;stroke-width:0.5;" width="4" x="292" y="137.2969"/><rect fill="#F1F1F1" height="2" style="stroke:#181818;stroke-width:0.5;" width="4" x="292" y="141.2969"/><text fill="#000000" font-family="sans-serif" font-size="14" lengthAdjust="spacing" textLength="80" x="209" y="163.292">GL Anomaly</text><text fill="#000000" font-family="sans-serif" font-size="14" lengthAdjust="spacing" textLength="61" x="209" y="179.5889">Detector</text></g><!--entity mvp_vendor--><g id="elem_mvp_vendor"><rect fill="#F1F1F1" height="62.5938" rx="2.5" ry="2.5" style="stroke:#181818;stroke-width:0.5;" width="90" x="349" y="130.2969"/><rect fill="#F1F1F1" height="10" style="stroke:#181818;stroke-width:0.5;" width="15" x="419" y="135.2969"/><rect fill="#F1F1F1" height="2" style="stroke:#181818;stroke-width:0.5;" width="4" x="417" y="137.2969"/><rect fill="#F1F1F1" height="2" style="stroke:#181818;stroke-width:0.5;" width="4" x="417" y="141.2969"/><text fill="#000000" font-family="sans-serif" font-size="14" lengthAdjust="spacing" textLength="50" x="364" y="163.292">Vendor</text><text fill="#000000" font-family="sans-serif" font-size="14" lengthAdjust="spacing" textLength="46" x="364" y="179.5889">Quality</text></g><!--entity mvp_sod--><g id="elem_mvp_sod"><rect fill="#F1F1F1" height="62.5938" rx="2.5" ry="2.5" style="stroke:#181818;stroke-width:0.5;" width="98" x="58" y="264.7969"/><rect fill="#F1F1F1" height="10" style="stroke:#181818;stroke-width:0.5;" width="15" x="136" y="269.7969"/><rect fill="#F1F1F1" height="2" style="stroke:#181818;stroke-width:0.5;" width="4" x="134" y="271.7969"/><rect fill="#F1F1F1" height="2" style="stroke:#181818;stroke-width:0.5;" width="4" x="134" y="275.7969"/><text fill="#000000" font-family="sans-serif" font-size="14" lengthAdjust="spacing" textLength="29" x="73" y="297.792">SoD</text><text fill="#000000" font-family="sans-serif" font-size="14" lengthAdjust="spacing" textLength="58" x="73" y="314.0889">Analyzer</text></g><!--entity mvp_einv--><g id="elem_mvp_einv"><rect fill="#F1F1F1" height="62.5938" rx="2.5" ry="2.5" style="stroke:#181818;stroke-width:0.5;" width="102" x="191" y="264.7969"/><rect fill="#F1F1F1" height="10" style="stroke:#181818;stroke-width:0.5;" width="15" x="273" y="269.7969"/><rect fill="#F1F1F1" height="2" style="stroke:#181818;stroke-width:0.5;" width="4" x="271" y="271.7969"/><rect fill="#F1F1F1" height="2" style="stroke:#181818;stroke-width:0.5;" width="4" x="271" y="275.7969"/><text fill="#000000" font-family="sans-serif" font-size="14" lengthAdjust="spacing" textLength="62" x="206" y="297.792">e-Invoice</text><text fill="#000000" font-family="sans-serif" font-size="14" lengthAdjust="spacing" textLength="51" x="206" y="314.0889">Module</text></g><!--entity pi_xi--><g id="elem_pi_xi"><rect fill="#F1F1F1" height="62.5938" rx="2.5" ry="2.5" style="stroke:#181818;stroke-width:0.5;" width="118" x="1315" y="130.2969"/><rect fill="#F1F1F1" height="10" style="stroke:#181818;stroke-width:0.5;" width="15" x="1413" y="135.2969"/><rect fill="#F1F1F1" height="2" style="stroke:#181818;stroke-width:0.5;" width="4" x="1411" y="137.2969"/><rect fill="#F1F1F1" height="2" style="stroke:#181818;stroke-width:0.5;" width="4" x="1411" y="141.2969"/><text fill="#000000" font-family="sans-serif" font-size="14" lengthAdjust="spacing" textLength="60" x="1330" y="163.292">SAP PI/XI</text><text fill="#000000" font-family="sans-serif" font-size="14" lengthAdjust="spacing" textLength="78" x="1330" y="179.5889">Middleware</text></g><!--entity api_gw--><g id="elem_api_gw"><rect fill="#F1F1F1" height="62.5938" rx="2.5" ry="2.5" style="stroke:#181818;stroke-width:0.5;" width="152" x="1479" y="130.2969"/><rect fill="#F1F1F1" height="10" style="stroke:#181818;stroke-width:0.5;" width="15" x="1611" y="135.2969"/><rect fill="#F1F1F1" height="2" style="stroke:#181818;stroke-width:0.5;" width="4" x="1609" y="137.2969"/><rect fill="#F1F1F1" height="2" style="stroke:#181818;stroke-width:0.5;" width="4" x="1609" y="141.2969"/><text fill="#000000" font-family="sans-serif" font-size="14" lengthAdjust="spacing" textLength="84" x="1494" y="163.292">API Gateway</text><text fill="#000000" font-family="sans-serif" font-size="14" lengthAdjust="spacing" textLength="112" x="1494" y="179.5889">(REST/GraphQL)</text></g><!--entity kafka--><g id="elem_kafka"><rect fill="#F1F1F1" height="62.5938" rx="2.5" ry="2.5" style="stroke:#181818;stroke-width:0.5;" width="154" x="1287" y="264.7969"/><rect fill="#F1F1F1" height="10" style="stroke:#181818;stroke-width:0.5;" width="15" x="1421" y="269.7969"/><rect fill="#F1F1F1" height="2" style="stroke:#181818;stroke-width:0.5;" width="4" x="1419" y="271.7969"/><rect fill="#F1F1F1" height="2" style="stroke:#181818;stroke-width:0.5;" width="4" x="1419" y="275.7969"/><text fill="#000000" font-family="sans-serif" font-size="14" lengthAdjust="spacing" textLength="114" x="1302" y="297.792">Message Queue</text><text fill="#000000" font-family="sans-serif" font-size="14" lengthAdjust="spacing" textLength="103" x="1302" y="314.0889">(Apache Kafka)</text></g><!--entity event_bus--><g id="elem_event_bus"><rect fill="#F1F1F1" height="62.5938" rx="2.5" ry="2.5" style="stroke:#181818;stroke-width:0.5;" width="166" x="1476" y="264.7969"/><rect fill="#F1F1F1" height="10" style="stroke:#181818;stroke-width:0.5;" width="15" x="1622" y="269.7969"/><rect fill="#F1F1F1" height="2" style="stroke:#181818;stroke-width:0.5;" width="4" x="1620" y="271.7969"/><rect fill="#F1F1F1" height="2" style="stroke:#181818;stroke-width:0.5;" width="4" x="1620" y="275.7969"/><text fill="#000000" font-family="sans-serif" font-size="14" lengthAdjust="spacing" textLength="70" x="1491" y="297.792">Event Bus</text><text fill="#000000" font-family="sans-serif" font-size="14" lengthAdjust="spacing" textLength="126" x="1491" y="314.0889">(Real-time events)</text></g><!--entity hana--><g id="elem_hana"><rect fill="#F1F1F1" height="62.5938" rx="2.5" ry="2.5" style="stroke:#181818;stroke-width:0.5;" width="142" x="2008" y="130.2969"/><rect fill="#F1F1F1" height="10" style="stroke:#181818;stroke-width:0.5;" width="15" x="2130" y="135.2969"/><rect fill="#F1F1F1" height="2" style="stroke:#181818;stroke-width:0.5;" width="4" x="2128" y="137.2969"/><rect fill="#F1F1F1" height="2" style="stroke:#181818;stroke-width:0.5;" width="4" x="2128" y="141.2969"/><text fill="#000000" font-family="sans-serif" font-size="14" lengthAdjust="spacing" textLength="94" x="2023" y="163.292">SAP HANA DB</text><text fill="#000000" font-family="sans-serif" font-size="14" lengthAdjust="spacing" textLength="102" x="2023" y="179.5889">(Transactional)</text></g><!--entity dw--><g id="elem_dw"><rect fill="#F1F1F1" height="62.5938" rx="2.5" ry="2.5" style="stroke:#181818;stroke-width:0.5;" width="155" x="2185.5" y="130.2969"/><rect fill="#F1F1F1" height="10" style="stroke:#181818;stroke-width:0.5;" width="15" x="2320.5" y="135.2969"/><rect fill="#F1F1F1" height="2" style="stroke:#181818;stroke-width:0.5;" width="4" x="2318.5" y="137.2969"/><rect fill="#F1F1F1" height="2" style="stroke:#181818;stroke-width:0.5;" width="4" x="2318.5" y="141.2969"/><text fill="#000000" font-family="sans-serif" font-size="14" lengthAdjust="spacing" textLength="115" x="2200.5" y="163.292">Data Warehouse</text><text fill="#000000" font-family="sans-serif" font-size="14" lengthAdjust="spacing" textLength="108" x="2200.5" y="179.5889">(Hadoop/Spark)</text></g><!--entity cache--><g id="elem_cache"><rect fill="#F1F1F1" height="62.5938" rx="2.5" ry="2.5" style="stroke:#181818;stroke-width:0.5;" width="124" x="2017" y="264.7969"/><rect fill="#F1F1F1" height="10" style="stroke:#181818;stroke-width:0.5;" width="15" x="2121" y="269.7969"/><rect fill="#F1F1F1" height="2" style="stroke:#181818;stroke-width:0.5;" width="4" x="2119" y="271.7969"/><rect fill="#F1F1F1" height="2" style="stroke:#181818;stroke-width:0.5;" width="4" x="2119" y="275.7969"/><text fill="#000000" font-family="sans-serif" font-size="14" lengthAdjust="spacing" textLength="84" x="2032" y="297.792">Cache Layer</text><text fill="#000000" font-family="sans-serif" font-size="14" lengthAdjust="spacing" textLength="49" x="2032" y="314.0889">(Redis)</text></g><!--entity doc_store--><g id="elem_doc_store"><rect fill="#F1F1F1" height="62.5938" rx="2.5" ry="2.5" style="stroke:#181818;stroke-width:0.5;" width="154" x="2176" y="264.7969"/><rect fill="#F1F1F1" height="10" style="stroke:#181818;stroke-width:0.5;" width="15" x="2310" y="269.7969"/><rect fill="#F1F1F1" height="2" style="stroke:#181818;stroke-width:0.5;" width="4" x="2308" y="271.7969"/><rect fill="#F1F1F1" height="2" style="stroke:#181818;stroke-width:0.5;" width="4" x="2308" y="275.7969"/><text fill="#000000" font-family="sans-serif" font-size="14" lengthAdjust="spacing" textLength="114" x="2191" y="297.792">Document Store</text><text fill="#000000" font-family="sans-serif" font-size="14" lengthAdjust="spacing" textLength="79" x="2191" y="314.0889">(MongoDB)</text></g><!--entity bi--><g id="elem_bi"><rect fill="#F1F1F1" height="62.5938" rx="2.5" ry="2.5" style="stroke:#181818;stroke-width:0.5;" width="157" x="2420.5" y="466.7969"/><rect fill="#F1F1F1" height="10" style="stroke:#181818;stroke-width:0.5;" width="15" x="2557.5" y="471.7969"/><rect fill="#F1F1F1" height="2" style="stroke:#181818;stroke-width:0.5;" width="4" x="2555.5" y="473.7969"/><rect fill="#F1F1F1" height="2" style="stroke:#181818;stroke-width:0.5;" width="4" x="2555.5" y="477.7969"/><text fill="#000000" font-family="sans-serif" font-size="14" lengthAdjust="spacing" textLength="55" x="2435.5" y="499.792">BI Tools</text><text fill="#000000" font-family="sans-serif" font-size="14" lengthAdjust="spacing" textLength="117" x="2435.5" y="516.0889">(Looker/Tableau)</text></g><!--entity ml--><g id="elem_ml"><rect fill="#F1F1F1" height="62.5938" rx="2.5" ry="2.5" style="stroke:#181818;stroke-width:0.5;" width="123" x="2612.5" y="466.7969"/><rect fill="#F1F1F1" height="10" style="stroke:#181818;stroke-width:0.5;" width="15" x="2715.5" y="471.7969"/><rect fill="#F1F1F1" height="2" style="stroke:#181818;stroke-width:0.5;" width="4" x="2713.5" y="473.7969"/><rect fill="#F1F1F1" height="2" style="stroke:#181818;stroke-width:0.5;" width="4" x="2713.5" y="477.7969"/><text fill="#000000" font-family="sans-serif" font-size="14" lengthAdjust="spacing" textLength="81" x="2627.5" y="499.792">Data Mining</text><text fill="#000000" font-family="sans-serif" font-size="14" lengthAdjust="spacing" textLength="83" x="2627.5" y="516.0889">(ML Models)</text></g><!--entity dashboard--><g id="elem_dashboard"><rect fill="#F1F1F1" height="62.5938" rx="2.5" ry="2.5" style="stroke:#181818;stroke-width:0.5;" width="124" x="2437" y="601.7969"/><rect fill="#F1F1F1" height="10" style="stroke:#181818;stroke-width:0.5;" width="15" x="2541" y="606.7969"/><rect fill="#F1F1F1" height="2" style="stroke:#181818;stroke-width:0.5;" width="4" x="2539" y="608.7969"/><rect fill="#F1F1F1" height="2" style="stroke:#181818;stroke-width:0.5;" width="4" x="2539" y="612.7969"/><text fill="#000000" font-family="sans-serif" font-size="14" lengthAdjust="spacing" textLength="69" x="2452" y="634.792">Real-Time</text><text fill="#000000" font-family="sans-serif" font-size="14" lengthAdjust="spacing" textLength="84" x="2452" y="651.0889">Dashboards</text></g><!--entity s4_cluster--><g id="elem_s4_cluster"><rect fill="#F1F1F1" height="62.5938" rx="2.5" ry="2.5" style="stroke:#181818;stroke-width:0.5;" width="137" x="3161.5" y="130.2969"/><rect fill="#F1F1F1" height="10" style="stroke:#181818;stroke-width:0.5;" width="15" x="3278.5" y="135.2969"/><rect fill="#F1F1F1" height="2" style="stroke:#181818;stroke-width:0.5;" width="4" x="3276.5" y="137.2969"/><rect fill="#F1F1F1" height="2" style="stroke:#181818;stroke-width:0.5;" width="4" x="3276.5" y="141.2969"/><text fill="#000000" font-family="sans-serif" font-size="14" lengthAdjust="spacing" textLength="61" x="3176.5" y="163.292">S/4HANA</text><text fill="#000000" font-family="sans-serif" font-size="14" lengthAdjust="spacing" textLength="97" x="3176.5" y="179.5889">Server Cluster</text></g><!--entity mvp_containers--><g id="elem_mvp_containers"><rect fill="#F1F1F1" height="62.5938" rx="2.5" ry="2.5" style="stroke:#181818;stroke-width:0.5;" width="133" x="3333.5" y="130.2969"/><rect fill="#F1F1F1" height="10" style="stroke:#181818;stroke-width:0.5;" width="15" x="3446.5" y="135.2969"/><rect fill="#F1F1F1" height="2" style="stroke:#181818;stroke-width:0.5;" width="4" x="3444.5" y="137.2969"/><rect fill="#F1F1F1" height="2" style="stroke:#181818;stroke-width:0.5;" width="4" x="3444.5" y="141.2969"/><text fill="#000000" font-family="sans-serif" font-size="14" lengthAdjust="spacing" textLength="93" x="3348.5" y="163.292">MVP Modules</text><text fill="#000000" font-family="sans-serif" font-size="14" lengthAdjust="spacing" textLength="75" x="3348.5" y="179.5889">Containers</text></g><!--entity int_servers--><g id="elem_int_servers"><rect fill="#F1F1F1" height="62.5938" rx="2.5" ry="2.5" style="stroke:#181818;stroke-width:0.5;" width="114" x="3173" y="264.7969"/><rect fill="#F1F1F1" height="10" style="stroke:#181818;stroke-width:0.5;" width="15" x="3267" y="269.7969"/><rect fill="#F1F1F1" height="2" style="stroke:#181818;stroke-width:0.5;" width="4" x="3265" y="271.7969"/><rect fill="#F1F1F1" height="2" style="stroke:#181818;stroke-width:0.5;" width="4" x="3265" y="275.7969"/><text fill="#000000" font-family="sans-serif" font-size="14" lengthAdjust="spacing" textLength="74" x="3188" y="297.792">Integration</text><text fill="#000000" font-family="sans-serif" font-size="14" lengthAdjust="spacing" textLength="52" x="3188" y="314.0889">Servers</text></g><!--entity hana_primary--><g id="elem_hana_primary"><rect fill="#F1F1F1" height="62.5938" rx="2.5" ry="2.5" style="stroke:#181818;stroke-width:0.5;" width="90" x="2832" y="130.2969"/><rect fill="#F1F1F1" height="10" style="stroke:#181818;stroke-width:0.5;" width="15" x="2902" y="135.2969"/><rect fill="#F1F1F1" height="2" style="stroke:#181818;stroke-width:0.5;" width="4" x="2900" y="137.2969"/><rect fill="#F1F1F1" height="2" style="stroke:#181818;stroke-width:0.5;" width="4" x="2900" y="141.2969"/><text fill="#000000" font-family="sans-serif" font-size="14" lengthAdjust="spacing" textLength="38" x="2847" y="163.292">HANA</text><text fill="#000000" font-family="sans-serif" font-size="14" lengthAdjust="spacing" textLength="50" x="2847" y="179.5889">Primary</text></g><!--entity hana_dr--><g id="elem_hana_dr"><rect fill="#F1F1F1" height="62.5938" rx="2.5" ry="2.5" style="stroke:#181818;stroke-width:0.5;" width="148" x="2957" y="130.2969"/><rect fill="#F1F1F1" height="10" style="stroke:#181818;stroke-width:0.5;" width="15" x="3085" y="135.2969"/><rect fill="#F1F1F1" height="2" style="stroke:#181818;stroke-width:0.5;" width="4" x="3083" y="137.2969"/><rect fill="#F1F1F1" height="2" style="stroke:#181818;stroke-width:0.5;" width="4" x="3083" y="141.2969"/><text fill="#000000" font-family="sans-serif" font-size="14" lengthAdjust="spacing" textLength="38" x="2972" y="163.292">HANA</text><text fill="#000000" font-family="sans-serif" font-size="14" lengthAdjust="spacing" textLength="108" x="2972" y="179.5889">Secondary (DR)</text></g><!--entity archive--><g id="elem_archive"><rect fill="#F1F1F1" height="62.5938" rx="2.5" ry="2.5" style="stroke:#181818;stroke-width:0.5;" width="94" x="2832" y="264.7969"/><rect fill="#F1F1F1" height="10" style="stroke:#181818;stroke-width:0.5;" width="15" x="2906" y="269.7969"/><rect fill="#F1F1F1" height="2" style="stroke:#181818;stroke-width:0.5;" width="4" x="2904" y="271.7969"/><rect fill="#F1F1F1" height="2" style="stroke:#181818;stroke-width:0.5;" width="4" x="2904" y="275.7969"/><text fill="#000000" font-family="sans-serif" font-size="14" lengthAdjust="spacing" textLength="50" x="2847" y="297.792">Archive</text><text fill="#000000" font-family="sans-serif" font-size="14" lengthAdjust="spacing" textLength="54" x="2847" y="314.0889">Storage</text></g><!--entity lb--><g id="elem_lb"><rect fill="#F1F1F1" height="62.5938" rx="2.5" ry="2.5" style="stroke:#181818;stroke-width:0.5;" width="100" x="3180" y="466.7969"/><rect fill="#F1F1F1" height="10" style="stroke:#181818;stroke-width:0.5;" width="15" x="3260" y="471.7969"/><rect fill="#F1F1F1" height="2" style="stroke:#181818;stroke-width:0.5;" width="4" x="3258" y="473.7969"/><rect fill="#F1F1F1" height="2" style="stroke:#181818;stroke-width:0.5;" width="4" x="3258" y="477.7969"/><text fill="#000000" font-family="sans-serif" font-size="14" lengthAdjust="spacing" textLength="33" x="3195" y="499.792">Load</text><text fill="#000000" font-family="sans-serif" font-size="14" lengthAdjust="spacing" textLength="60" x="3195" y="516.0889">Balancer</text></g><!--entity fw--><g id="elem_fw"><rect fill="#F1F1F1" height="62.5938" rx="2.5" ry="2.5" style="stroke:#181818;stroke-width:0.5;" width="106" x="3315" y="466.7969"/><rect fill="#F1F1F1" height="10" style="stroke:#181818;stroke-width:0.5;" width="15" x="3401" y="471.7969"/><rect fill="#F1F1F1" height="2" style="stroke:#181818;stroke-width:0.5;" width="4" x="3399" y="473.7969"/><rect fill="#F1F1F1" height="2" style="stroke:#181818;stroke-width:0.5;" width="4" x="3399" y="477.7969"/><text fill="#000000" font-family="sans-serif" font-size="14" lengthAdjust="spacing" textLength="66" x="3330" y="499.792">Firewall &amp;</text><text fill="#000000" font-family="sans-serif" font-size="14" lengthAdjust="spacing" textLength="55" x="3330" y="516.0889">Security</text></g><!--entity vpn--><g id="elem_vpn"><rect fill="#F1F1F1" height="62.5938" rx="2.5" ry="2.5" style="stroke:#181818;stroke-width:0.5;" width="113" x="3180.5" y="601.7969"/><rect fill="#F1F1F1" height="10" style="stroke:#181818;stroke-width:0.5;" width="15" x="3273.5" y="606.7969"/><rect fill="#F1F1F1" height="2" style="stroke:#181818;stroke-width:0.5;" width="4" x="3271.5" y="608.7969"/><rect fill="#F1F1F1" height="2" style="stroke:#181818;stroke-width:0.5;" width="4" x="3271.5" y="612.7969"/><text fill="#000000" font-family="sans-serif" font-size="14" lengthAdjust="spacing" textLength="44" x="3195.5" y="634.792">VPN &amp;</text><text fill="#000000" font-family="sans-serif" font-size="14" lengthAdjust="spacing" textLength="73" x="3195.5" y="651.0889">Encryption</text></g><!--entity loc1--><g id="elem_loc1"><rect fill="#F1F1F1" height="78.8906" rx="2.5" ry="2.5" style="stroke:#181818;stroke-width:0.5;" width="120" x="3587" y="458.7969"/><rect fill="#F1F1F1" height="10" style="stroke:#181818;stroke-width:0.5;" width="15" x="3687" y="463.7969"/><rect fill="#F1F1F1" height="2" style="stroke:#181818;stroke-width:0.5;" width="4" x="3685" y="465.7969"/><rect fill="#F1F1F1" height="2" style="stroke:#181818;stroke-width:0.5;" width="4" x="3685" y="469.7969"/><text fill="#000000" font-family="sans-serif" font-size="14" lengthAdjust="spacing" textLength="76" x="3602" y="491.792">Location 1:</text><text fill="#000000" font-family="sans-serif" font-size="14" lengthAdjust="spacing" textLength="80" x="3602" y="508.0889">Menara YTL</text><text fill="#000000" font-family="sans-serif" font-size="14" lengthAdjust="spacing" textLength="51" x="3602" y="524.3857">(KL HQ)</text></g><!--entity loc2--><g id="elem_loc2"><rect fill="#F1F1F1" height="78.8906" rx="2.5" ry="2.5" style="stroke:#181818;stroke-width:0.5;" width="151" x="3742.5" y="458.7969"/><rect fill="#F1F1F1" height="10" style="stroke:#181818;stroke-width:0.5;" width="15" x="3873.5" y="463.7969"/><rect fill="#F1F1F1" height="2" style="stroke:#181818;stroke-width:0.5;" width="4" x="3871.5" y="465.7969"/><rect fill="#F1F1F1" height="2" style="stroke:#181818;stroke-width:0.5;" width="4" x="3871.5" y="469.7969"/><text fill="#000000" font-family="sans-serif" font-size="14" lengthAdjust="spacing" textLength="76" x="3757.5" y="491.792">Location 2:</text><text fill="#000000" font-family="sans-serif" font-size="14" lengthAdjust="spacing" textLength="111" x="3757.5" y="508.0889">Pahang Cement</text><text fill="#000000" font-family="sans-serif" font-size="14" lengthAdjust="spacing" textLength="84" x="3757.5" y="524.3857">(Bukit Sagu)</text></g><!--entity dr_site--><g id="elem_dr_site"><rect fill="#F1F1F1" height="62.5938" rx="2.5" ry="2.5" style="stroke:#181818;stroke-width:0.5;" width="123" x="3587.5" y="601.7969"/><rect fill="#F1F1F1" height="10" style="stroke:#181818;stroke-width:0.5;" width="15" x="3690.5" y="606.7969"/><rect fill="#F1F1F1" height="2" style="stroke:#181818;stroke-width:0.5;" width="4" x="3688.5" y="608.7969"/><rect fill="#F1F1F1" height="2" style="stroke:#181818;stroke-width:0.5;" width="4" x="3688.5" y="612.7969"/><text fill="#000000" font-family="sans-serif" font-size="14" lengthAdjust="spacing" textLength="51" x="3602.5" y="634.792">DR Site</text><text fill="#000000" font-family="sans-serif" font-size="14" lengthAdjust="spacing" textLength="83" x="3602.5" y="651.0889">(Secondary)</text></g><g id="elem_GMN46"><path d="M991,260.7969 L991,331.3281 L1239,331.3281 L1239,270.7969 L1229,260.7969 L991,260.7969 " fill="#FEFFDD" style="stroke:#181818;stroke-width:0.5;"/><path d="M1229,260.7969 L1229,270.7969 L1239,270.7969 L1229,260.7969 " fill="#FEFFDD" style="stroke:#181818;stroke-width:1.0;"/><text fill="#000000" font-family="sans-serif" font-size="13" font-weight="bold" lengthAdjust="spacing" textLength="227" x="997" y="277.8638">S/4HANA 2025 + MVP Modules</text><text fill="#000000" font-family="sans-serif" font-size="13" lengthAdjust="spacing" textLength="167" x="997" y="292.9966">- Cloud-ready architecture</text><text fill="#000000" font-family="sans-serif" font-size="13" lengthAdjust="spacing" textLength="188" x="997" y="308.1294">- Containerized MVP modules</text><text fill="#000000" font-family="sans-serif" font-size="13" lengthAdjust="spacing" textLength="188" x="997" y="323.2622">- RESTful APIs for integrations</text></g><g id="elem_GMN49"><path d="M1698,253.2969 L1698,338.9609 L1960,338.9609 L1960,263.2969 L1950,253.2969 L1698,253.2969 " fill="#FEFFDD" style="stroke:#181818;stroke-width:0.5;"/><path d="M1950,253.2969 L1950,263.2969 L1960,263.2969 L1950,253.2969 " fill="#FEFFDD" style="stroke:#181818;stroke-width:1.0;"/><text fill="#000000" font-family="sans-serif" font-size="13" font-weight="bold" lengthAdjust="spacing" textLength="158" x="1704" y="270.3638">Real-Time Integration</text><text fill="#000000" font-family="sans-serif" font-size="13" lengthAdjust="spacing" textLength="211" x="1704" y="285.4966">- SAP PI/XI for legacy integrations</text><text fill="#000000" font-family="sans-serif" font-size="13" lengthAdjust="spacing" textLength="194" x="1704" y="300.6294">- API Gateway for modern APIs</text><text fill="#000000" font-family="sans-serif" font-size="13" lengthAdjust="spacing" textLength="174" x="1704" y="315.7622">- Kafka for event streaming</text><text fill="#000000" font-family="sans-serif" font-size="13" lengthAdjust="spacing" textLength="241" x="1704" y="330.895">- &lt;10 minute SLA for most processes</text></g><g id="elem_GMN52"><path d="M2408,253.2969 L2408,338.9609 L2760,338.9609 L2760,263.2969 L2750,253.2969 L2408,253.2969 " fill="#FEFFDD" style="stroke:#181818;stroke-width:0.5;"/><path d="M2750,253.2969 L2750,263.2969 L2760,263.2969 L2750,253.2969 " fill="#FEFFDD" style="stroke:#181818;stroke-width:1.0;"/><text fill="#000000" font-family="sans-serif" font-size="13" font-weight="bold" lengthAdjust="spacing" textLength="103" x="2414" y="270.3638">Data Strategy</text><text fill="#000000" font-family="sans-serif" font-size="13" lengthAdjust="spacing" textLength="223" x="2414" y="285.4966">- HANA for operational data (OLTP)</text><text fill="#000000" font-family="sans-serif" font-size="13" lengthAdjust="spacing" textLength="159" x="2414" y="300.6294">- DW for analytics (OLAP)</text><text fill="#000000" font-family="sans-serif" font-size="13" lengthAdjust="spacing" textLength="213" x="2414" y="315.7622">- Redis for caching (performance)</text><text fill="#000000" font-family="sans-serif" font-size="13" lengthAdjust="spacing" textLength="331" x="2414" y="330.895">- MongoDB for unstructured data (logs, documents)</text></g><g id="elem_GMN55"><path d="M3546.5,253.2969 L3546.5,338.9609 L3889.5,338.9609 L3889.5,263.2969 L3879.5,253.2969 L3546.5,253.2969 " fill="#FEFFDD" style="stroke:#181818;stroke-width:0.5;"/><path d="M3879.5,253.2969 L3879.5,263.2969 L3889.5,263.2969 L3879.5,253.2969 " fill="#FEFFDD" style="stroke:#181818;stroke-width:1.0;"/><text fill="#000000" font-family="sans-serif" font-size="13" font-weight="bold" lengthAdjust="spacing" textLength="241" x="3552.5" y="270.3638">Infrastructure Specs (from RFP):</text><text fill="#000000" font-family="sans-serif" font-size="13" lengthAdjust="spacing" textLength="270" x="3552.5" y="285.4966">- 28K invoices/month -&gt; Medium compute</text><text fill="#000000" font-family="sans-serif" font-size="13" lengthAdjust="spacing" textLength="322" x="3552.5" y="300.6294">- 39K sales order items/month -&gt; Medium storage</text><text fill="#000000" font-family="sans-serif" font-size="13" lengthAdjust="spacing" textLength="319" x="3552.5" y="315.7622">- 46K GL postings/month -&gt; Medium performance</text><text fill="#000000" font-family="sans-serif" font-size="13" lengthAdjust="spacing" textLength="177" x="3552.5" y="330.895">- RPO: 1 hour | RTO: 4 hours</text></g><g id="elem_GMN58"><path d="M3961,597.7969 L3961,668.3281 L4271,668.3281 L4271,607.7969 L4261,597.7969 L3961,597.7969 " fill="#FEFFDD" style="stroke:#181818;stroke-width:0.5;"/><path d="M4261,597.7969 L4261,607.7969 L4271,607.7969 L4261,597.7969 " fill="#FEFFDD" style="stroke:#181818;stroke-width:1.0;"/><text fill="#000000" font-family="sans-serif" font-size="13" font-weight="bold" lengthAdjust="spacing" textLength="156" x="3967" y="614.8638">Multi-Location Setup:</text><text fill="#000000" font-family="sans-serif" font-size="13" lengthAdjust="spacing" textLength="226" x="3967" y="629.9966">- Menara YTL: Primary (HQ Finance)</text><text fill="#000000" font-family="sans-serif" font-size="13" lengthAdjust="spacing" textLength="289" x="3967" y="645.1294">- Pahang Cement: Primary (Plant Operations)</text><text fill="#000000" font-family="sans-serif" font-size="13" lengthAdjust="spacing" textLength="244" x="3967" y="660.2622">- DR Site: Automatic failover capability</text></g><!--link app_layer to GMN46--><g id="link_app_layer_GMN46"><path d="M967.0316,169.6209 C968.5343,170.8969 970.2235,172.3313 972.0784,173.9066 C979.4981,180.2075 989.5688,188.7606 1000.9525,198.4294 C1023.72,217.7669 1051.74,241.5669 1074.31,260.7369 " fill="none" id="app_layer-GMN46" style="stroke:#181818;stroke-width:1.0;stroke-dasharray:7.0,7.0;"/></g><!--link integration to GMN49--><g id="link_integration_GMN49"><path d="M1674.0283,169.3246 C1674.2082,169.4708 1674.3907,169.6191 1674.5759,169.7697 C1674.9464,170.0708 1675.3274,170.3805 1675.7187,170.6986 C1676.5015,171.3348 1677.3255,172.0046 1678.1886,172.7061 C1685.0934,178.3184 1694.4994,185.9638 1705.2638,194.7131 C1726.7925,212.2119 1753.755,234.1269 1777.01,253.0269 " fill="none" id="integration-GMN49" style="stroke:#181818;stroke-width:1.0;stroke-dasharray:7.0,7.0;"/></g><!--link data_layer to GMN52--><g id="link_data_layer_GMN52"><path d="M2384.2928,168.0847 C2384.7111,168.3511 2385.1437,168.6267 2385.5902,168.9111 C2387.3763,170.0489 2389.3851,171.3286 2391.5939,172.7356 C2400.4291,178.3638 2412.4631,186.0294 2426.2313,194.7994 C2453.7675,212.3394 2488.24,234.2969 2517.93,253.2069 " fill="none" id="data_layer-GMN52" style="stroke:#181818;stroke-width:1.0;stroke-dasharray:7.0,7.0;"/></g><!--link infra to GMN55--><g id="link_infra_GMN55"><path d="M3523.0976,168.0847 C3523.5059,168.3511 3523.928,168.6267 3524.3638,168.9111 C3526.1068,170.0489 3528.0673,171.3286 3530.2228,172.7356 C3538.845,178.3638 3550.5888,186.0294 3564.025,194.7994 C3590.8975,212.3394 3624.54,234.2969 3653.52,253.2069 " fill="none" id="infra-GMN55" style="stroke:#181818;stroke-width:1.0;stroke-dasharray:7.0,7.0;"/></g><!--link deployment to GMN58--><g id="link_deployment_GMN58"><path d="M3937.009,504.9959 C3937.1127,505.0696 3937.2172,505.144 3937.3227,505.219 C3937.7445,505.5191 3938.1808,505.8294 3938.631,506.1496 C3940.4318,507.4305 3942.4563,508.8705 3944.6794,510.4517 C3953.5719,516.7766 3965.6425,525.3612 3979.2875,535.0656 C4006.5775,554.4744 4040.165,578.3619 4067.22,597.6069 " fill="none" id="deployment-GMN58" style="stroke:#181818;stroke-width:1.0;stroke-dasharray:7.0,7.0;"/></g><!--SRC=[VLPjRzis4FxkNt5eWCB9PgH9qs8DXW7oMs94TXHBRHVCXK5Bj2o48WLISkPk_Uyxah8iIrwH3p75vuxt-jpbISueF0Sk36XAUGuz26YuuOA9U0T-Ji8NU0iJlfP4vR88yq9Iw0QYrwVd7VMIy8n8ai8ASR4K1Oy6A2dXRFn1_tKwaeOvuJ6-ySRnF7SoS8B9umnSvtaqVmD40Sco9ICxYZAZZ-Ftup7yqm6eYVcND_VEp87hTzSVZ8IwWRDFdmQ34WeGYZGJN1l_rpZXX8S9OGi-5L71w3ShiLmdl8drf0ZH6-rr4vtXrGbuXFudWfz0HqsqJnXLJQ3I7rjw6J46a8JdL5j_q9iYzaVdE1pJBnvOhSf48zrcIsNITAP3CXYqWpBXMv64LB-HXvk4nz_sWWdVDi5tBZXSf8Jj5dn8StnOo0eVioRy2-MHa0l-L12MvBiAkJNVMr4HmmLtE2h_JWzQLJjyj7Sm-X123QRMvX-T7qV5DPa5exkvBQwtC9qCX-xegpCVrIfDnpUMH6SGwtDSnQfkd-E1DxdySuBF9b74w2kHzkaiMVwT78CTRm9t94SCXgex7_d1vPqasUR9FVzcApjPng_7CbEg58afF1MqGD-wJaR23OK7iduXLkf5_pmM6ctrltwXz3EKi5wUf1Ie_ggiaFczN1Mg4PMX4pYr24Ga9_jcq-wV3e3fjc4V7miauOgOcYVClhGXl67T49N2LupJHXHA-tHF8Y6oIn-PuSKAHOqe38pJhZR4k1GbfH-XlcYenoOrnEHZ8MhrKy5ZCUoNcaM8rOyN3SVH1VSvc0nyJLupVt9t7_Xrqj4bc2UXqgI3j3Dkng4_WK08fYFk2l52vML0LeoImZwxIax4O9fmx2rjeQixbBBIgPGTWqqA0qmXDXXHcvKWCbBMc_snLTpZkUC7yy-3u7EZf96NRUEtYNE0JnOvDS3G_cvpGyck2-vJkSMw6B12vMLl8WM5zjYKgf7GWWy4pv6yg5HLauRLfpONLKsuVzEAONSkbJsVO3sTVEmRo__sTziNwuWdavJ8NLMjIC_cmscqJz7M2A-XEvmVIdmPjNns97Bd5fDMsc9xt7uyOV6Cvgz2ue2CZT6yEhRjTWM95hnFc2P_6tgsQaysYKp36BmrHXTopxRhrnOdUpED6l5GxZ8TQOFRPlm4Rmv7dlluF1tD0iiGD6DYP_eD6KBtHhCpN15Q2hswHPB4WOK5YEi3bls32_TFDeHCX5V_8tQDOXx16CVbne6I_U8bmGOdSL69NpSQR0v-aklshn9M4e1SAhpeQBUum0fVYJmNAOZrORD0LHSNzJK2Ve5Q1LzS8A27bI-Ag2SfYNOshNhsuNvWB_S5dNodaH5EhR2vrTo_BXZWHC1yuFfJ6pMgWvCGj6aj0sieOs95353hajAwQZ8P_Op69DmTFwDHjP5aS6WabTpOPUxDd34tPc9WAw6_AHQbkVtzwXtWGVE4xpgb0fM3tePmRj6Vk7AOBCOJmuT-ZgRHU5TwOAAlTOgCMfi9CtBGVNG3xzo0XbyDvC3FUEUKTsPEc6iz9dGdTL4JdbFTDnPJ3WU3AdYriKRbGxZKgb_rq30ZHPt_B3V8hCQNnkxhPrIRjPQ8cu-zyzlIlUlV7b38x2pgCiLosK3l3vYYpKMwfry3VF_f0SmY249YTW3hB6rBb2Hd96u-FW2kPHdc0hrkOsjHi87o7c_X2d0UI_WNvW6URipfPmci6jyuFIrOdlIgflLfNcHxJmzDVmibsKBt_WdixbqcugZ5QpYpxSBZlWHKcNRRthVW56WFteIm9WaJUYA592EhH2-N1-l_0m00]--></g></svg>