<?xml version="1.0" encoding="us-ascii" standalone="no"?><svg xmlns="http://www.w3.org/2000/svg" xmlns:xlink="http://www.w3.org/1999/xlink" contentStyleType="text/css" height="757px" preserveAspectRatio="none" style="width:2581px;height:757px;background:#F5F5F5;" version="1.1" viewBox="0 0 2581 757" width="2581px" zoomAndPan="magnify"><defs/><g><rect fill="#F5F5F5" height="757" style="stroke:none;stroke-width:1.0;" width="2581" x="0" y="0"/><text fill="#000000" font-family="sans-serif" font-size="14" font-weight="bold" lengthAdjust="spacing" textLength="481" x="1043" y="22.9951">YTL Cement - Business Capability Map (Current State - ECC6)</text><!--cluster YTL CEMENT GROUP--><g id="cluster_YTL CEMENT GROUP"><path d="M8.5,43.2969 L166.5,43.2969 A3.75,3.75 0 0 1 169,45.7969 L176,65.5938 L1214.5,65.5938 A2.5,2.5 0 0 1 1217,68.0938 L1217,621.7969 A2.5,2.5 0 0 1 1214.5,624.2969 L8.5,624.2969 A2.5,2.5 0 0 1 6,621.7969 L6,45.7969 A2.5,2.5 0 0 1 8.5,43.2969 " fill="none" style="stroke:#000000;stroke-width:1.5;"/><line style="stroke:#000000;stroke-width:1.5;" x1="6" x2="176" y1="65.5938" y2="65.5938"/><text fill="#000000" font-family="sans-serif" font-size="14" font-weight="bold" lengthAdjust="spacing" textLength="157" x="10" y="58.292">YTL CEMENT GROUP</text></g><!--cluster strategic_level--><g id="cluster_strategic_level"><rect fill="#F0F0F0" height="216.5" rx="2.5" ry="2.5" style="stroke:#181818;stroke-width:1.0;" width="373" x="38" y="94.2969"/><text fill="#000000" font-family="sans-serif" font-size="14" font-weight="bold" lengthAdjust="spacing" textLength="139" x="155" y="109.292">STRATEGIC LEVEL</text></g><!--cluster capability_level--><g id="cluster_capability_level"><rect fill="#F0F0F0" height="120" rx="2.5" ry="2.5" style="stroke:#181818;stroke-width:1.0;" width="734" x="451" y="199.2969"/><text fill="#000000" font-family="sans-serif" font-size="14" font-weight="bold" lengthAdjust="spacing" textLength="222" x="707" y="214.292">BUSINESS CAPABILITY LEVEL</text></g><!--cluster func_level--><g id="cluster_func_level"><rect fill="#F0F0F0" height="233" rx="2.5" ry="2.5" style="stroke:#181818;stroke-width:1.0;" width="415" x="451" y="359.2969"/><text fill="#000000" font-family="sans-serif" font-size="14" font-weight="bold" lengthAdjust="spacing" textLength="151" x="583" y="374.292">FUNCTIONAL LEVEL</text></g><!--entity p2p--><g id="elem_p2p"><rect fill="#FFF4E6" height="36.2969" rx="2.5" ry="2.5" style="stroke:#181818;stroke-width:0.5;" width="122" x="62" y="137.2969"/><text fill="#000000" font-family="sans-serif" font-size="14" lengthAdjust="spacing" textLength="102" x="72" y="160.292">Procure-to-Pay</text></g><!--entity o2c--><g id="elem_o2c"><rect fill="#FFF4E6" height="36.2969" rx="2.5" ry="2.5" style="stroke:#181818;stroke-width:0.5;" width="118" x="219" y="137.2969"/><text fill="#000000" font-family="sans-serif" font-size="14" lengthAdjust="spacing" textLength="98" x="229" y="160.292">Order-to-Cash</text></g><!--entity mts--><g id="elem_mts"><rect fill="#FFF4E6" height="36.2969" rx="2.5" ry="2.5" style="stroke:#181818;stroke-width:0.5;" width="120" x="62" y="250.7969"/><text fill="#000000" font-family="sans-serif" font-size="14" lengthAdjust="spacing" textLength="100" x="72" y="273.792">Make-to-Stock</text></g><!--entity fin_rep--><g id="elem_fin_rep"><rect fill="#FFF4E6" height="36.2969" rx="2.5" ry="2.5" style="stroke:#181818;stroke-width:0.5;" width="162" x="217" y="250.7969"/><text fill="#000000" font-family="sans-serif" font-size="14" lengthAdjust="spacing" textLength="142" x="227" y="273.792">Finance &amp; Reporting</text></g><!--entity invoice_cap--><g id="elem_invoice_cap"><rect fill="#FF6B6B" height="52.5938" rx="2.5" ry="2.5" style="stroke:#181818;stroke-width:0.5;" width="97" x="1064.5" y="242.2969"/><text fill="#000000" font-family="sans-serif" font-size="14" lengthAdjust="spacing" textLength="48" x="1074.5" y="265.292">Invoice</text><text fill="#000000" font-family="sans-serif" font-size="14" lengthAdjust="spacing" textLength="77" x="1074.5" y="281.5889">Processing</text></g><!--entity gl_cap--><g id="elem_gl_cap"><rect fill="#FF6B6B" height="52.5938" rx="2.5" ry="2.5" style="stroke:#181818;stroke-width:0.5;" width="116" x="913" y="242.2969"/><text fill="#000000" font-family="sans-serif" font-size="14" lengthAdjust="spacing" textLength="18" x="923" y="265.292">GL</text><text fill="#000000" font-family="sans-serif" font-size="14" lengthAdjust="spacing" textLength="96" x="923" y="281.5889">Reconciliation</text></g><!--entity vendor_cap--><g id="elem_vendor_cap"><rect fill="#FF6B6B" height="52.5938" rx="2.5" ry="2.5" style="stroke:#181818;stroke-width:0.5;" width="111" x="766.5" y="242.2969"/><text fill="#000000" font-family="sans-serif" font-size="14" lengthAdjust="spacing" textLength="50" x="776.5" y="265.292">Vendor</text><text fill="#000000" font-family="sans-serif" font-size="14" lengthAdjust="spacing" textLength="91" x="776.5" y="281.5889">Management</text></g><!--entity sod_cap--><g id="elem_sod_cap"><rect fill="#FF6B6B" height="52.5938" rx="2.5" ry="2.5" style="stroke:#181818;stroke-width:0.5;" width="101" x="630.5" y="242.2969"/><text fill="#000000" font-family="sans-serif" font-size="14" lengthAdjust="spacing" textLength="29" x="640.5" y="265.292">SoD</text><text fill="#000000" font-family="sans-serif" font-size="14" lengthAdjust="spacing" textLength="81" x="640.5" y="281.5889">Compliance</text></g><!--entity einvoice_cap--><g id="elem_einvoice_cap"><rect fill="#B0B0B0" height="52.5938" rx="2.5" ry="2.5" style="stroke:#181818;stroke-width:0.5;" width="101" x="494.5" y="242.2969"/><text fill="#000000" font-family="sans-serif" font-size="14" lengthAdjust="spacing" textLength="62" x="504.5" y="265.292">e-Invoice</text><text fill="#000000" font-family="sans-serif" font-size="14" lengthAdjust="spacing" textLength="81" x="504.5" y="281.5889">Compliance</text></g><!--entity po_func--><g id="elem_po_func"><rect fill="#FFB3B3" height="52.5938" rx="2.5" ry="2.5" style="stroke:#181818;stroke-width:0.5;" width="90" x="494" y="402.2969"/><text fill="#000000" font-family="sans-serif" font-size="14" lengthAdjust="spacing" textLength="70" x="504" y="425.292">Create PO</text><text fill="#000000" font-family="sans-serif" font-size="14" lengthAdjust="spacing" textLength="69" x="504" y="441.5889">Create PR</text></g><!--entity match_func--><g id="elem_match_func"><rect fill="#FFB3B3" height="52.5938" rx="2.5" ry="2.5" style="stroke:#181818;stroke-width:0.5;" width="114" x="619" y="402.2969"/><text fill="#000000" font-family="sans-serif" font-size="14" lengthAdjust="spacing" textLength="94" x="629" y="425.292">Match Invoice</text><text fill="#000000" font-family="sans-serif" font-size="14" lengthAdjust="spacing" textLength="64" x="629" y="441.5889">to PO/GR</text></g><!--entity gl_func--><g id="elem_gl_func"><rect fill="#FFB3B3" height="52.5938" rx="2.5" ry="2.5" style="stroke:#181818;stroke-width:0.5;" width="73" x="768.5" y="402.2969"/><text fill="#000000" font-family="sans-serif" font-size="14" lengthAdjust="spacing" textLength="53" x="778.5" y="425.292">Post GL</text><text fill="#000000" font-family="sans-serif" font-size="14" lengthAdjust="spacing" textLength="48" x="778.5" y="441.5889">Entries</text></g><!--entity sod_func--><g id="elem_sod_func"><rect fill="#FFB3B3" height="52.5938" rx="2.5" ry="2.5" style="stroke:#181818;stroke-width:0.5;" width="100" x="494" y="515.2969"/><text fill="#000000" font-family="sans-serif" font-size="14" lengthAdjust="spacing" textLength="80" x="504" y="538.292">Detect SoD</text><text fill="#000000" font-family="sans-serif" font-size="14" lengthAdjust="spacing" textLength="66" x="504" y="554.5889">Violations</text></g><!--entity xml_func--><g id="elem_xml_func"><rect fill="#D0D0D0" height="52.5938" rx="2.5" ry="2.5" style="stroke:#181818;stroke-width:0.5;" width="101" x="629.5" y="515.2969"/><text fill="#000000" font-family="sans-serif" font-size="14" lengthAdjust="spacing" textLength="81" x="639.5" y="538.292">Manual XML</text><text fill="#000000" font-family="sans-serif" font-size="14" lengthAdjust="spacing" textLength="77" x="639.5" y="554.5889">Generation</text></g><g id="elem_GMN22"><path d="M1233,233.2969 L1233,264.7969 L1161.53,268.7969 L1233,272.7969 L1233,303.8281 A0,0 0 0 0 1233,303.8281 L1495,303.8281 A0,0 0 0 0 1495,303.8281 L1495,243.2969 L1485,233.2969 L1233,233.2969 A0,0 0 0 0 1233,233.2969 " fill="#FEFFDD" style="stroke:#181818;stroke-width:0.5;"/><path d="M1485,233.2969 L1485,243.2969 L1495,243.2969 L1485,233.2969 " fill="#FEFFDD" style="stroke:#181818;stroke-width:0.5;"/><text fill="#FF0000" font-family="sans-serif" font-size="13" lengthAdjust="spacing" textLength="26" x="1239" y="250.3638">RED</text><text fill="#000000" font-family="sans-serif" font-size="13" lengthAdjust="spacing" textLength="142" x="1269" y="250.3638">= Manual, Error-Prone</text><text fill="#000000" font-family="sans-serif" font-size="13" lengthAdjust="spacing" textLength="181" x="1239" y="265.4966">Current: 28K invoices/month</text><text fill="#000000" font-family="sans-serif" font-size="13" lengthAdjust="spacing" textLength="241" x="1239" y="280.6294">Issues: 1-2% undetected mismatches</text><text fill="#000000" font-family="sans-serif" font-size="13" lengthAdjust="spacing" textLength="171" x="1239" y="295.7622">Cost: $280K-560K annually</text></g><g id="elem_GMN25"><path d="M1530,233.2969 L1530,303.8281 L1788,303.8281 L1788,243.2969 L1778,233.2969 L1530,233.2969 " fill="#FEFFDD" style="stroke:#181818;stroke-width:0.5;"/><path d="M1778,233.2969 L1778,243.2969 L1788,243.2969 L1778,233.2969 " fill="#FEFFDD" style="stroke:#181818;stroke-width:1.0;"/><text fill="#FF0000" font-family="sans-serif" font-size="13" lengthAdjust="spacing" textLength="26" x="1536" y="250.3638">RED</text><text fill="#000000" font-family="sans-serif" font-size="13" lengthAdjust="spacing" textLength="115" x="1566" y="250.3638">= Manual Process</text><text fill="#000000" font-family="sans-serif" font-size="13" lengthAdjust="spacing" textLength="165" x="1536" y="265.4966">Current: 8-day close cycle</text><text fill="#000000" font-family="sans-serif" font-size="13" lengthAdjust="spacing" textLength="237" x="1536" y="280.6294">Issues: Manual variance investigation</text><text fill="#000000" font-family="sans-serif" font-size="13" lengthAdjust="spacing" textLength="180" x="1536" y="295.7622">Cost: $192K annually (labor)</text></g><g id="elem_GMN28"><path d="M1823.5,233.2969 L1823.5,303.8281 L2044.5,303.8281 L2044.5,243.2969 L2034.5,233.2969 L1823.5,233.2969 " fill="#FEFFDD" style="stroke:#181818;stroke-width:0.5;"/><path d="M2034.5,233.2969 L2034.5,243.2969 L2044.5,243.2969 L2034.5,233.2969 " fill="#FEFFDD" style="stroke:#181818;stroke-width:1.0;"/><text fill="#FF0000" font-family="sans-serif" font-size="13" lengthAdjust="spacing" textLength="26" x="1829.5" y="250.3638">RED</text><text fill="#000000" font-family="sans-serif" font-size="13" lengthAdjust="spacing" textLength="93" x="1859.5" y="250.3638">= Excel-Based</text><text fill="#000000" font-family="sans-serif" font-size="13" lengthAdjust="spacing" textLength="147" x="1829.5" y="265.4966">Current: 8,000 vendors</text><text fill="#000000" font-family="sans-serif" font-size="13" lengthAdjust="spacing" textLength="145" x="1829.5" y="280.6294">Issues: 23% duplicates</text><text fill="#000000" font-family="sans-serif" font-size="13" lengthAdjust="spacing" textLength="200" x="1829.5" y="295.7622">Cost: $200K-400K loss annually</text></g><g id="elem_GMN31"><path d="M2079.5,233.2969 L2079.5,303.8281 L2290.5,303.8281 L2290.5,243.2969 L2280.5,233.2969 L2079.5,233.2969 " fill="#FEFFDD" style="stroke:#181818;stroke-width:0.5;"/><path d="M2280.5,233.2969 L2280.5,243.2969 L2290.5,243.2969 L2280.5,233.2969 " fill="#FEFFDD" style="stroke:#181818;stroke-width:1.0;"/><text fill="#FF0000" font-family="sans-serif" font-size="13" lengthAdjust="spacing" textLength="26" x="2085.5" y="250.3638">RED</text><text fill="#000000" font-family="sans-serif" font-size="13" lengthAdjust="spacing" textLength="111" x="2115.5" y="250.3638">= Quarterly Audit</text><text fill="#000000" font-family="sans-serif" font-size="13" lengthAdjust="spacing" textLength="176" x="2085.5" y="265.4966">Current: Manual review only</text><text fill="#000000" font-family="sans-serif" font-size="13" lengthAdjust="spacing" textLength="190" x="2085.5" y="280.6294">Issues: 6-month detection lag</text><text fill="#000000" font-family="sans-serif" font-size="13" lengthAdjust="spacing" textLength="172" x="2085.5" y="295.7622">Risk: Compliance violations</text></g><g id="elem_GMN34"><path d="M2326,233.2969 L2326,303.8281 L2574,303.8281 L2574,243.2969 L2564,233.2969 L2326,233.2969 " fill="#FEFFDD" style="stroke:#181818;stroke-width:0.5;"/><path d="M2564,233.2969 L2564,243.2969 L2574,243.2969 L2564,233.2969 " fill="#FEFFDD" style="stroke:#181818;stroke-width:1.0;"/><text fill="#FFD700" font-family="sans-serif" font-size="13" lengthAdjust="spacing" textLength="50" x="2332" y="250.3638">YELLOW</text><text fill="#000000" font-family="sans-serif" font-size="13" lengthAdjust="spacing" textLength="55" x="2386" y="250.3638">= Partial</text><text fill="#000000" font-family="sans-serif" font-size="13" lengthAdjust="spacing" textLength="178" x="2332" y="265.4966">Current: Manual submission</text><text fill="#000000" font-family="sans-serif" font-size="13" lengthAdjust="spacing" textLength="206" x="2332" y="280.6294">Issues: Error-prone, not scalable</text><text fill="#000000" font-family="sans-serif" font-size="13" lengthAdjust="spacing" textLength="227" x="2332" y="295.7622">Deadline: Q2 2026 (LHDN MyInvois)</text></g><!--link strategic_level to capability_level--><g id="link_strategic_level_capability_level"><path d="M411.0643,172.351 C411.1414,172.5045 411.2189,172.6589 411.2968,172.814 C411.6085,173.4346 411.9269,174.0684 412.2514,174.7145 C417.4441,185.0528 424.2281,198.56 431.0113,212.0656 C437.7944,225.5712 444.5766,239.0753 449.7655,249.4073 C450.0898,250.0531 450.4079,250.6865 450.7193,251.3067 C450.7972,251.4617 442.7964,235.5305 442.8734,235.6839 " fill="none" id="strategic_level-to-capability_level" style="stroke:#181818;stroke-width:1.0;"/><polygon fill="none" points="450.9517,251.7693,448.2352,232.9911,437.5116,238.3767,450.9517,251.7693" style="stroke:#181818;stroke-width:1.0;"/></g><!--link capability_level to func_level--><g id="link_capability_level_func_level"><path d="M459,319.8329 C459,320.1133 459,320.3943 459,320.6758 C459,329.6845 459,339.2541 459,348.8231 C459,351.2154 459,353.6076 459,355.991 C459,356.5869 459,357.1822 459,357.7768 C459,358.0741 459,358.3713 459,358.6682 C459,358.8167 459,340.9651 459,341.1135 " fill="none" id="capability_level-to-func_level" style="stroke:#181818;stroke-width:1.0;"/><polygon fill="none" points="459,359.1135,465,341.1135,453,341.1135,459,359.1135" style="stroke:#181818;stroke-width:1.0;"/></g><!--link gl_cap to GMN25--><g id="link_gl_cap_GMN25"><path d="M985.48,242.2769 C1001.13,217.4069 1028.7,183.3069 1064.5,178.2969 C1111.93,171.6569 1448.07,171.6569 1495.5,178.2969 C1540.16,184.5469 1584.53,210.6969 1615.75,233.2869 " fill="none" id="gl_cap-GMN25" style="stroke:#181818;stroke-width:1.0;stroke-dasharray:7.0,7.0;"/></g><!--link vendor_cap to GMN28--><g id="link_vendor_cap_GMN28"><path d="M836.02,242.2569 C851.21,217.3669 878.1,183.2569 913.5,178.2969 C937.57,174.9269 1764.43,174.9269 1788.5,178.2969 C1829.6,184.0569 1869.11,210.4069 1896.56,233.2069 " fill="none" id="vendor_cap-GMN28" style="stroke:#181818;stroke-width:1.0;stroke-dasharray:7.0,7.0;"/></g><!--link sod_cap to GMN31--><g id="link_sod_cap_GMN31"><path d="M696.12,241.9269 C708.13,222.9169 726.6,198.2469 749,183.2969 C755.73,178.8069 758.49,179.4169 766.5,178.2969 C801.66,173.3769 2009.34,173.3769 2044.5,178.2969 C2084.58,183.9069 2122.7,210.2769 2149.1,233.1169 " fill="none" id="sod_cap-GMN31" style="stroke:#181818;stroke-width:1.0;stroke-dasharray:7.0,7.0;"/></g><!--link einvoice_cap to GMN34--><g id="link_einvoice_cap_GMN34"><path d="M560.12,241.9269 C572.13,222.9169 590.6,198.2469 613,183.2969 C619.73,178.8069 622.49,179.4169 630.5,178.2969 C676.17,171.8969 2244.83,171.8969 2290.5,178.2969 C2334.33,184.4369 2377.58,210.5869 2407.97,233.2169 " fill="none" id="einvoice_cap-GMN34" style="stroke:#181818;stroke-width:1.0;stroke-dasharray:7.0,7.0;"/></g><rect fill="none" height="95.4844" id="_legend" rx="7.5" ry="7.5" style="stroke:#000000;stroke-width:1.0;" width="290" x="2265" y="642.2969"/><text fill="#000000" font-family="sans-serif" font-size="14" lengthAdjust="spacing" textLength="36" x="2274" y="662.292">Color</text><text fill="#000000" font-family="sans-serif" font-size="14" lengthAdjust="spacing" textLength="59" x="2338" y="662.292">Meaning</text><text fill="#000000" font-family="sans-serif" font-size="14" lengthAdjust="spacing" textLength="4" x="2270" y="678.5889">&#160;</text><text fill="#FF0000" font-family="sans-serif" font-size="14" lengthAdjust="spacing" textLength="30" x="2274" y="678.5889">RED</text><text fill="#000000" font-family="sans-serif" font-size="14" lengthAdjust="spacing" textLength="4" x="2304" y="678.5889">&#160;</text><text fill="#000000" font-family="sans-serif" font-size="14" lengthAdjust="spacing" textLength="208" x="2338" y="678.5889">Manual, Error-Prone, High Risk</text><text fill="#000000" font-family="sans-serif" font-size="14" lengthAdjust="spacing" textLength="4" x="2270" y="694.8857">&#160;</text><text fill="#FFD700" font-family="sans-serif" font-size="14" lengthAdjust="spacing" textLength="56" x="2274" y="694.8857">YELLOW</text><text fill="#000000" font-family="sans-serif" font-size="14" lengthAdjust="spacing" textLength="4" x="2330" y="694.8857">&#160;</text><text fill="#000000" font-family="sans-serif" font-size="14" lengthAdjust="spacing" textLength="131" x="2338" y="694.8857">Partially Automated</text><text fill="#000000" font-family="sans-serif" font-size="14" lengthAdjust="spacing" textLength="4" x="2270" y="711.1826">&#160;</text><text fill="#008000" font-family="sans-serif" font-size="14" lengthAdjust="spacing" textLength="49" x="2274" y="711.1826">GREEN</text><text fill="#000000" font-family="sans-serif" font-size="14" lengthAdjust="spacing" textLength="4" x="2323" y="711.1826">&#160;</text><text fill="#000000" font-family="sans-serif" font-size="14" lengthAdjust="spacing" textLength="188" x="2338" y="711.1826">Fully Automated, Optimized</text><text fill="#000000" font-family="sans-serif" font-size="14" lengthAdjust="spacing" textLength="4" x="2270" y="727.4795">&#160;</text><text fill="#808080" font-family="sans-serif" font-size="14" lengthAdjust="spacing" textLength="39" x="2274" y="727.4795">GRAY</text><text fill="#000000" font-family="sans-serif" font-size="14" lengthAdjust="spacing" textLength="4" x="2313" y="727.4795">&#160;</text><text fill="#000000" font-family="sans-serif" font-size="14" lengthAdjust="spacing" textLength="146" x="2338" y="727.4795">Not Yet Implemented</text><line style="stroke:#000000;stroke-width:1.0;" x1="2270" x2="2550" y1="649.2969" y2="649.2969"/><line style="stroke:#000000;stroke-width:1.0;" x1="2270" x2="2550" y1="665.5938" y2="665.5938"/><line style="stroke:#000000;stroke-width:1.0;" x1="2270" x2="2550" y1="681.8906" y2="681.8906"/><line style="stroke:#000000;stroke-width:1.0;" x1="2270" x2="2550" y1="698.1875" y2="698.1875"/><line style="stroke:#000000;stroke-width:1.0;" x1="2270" x2="2550" y1="714.4844" y2="714.4844"/><line style="stroke:#000000;stroke-width:1.0;" x1="2270" x2="2550" y1="730.7813" y2="730.7813"/><line style="stroke:#000000;stroke-width:1.0;" x1="2270" x2="2270" y1="649.2969" y2="730.7813"/><line style="stroke:#000000;stroke-width:1.0;" x1="2334" x2="2334" y1="649.2969" y2="730.7813"/><line style="stroke:#000000;stroke-width:1.0;" x1="2550" x2="2550" y1="649.2969" y2="730.7813"/><!--SRC=[XLL_R-8u4FsVJp7gtfwwKgDIkaKzj8S48R2e_5gWlQjKgNAJQMeHxCXssEME- -utTg04IgaY8HBFyxnvyyOst2G8zzCU-3X7OS23PgQvGAt1PobxuWatI-Yp54xzJ2aRCZ7C80K6lb_zKj8pBbAcs1oUM3YBbSn4vCj4AlZKlh9F8MAzg0Gg3HTNfL9A41OZd3W6GJyOJA4p7jwEJk3VKWb0OMYOY8dYoMGwRao3JjU7Nd0Nz4w0QT164PMOXuy9BZ21Jyzb-n0MO0SyKZBC57f6UYEsTDYqaXB3TljhKDsF7ge8bOtrcNvnmR8IlXVSPpEtxyJ8SEQ2vqQ_5zpcWeaGuNSOOogLuI9sa6Sk7XKM2VstLtxpTj8T19C9-8rHezdjTQVt1I72rrPzf4HNB2GFyK5OIQZB6mOy__v8EraMrMQrkG_jz1x464CfGih439V28UFa6EWEHIJLW-WpGOss5dEWXVjy33YHhGVXotbAkKYolDyoEWP1xxMwFI3kbDSis-U0oEtRWJ_j3WUDNa7Rvqnyw2zVePs9qP0oh_-ESvV9HuktZ9kNpSktvZ7X2xooDfAsEE_aqBbTEueUIMt0TYKGHd7KctOSmxJGq0iuTU-uJ5mVzQkwnycAZ2NmTvyoTf1cUEk1N_DDrbRPFavRKdT_G3rlLNzZrj8RzxgmhUwbaf0agUBnYm7vNFGg9VeMsjEcfZ2gZuFMjtFtMeS_8UTx1e5IKddaTu4KlZx5Qb2vljdifC_dKfWNMkrgdQ6kmOLN-GnqM3crC88vrwuVgEqMf7iDVgjSbs-ygshv1fYmcP9bYLmDbki-utn6FYOBwwaiyhps8hQ4C94Q8Lo62HPehb4BffpNRJse3OzTPxPCB_weR4d2QSAUfFhoBjdjR1uZ7FmACV6QJ6Eqm_QiN2wljz05ffNBpn1bD9CX6Q8eOfb4_4e_G0NgZvLS7m77cFt8c3AegD965d5JPBVMI-62uq-GWX9jALOzvmB8cqu2Gi9YMXzpFQl1zaI1nUlSl4iJ3teqbabKlmzwlU5V1RuZeijPSe2dpfx8U3hlvOPcRkVKsldCvWOTCkgeyqKBMPJGxLs37nMeb2jLEErzRmsWltHdZ2usFS7OlZZA15r1Vckle8zCqBK0A_Vr7PbNXyRh3BxJRawmNVIXmbURmbsZZAJvea7RXIb4KU-CWs1GWBMp7SWP35F3v_oVjsYs973Zle0Ta5xtQA1BpNItaGDP7N8vIly3]--></g></svg>