<?xml version="1.0" encoding="us-ascii" standalone="no"?><svg xmlns="http://www.w3.org/2000/svg" xmlns:xlink="http://www.w3.org/1999/xlink" contentStyleType="text/css" height="861px" preserveAspectRatio="none" style="width:2588px;height:861px;background:#F5F5F5;" version="1.1" viewBox="0 0 2588 861" width="2588px" zoomAndPan="magnify"><defs/><g><rect fill="#F5F5F5" height="861" style="stroke:none;stroke-width:1.0;" width="2588" x="0" y="0"/><text fill="#000000" font-family="sans-serif" font-size="14" font-weight="bold" lengthAdjust="spacing" textLength="556" x="1009" y="22.9951">YTL Cement - Business Capability Map (Target State - S/4HANA + MVP)</text><!--cluster YTL CEMENT GROUP--><g id="cluster_YTL CEMENT GROUP"><path d="M8.5,43.2969 L166.5,43.2969 A3.75,3.75 0 0 1 169,45.7969 L176,65.5938 L1214.5,65.5938 A2.5,2.5 0 0 1 1217,68.0938 L1217,741.7969 A2.5,2.5 0 0 1 1214.5,744.2969 L8.5,744.2969 A2.5,2.5 0 0 1 6,741.7969 L6,45.7969 A2.5,2.5 0 0 1 8.5,43.2969 " fill="none" style="stroke:#000000;stroke-width:1.5;"/><line style="stroke:#000000;stroke-width:1.5;" x1="6" x2="176" y1="65.5938" y2="65.5938"/><text fill="#000000" font-family="sans-serif" font-size="14" font-weight="bold" lengthAdjust="spacing" textLength="157" x="10" y="58.292">YTL CEMENT GROUP</text></g><!--cluster strategic_level--><g id="cluster_strategic_level"><rect fill="#F0F0F0" height="216.5" rx="2.5" ry="2.5" style="stroke:#181818;stroke-width:1.0;" width="373" x="38" y="94.2969"/><text fill="#000000" font-family="sans-serif" font-size="14" font-weight="bold" lengthAdjust="spacing" textLength="139" x="155" y="109.292">STRATEGIC LEVEL</text></g><!--cluster capability_level--><g id="cluster_capability_level"><rect fill="#F0F0F0" height="120" rx="2.5" ry="2.5" style="stroke:#181818;stroke-width:1.0;" width="734" x="451" y="199.2969"/><text fill="#000000" font-family="sans-serif" font-size="14" font-weight="bold" lengthAdjust="spacing" textLength="222" x="707" y="214.292">BUSINESS CAPABILITY LEVEL</text></g><!--cluster func_level--><g id="cluster_func_level"><rect fill="#F0F0F0" height="240" rx="2.5" ry="2.5" style="stroke:#181818;stroke-width:1.0;" width="514" x="505" y="359.2969"/><text fill="#000000" font-family="sans-serif" font-size="14" font-weight="bold" lengthAdjust="spacing" textLength="151" x="686.5" y="374.292">FUNCTIONAL LEVEL</text></g><!--cluster mvp_layer--><g id="cluster_mvp_layer"><rect fill="#E3F2FD" height="233" rx="2.5" ry="2.5" style="stroke:#181818;stroke-width:1.0;" width="427" x="38" y="479.2969"/><text fill="#000000" font-family="sans-serif" font-size="14" font-weight="bold" lengthAdjust="spacing" textLength="158" x="172.5" y="494.292">MVP MODULE LAYER</text></g><!--entity p2p--><g id="elem_p2p"><rect fill="#FFF4E6" height="36.2969" rx="2.5" ry="2.5" style="stroke:#181818;stroke-width:0.5;" width="122" x="77" y="137.2969"/><text fill="#000000" font-family="sans-serif" font-size="14" lengthAdjust="spacing" textLength="102" x="87" y="160.292">Procure-to-Pay</text></g><!--entity o2c--><g id="elem_o2c"><rect fill="#FFF4E6" height="36.2969" rx="2.5" ry="2.5" style="stroke:#181818;stroke-width:0.5;" width="118" x="242" y="137.2969"/><text fill="#000000" font-family="sans-serif" font-size="14" lengthAdjust="spacing" textLength="98" x="252" y="160.292">Order-to-Cash</text></g><!--entity mts--><g id="elem_mts"><rect fill="#FFF4E6" height="36.2969" rx="2.5" ry="2.5" style="stroke:#181818;stroke-width:0.5;" width="120" x="62" y="250.7969"/><text fill="#000000" font-family="sans-serif" font-size="14" lengthAdjust="spacing" textLength="100" x="72" y="273.792">Make-to-Stock</text></g><!--entity fin_rep--><g id="elem_fin_rep"><rect fill="#FFF4E6" height="36.2969" rx="2.5" ry="2.5" style="stroke:#181818;stroke-width:0.5;" width="162" x="217" y="250.7969"/><text fill="#000000" font-family="sans-serif" font-size="14" lengthAdjust="spacing" textLength="142" x="227" y="273.792">Finance &amp; Reporting</text></g><!--entity invoice_cap--><g id="elem_invoice_cap"><rect fill="#66BB6A" height="52.5938" rx="2.5" ry="2.5" style="stroke:#181818;stroke-width:0.5;" width="97" x="1064.5" y="242.2969"/><text fill="#000000" font-family="sans-serif" font-size="14" lengthAdjust="spacing" textLength="48" x="1074.5" y="265.292">Invoice</text><text fill="#000000" font-family="sans-serif" font-size="14" lengthAdjust="spacing" textLength="77" x="1074.5" y="281.5889">Processing</text></g><!--entity gl_cap--><g id="elem_gl_cap"><rect fill="#66BB6A" height="52.5938" rx="2.5" ry="2.5" style="stroke:#181818;stroke-width:0.5;" width="116" x="913" y="242.2969"/><text fill="#000000" font-family="sans-serif" font-size="14" lengthAdjust="spacing" textLength="18" x="923" y="265.292">GL</text><text fill="#000000" font-family="sans-serif" font-size="14" lengthAdjust="spacing" textLength="96" x="923" y="281.5889">Reconciliation</text></g><!--entity vendor_cap--><g id="elem_vendor_cap"><rect fill="#66BB6A" height="52.5938" rx="2.5" ry="2.5" style="stroke:#181818;stroke-width:0.5;" width="111" x="766.5" y="242.2969"/><text fill="#000000" font-family="sans-serif" font-size="14" lengthAdjust="spacing" textLength="50" x="776.5" y="265.292">Vendor</text><text fill="#000000" font-family="sans-serif" font-size="14" lengthAdjust="spacing" textLength="91" x="776.5" y="281.5889">Management</text></g><!--entity sod_cap--><g id="elem_sod_cap"><rect fill="#66BB6A" height="52.5938" rx="2.5" ry="2.5" style="stroke:#181818;stroke-width:0.5;" width="101" x="630.5" y="242.2969"/><text fill="#000000" font-family="sans-serif" font-size="14" lengthAdjust="spacing" textLength="29" x="640.5" y="265.292">SoD</text><text fill="#000000" font-family="sans-serif" font-size="14" lengthAdjust="spacing" textLength="81" x="640.5" y="281.5889">Compliance</text></g><!--entity einvoice_cap--><g id="elem_einvoice_cap"><rect fill="#66BB6A" height="52.5938" rx="2.5" ry="2.5" style="stroke:#181818;stroke-width:0.5;" width="101" x="494.5" y="242.2969"/><text fill="#000000" font-family="sans-serif" font-size="14" lengthAdjust="spacing" textLength="62" x="504.5" y="265.292">e-Invoice</text><text fill="#000000" font-family="sans-serif" font-size="14" lengthAdjust="spacing" textLength="81" x="504.5" y="281.5889">Compliance</text></g><!--entity po_func--><g id="elem_po_func"><rect fill="#A8D5BA" height="52.5938" rx="2.5" ry="2.5" style="stroke:#181818;stroke-width:0.5;" width="120" x="548" y="402.2969"/><text fill="#000000" font-family="sans-serif" font-size="14" lengthAdjust="spacing" textLength="100" x="558" y="425.292">Automated PO</text><text fill="#000000" font-family="sans-serif" font-size="14" lengthAdjust="spacing" textLength="77" x="558" y="441.5889">Generation</text></g><!--entity match_func--><g id="elem_match_func"><rect fill="#A8D5BA" height="52.5938" rx="2.5" ry="2.5" style="stroke:#181818;stroke-width:0.5;" width="146" x="703" y="402.2969"/><text fill="#000000" font-family="sans-serif" font-size="14" lengthAdjust="spacing" textLength="126" x="713" y="425.292">Continuous 3-Way</text><text fill="#000000" font-family="sans-serif" font-size="14" lengthAdjust="spacing" textLength="63" x="713" y="441.5889">Matching</text></g><!--entity gl_func--><g id="elem_gl_func"><rect fill="#A8D5BA" height="52.5938" rx="2.5" ry="2.5" style="stroke:#181818;stroke-width:0.5;" width="111" x="884.5" y="402.2969"/><text fill="#000000" font-family="sans-serif" font-size="14" lengthAdjust="spacing" textLength="91" x="894.5" y="425.292">Real-Time GL</text><text fill="#000000" font-family="sans-serif" font-size="14" lengthAdjust="spacing" textLength="52" x="894.5" y="441.5889">Posting</text></g><!--entity sod_func--><g id="elem_sod_func"><rect fill="#A8D5BA" height="52.5938" rx="2.5" ry="2.5" style="stroke:#181818;stroke-width:0.5;" width="122" x="548" y="522.2969"/><text fill="#000000" font-family="sans-serif" font-size="14" lengthAdjust="spacing" textLength="102" x="558" y="545.292">Real-Time SoD</text><text fill="#000000" font-family="sans-serif" font-size="14" lengthAdjust="spacing" textLength="73" x="558" y="561.5889">Monitoring</text></g><!--entity xml_func--><g id="elem_xml_func"><rect fill="#A8D5BA" height="52.5938" rx="2.5" ry="2.5" style="stroke:#181818;stroke-width:0.5;" width="158" x="705" y="522.2969"/><text fill="#000000" font-family="sans-serif" font-size="14" lengthAdjust="spacing" textLength="138" x="715" y="545.292">Automated MyInvois</text><text fill="#000000" font-family="sans-serif" font-size="14" lengthAdjust="spacing" textLength="80" x="715" y="561.5889">Submission</text></g><!--entity invoice_mvp--><g id="elem_invoice_mvp"><rect fill="#42A5F5" height="52.5938" rx="2.5" ry="2.5" style="stroke:#181818;stroke-width:0.5;" width="83" x="62.5" y="522.2969"/><text fill="#000000" font-family="sans-serif" font-size="14" lengthAdjust="spacing" textLength="48" x="72.5" y="545.292">Invoice</text><text fill="#000000" font-family="sans-serif" font-size="14" lengthAdjust="spacing" textLength="63" x="72.5" y="561.5889">Matching</text></g><!--entity gl_mvp--><g id="elem_gl_mvp"><rect fill="#42A5F5" height="52.5938" rx="2.5" ry="2.5" style="stroke:#181818;stroke-width:0.5;" width="100" x="181" y="522.2969"/><text fill="#000000" font-family="sans-serif" font-size="14" lengthAdjust="spacing" textLength="80" x="191" y="545.292">GL Anomaly</text><text fill="#000000" font-family="sans-serif" font-size="14" lengthAdjust="spacing" textLength="61" x="191" y="561.5889">Detector</text></g><!--entity vendor_mvp--><g id="elem_vendor_mvp"><rect fill="#42A5F5" height="52.5938" rx="2.5" ry="2.5" style="stroke:#181818;stroke-width:0.5;" width="106" x="316" y="522.2969"/><text fill="#000000" font-family="sans-serif" font-size="14" lengthAdjust="spacing" textLength="86" x="326" y="545.292">Vendor Data</text><text fill="#000000" font-family="sans-serif" font-size="14" lengthAdjust="spacing" textLength="46" x="326" y="561.5889">Quality</text></g><!--entity sod_mvp--><g id="elem_sod_mvp"><rect fill="#42A5F5" height="52.5938" rx="2.5" ry="2.5" style="stroke:#181818;stroke-width:0.5;" width="78" x="65" y="635.2969"/><text fill="#000000" font-family="sans-serif" font-size="14" lengthAdjust="spacing" textLength="29" x="75" y="658.292">SoD</text><text fill="#000000" font-family="sans-serif" font-size="14" lengthAdjust="spacing" textLength="58" x="75" y="674.5889">Analyzer</text></g><!--entity einvoice_mvp--><g id="elem_einvoice_mvp"><rect fill="#42A5F5" height="52.5938" rx="2.5" ry="2.5" style="stroke:#181818;stroke-width:0.5;" width="82" x="178" y="635.2969"/><text fill="#000000" font-family="sans-serif" font-size="14" lengthAdjust="spacing" textLength="62" x="188" y="658.292">e-Invoice</text><text fill="#000000" font-family="sans-serif" font-size="14" lengthAdjust="spacing" textLength="51" x="188" y="674.5889">Module</text></g><g id="elem_GMN29"><path d="M1233.5,233.2969 L1233.5,264.7969 L1161.9,268.7969 L1233.5,272.7969 L1233.5,303.8281 A0,0 0 0 0 1233.5,303.8281 L1460.5,303.8281 A0,0 0 0 0 1460.5,303.8281 L1460.5,243.2969 L1450.5,233.2969 L1233.5,233.2969 A0,0 0 0 0 1233.5,233.2969 " fill="#FEFFDD" style="stroke:#181818;stroke-width:0.5;"/><path d="M1450.5,233.2969 L1450.5,243.2969 L1460.5,243.2969 L1450.5,233.2969 " fill="#FEFFDD" style="stroke:#181818;stroke-width:0.5;"/><text fill="#008000" font-family="sans-serif" font-size="13" lengthAdjust="spacing" textLength="44" x="1239.5" y="250.3638">GREEN</text><text fill="#000000" font-family="sans-serif" font-size="13" lengthAdjust="spacing" textLength="87" x="1287.5" y="250.3638">= Automated</text><text fill="#000000" font-family="sans-serif" font-size="13" lengthAdjust="spacing" textLength="198" x="1239.5" y="265.4966">Target: 99.7% auto-match rate</text><text fill="#000000" font-family="sans-serif" font-size="13" lengthAdjust="spacing" textLength="182" x="1239.5" y="280.6294">Benefit: $280K-560K savings</text><text fill="#000000" font-family="sans-serif" font-size="13" lengthAdjust="spacing" textLength="206" x="1239.5" y="295.7622">Timeline: Continuous monitoring</text></g><g id="elem_GMN32"><path d="M1496,233.2969 L1496,303.8281 L1762,303.8281 L1762,243.2969 L1752,233.2969 L1496,233.2969 " fill="#FEFFDD" style="stroke:#181818;stroke-width:0.5;"/><path d="M1752,233.2969 L1752,243.2969 L1762,243.2969 L1752,233.2969 " fill="#FEFFDD" style="stroke:#181818;stroke-width:1.0;"/><text fill="#008000" font-family="sans-serif" font-size="13" lengthAdjust="spacing" textLength="44" x="1502" y="250.3638">GREEN</text><text fill="#000000" font-family="sans-serif" font-size="13" lengthAdjust="spacing" textLength="78" x="1550" y="250.3638">= Real-Time</text><text fill="#000000" font-family="sans-serif" font-size="13" lengthAdjust="spacing" textLength="134" x="1502" y="265.4966">Target: 3-4 day close</text><text fill="#000000" font-family="sans-serif" font-size="13" lengthAdjust="spacing" textLength="181" x="1502" y="280.6294">Benefit: $192K labor savings</text><text fill="#000000" font-family="sans-serif" font-size="13" lengthAdjust="spacing" textLength="245" x="1502" y="295.7622">Timeline: Real-time anomaly detection</text></g><g id="elem_GMN35"><path d="M1797,233.2969 L1797,303.8281 L2045,303.8281 L2045,243.2969 L2035,233.2969 L1797,233.2969 " fill="#FEFFDD" style="stroke:#181818;stroke-width:0.5;"/><path d="M2035,233.2969 L2035,243.2969 L2045,243.2969 L2035,233.2969 " fill="#FEFFDD" style="stroke:#181818;stroke-width:1.0;"/><text fill="#008000" font-family="sans-serif" font-size="13" lengthAdjust="spacing" textLength="44" x="1803" y="250.3638">GREEN</text><text fill="#000000" font-family="sans-serif" font-size="13" lengthAdjust="spacing" textLength="94" x="1851" y="250.3638">= Data Quality</text><text fill="#000000" font-family="sans-serif" font-size="13" lengthAdjust="spacing" textLength="149" x="1803" y="265.4966">Target: &lt;5% duplicates</text><text fill="#000000" font-family="sans-serif" font-size="13" lengthAdjust="spacing" textLength="189" x="1803" y="280.6294">Benefit: $200K-400K recovery</text><text fill="#000000" font-family="sans-serif" font-size="13" lengthAdjust="spacing" textLength="227" x="1803" y="295.7622">Timeline: Automated de-duplication</text></g><g id="elem_GMN38"><path d="M2080.5,233.2969 L2080.5,303.8281 L2315.5,303.8281 L2315.5,243.2969 L2305.5,233.2969 L2080.5,233.2969 " fill="#FEFFDD" style="stroke:#181818;stroke-width:0.5;"/><path d="M2305.5,233.2969 L2305.5,243.2969 L2315.5,243.2969 L2305.5,233.2969 " fill="#FEFFDD" style="stroke:#181818;stroke-width:1.0;"/><text fill="#008000" font-family="sans-serif" font-size="13" lengthAdjust="spacing" textLength="44" x="2086.5" y="250.3638">GREEN</text><text fill="#000000" font-family="sans-serif" font-size="13" lengthAdjust="spacing" textLength="78" x="2134.5" y="250.3638">= Real-Time</text><text fill="#000000" font-family="sans-serif" font-size="13" lengthAdjust="spacing" textLength="214" x="2086.5" y="265.4966">Target: Instant violation detection</text><text fill="#000000" font-family="sans-serif" font-size="13" lengthAdjust="spacing" textLength="201" x="2086.5" y="280.6294">Benefit: Compliance confidence</text><text fill="#000000" font-family="sans-serif" font-size="13" lengthAdjust="spacing" textLength="162" x="2086.5" y="295.7622">Timeline: 24/7 monitoring</text></g><g id="elem_GMN41"><path d="M2351,233.2969 L2351,303.8281 L2581,303.8281 L2581,243.2969 L2571,233.2969 L2351,233.2969 " fill="#FEFFDD" style="stroke:#181818;stroke-width:0.5;"/><path d="M2571,233.2969 L2571,243.2969 L2581,243.2969 L2571,233.2969 " fill="#FEFFDD" style="stroke:#181818;stroke-width:1.0;"/><text fill="#008000" font-family="sans-serif" font-size="13" lengthAdjust="spacing" textLength="44" x="2357" y="250.3638">GREEN</text><text fill="#000000" font-family="sans-serif" font-size="13" lengthAdjust="spacing" textLength="87" x="2405" y="250.3638">= Automated</text><text fill="#000000" font-family="sans-serif" font-size="13" lengthAdjust="spacing" textLength="203" x="2357" y="265.4966">Target: 100% LHDN compliance</text><text fill="#000000" font-family="sans-serif" font-size="13" lengthAdjust="spacing" textLength="187" x="2357" y="280.6294">Benefit: 0.5 FTE labor savings</text><text fill="#000000" font-family="sans-serif" font-size="13" lengthAdjust="spacing" textLength="209" x="2357" y="295.7622">Timeline: Automated submission</text></g><!--link strategic_level to capability_level--><g id="link_strategic_level_capability_level"><path d="M411.0427,163.3694 C411.0805,163.405 411.1183,163.4407 411.1562,163.4766 C411.232,163.5483 411.308,163.6204 411.3844,163.693 C411.5371,163.8381 411.691,163.9849 411.8459,164.1333 C412.1558,164.4301 412.4698,164.7335 412.7875,165.0431 C417.87,169.9969 423.865,176.5419 428,183.2969 C438.115,199.8219 445.705,220.1644 450.8425,236.7481 C450.8826,236.8777 445.6151,219.8073 445.6549,219.9364 " fill="none" id="strategic_level-to-capability_level" style="stroke:#181818;stroke-width:1.0;"/><polygon fill="none" points="450.9625,237.1361,451.3882,218.1672,439.9217,221.7056,450.9625,237.1361" style="stroke:#181818;stroke-width:1.0;"/></g><!--link capability_level to func_level--><g id="link_capability_level_func_level"><path d="M472.9524,319.45 C472.9873,319.5642 473.0223,319.6784 473.0573,319.7926 C473.1272,320.021 473.1973,320.2494 473.2675,320.4778 C473.4079,320.9345 473.5486,321.3911 473.6898,321.8474 C473.972,322.76 474.2557,323.6715 474.5406,324.5806 C475.6802,328.217 476.8388,331.8156 478,335.2969 C484.74,355.4919 493.1625,377.8244 500.0563,395.4856 C501.7797,399.9009 496.7529,387.2996 498.2351,391.0246 " fill="none" id="capability_level-to-func_level" style="stroke:#181818;stroke-width:1.0;"/><polygon fill="none" points="504.8897,407.7493,503.81,388.8064,492.6602,393.2429,504.8897,407.7493" style="stroke:#181818;stroke-width:1.0;"/></g><!--link func_level to mvp_layer--><g id="link_func_level_mvp_layer"><path d="M504.9357,446.7896 C504.8586,446.952 504.7811,447.1153 504.7032,447.2795 C504.3915,447.9362 504.0731,448.6069 503.7486,449.2906 C498.5559,460.2306 491.7719,474.5244 484.9888,488.8169 C478.2056,503.1094 471.4234,517.4006 466.2345,528.3356 C465.9102,529.0191 465.5921,529.6894 465.2807,530.3458 C465.2028,530.5099 472.8419,514.411 472.7649,514.5734 " fill="none" id="func_level-to-mvp_layer" style="stroke:#181818;stroke-width:1.0;"/><polygon fill="none" points="465.0483,530.8355,478.1856,517.1456,467.3442,512.0012,465.0483,530.8355" style="stroke:#181818;stroke-width:1.0;"/></g><!--link gl_cap to GMN32--><g id="link_gl_cap_GMN32"><path d="M985.48,242.2769 C1001.13,217.4069 1028.7,183.3069 1064.5,178.2969 C1108.07,172.1969 1416.93,172.1969 1460.5,178.2969 C1506.05,184.6769 1551.63,210.6369 1583.88,233.1369 " fill="none" id="gl_cap-GMN32" style="stroke:#181818;stroke-width:1.0;stroke-dasharray:7.0,7.0;"/></g><!--link vendor_cap to GMN35--><g id="link_vendor_cap_GMN35"><path d="M836.02,242.2569 C851.21,217.3669 878.1,183.2569 913.5,178.2969 C960.21,171.7569 1715.79,171.7569 1762.5,178.2969 C1806.12,184.4069 1849.1,210.5569 1879.27,233.1969 " fill="none" id="vendor_cap-GMN35" style="stroke:#181818;stroke-width:1.0;stroke-dasharray:7.0,7.0;"/></g><!--link sod_cap to GMN38--><g id="link_sod_cap_GMN38"><path d="M696.12,241.9269 C708.13,222.9169 726.6,198.2469 749,183.2969 C755.73,178.8069 758.49,179.4169 766.5,178.2969 C801.68,173.3669 2010.32,173.3669 2045.5,178.2969 C2087.88,184.2369 2129.2,210.4069 2158.11,233.0869 " fill="none" id="sod_cap-GMN38" style="stroke:#181818;stroke-width:1.0;stroke-dasharray:7.0,7.0;"/></g><!--link einvoice_cap to GMN41--><g id="link_einvoice_cap_GMN41"><path d="M560.12,241.9269 C572.13,222.9169 590.6,198.2469 613,183.2969 C619.73,178.8069 622.49,179.4169 630.5,178.2969 C676.85,171.8069 2269.15,171.8069 2315.5,178.2969 C2357.62,184.1969 2398.53,210.5369 2427.03,233.2969 " fill="none" id="einvoice_cap-GMN41" style="stroke:#181818;stroke-width:1.0;stroke-dasharray:7.0,7.0;"/></g><rect fill="none" height="79.1875" id="_legend" rx="7.5" ry="7.5" style="stroke:#000000;stroke-width:1.0;" width="290" x="2272" y="762.2969"/><text fill="#000000" font-family="sans-serif" font-size="14" lengthAdjust="spacing" textLength="36" x="2281" y="782.292">Color</text><text fill="#000000" font-family="sans-serif" font-size="14" lengthAdjust="spacing" textLength="59" x="2345" y="782.292">Meaning</text><text fill="#000000" font-family="sans-serif" font-size="14" lengthAdjust="spacing" textLength="4" x="2277" y="798.5889">&#160;</text><text fill="#FF0000" font-family="sans-serif" font-size="14" lengthAdjust="spacing" textLength="30" x="2281" y="798.5889">RED</text><text fill="#000000" font-family="sans-serif" font-size="14" lengthAdjust="spacing" textLength="4" x="2311" y="798.5889">&#160;</text><text fill="#000000" font-family="sans-serif" font-size="14" lengthAdjust="spacing" textLength="208" x="2345" y="798.5889">Manual, Error-Prone, High Risk</text><text fill="#000000" font-family="sans-serif" font-size="14" lengthAdjust="spacing" textLength="4" x="2277" y="814.8857">&#160;</text><text fill="#FFD700" font-family="sans-serif" font-size="14" lengthAdjust="spacing" textLength="56" x="2281" y="814.8857">YELLOW</text><text fill="#000000" font-family="sans-serif" font-size="14" lengthAdjust="spacing" textLength="4" x="2337" y="814.8857">&#160;</text><text fill="#000000" font-family="sans-serif" font-size="14" lengthAdjust="spacing" textLength="131" x="2345" y="814.8857">Partially Automated</text><text fill="#000000" font-family="sans-serif" font-size="14" lengthAdjust="spacing" textLength="4" x="2277" y="831.1826">&#160;</text><text fill="#008000" font-family="sans-serif" font-size="14" lengthAdjust="spacing" textLength="49" x="2281" y="831.1826">GREEN</text><text fill="#000000" font-family="sans-serif" font-size="14" lengthAdjust="spacing" textLength="4" x="2330" y="831.1826">&#160;</text><text fill="#000000" font-family="sans-serif" font-size="14" lengthAdjust="spacing" textLength="188" x="2345" y="831.1826">Fully Automated, Optimized</text><line style="stroke:#000000;stroke-width:1.0;" x1="2277" x2="2557" y1="769.2969" y2="769.2969"/><line style="stroke:#000000;stroke-width:1.0;" x1="2277" x2="2557" y1="785.5938" y2="785.5938"/><line style="stroke:#000000;stroke-width:1.0;" x1="2277" x2="2557" y1="801.8906" y2="801.8906"/><line style="stroke:#000000;stroke-width:1.0;" x1="2277" x2="2557" y1="818.1875" y2="818.1875"/><line style="stroke:#000000;stroke-width:1.0;" x1="2277" x2="2557" y1="834.4844" y2="834.4844"/><line style="stroke:#000000;stroke-width:1.0;" x1="2277" x2="2277" y1="769.2969" y2="834.4844"/><line style="stroke:#000000;stroke-width:1.0;" x1="2341" x2="2341" y1="769.2969" y2="834.4844"/><line style="stroke:#000000;stroke-width:1.0;" x1="2557" x2="2557" y1="769.2969" y2="834.4844"/><!--SRC=[fLRzR-8u4FqzVyMeN4ztscPBAR3RgbSfGA2euUE0TbK92Rc9IQq6Et8STEon__kEpLU0DbtTAH8YzhpnyvldSHHJ4OMdaGTrEgDSWGsrD66S9WdKIKoUMSJK0ZeaXZz6H8PKmL0HHJ5kU5w-SxeEV8BEO_zFAtbbF2QIpE2P-A-X52aFwY8I4WhDYduo4Uj9oQbCuA9YMJ52I4ZXn31nEsvt1Ar1xw5_0lzQ5e2alY8yHAedmz706RcjTXqyzz7rJe0aa2Y9d4BcJo8wfn4KfaNz81PW3zoNmaybjPMm-sHXi74fHeRDPjcj7aRtP42bZgsJvCK4YvB_Nd27l9gyGoNyLnCyKybxmKt62VSf_0u36Wkf60yDPChuHD8ieHy7swyz3DjTTpY4kjDtQcslFNhA2E5lI_QH4cq-5yodOwubmMfl6B3L-0GpGQ5QhTMgpY6qvOtvWFg2-xWIKKnmWmoZFD0ZvO6GOzuX70kjhMP0SpES1noAnfZNnIp6jL2oLRr5a0UXzdPt1q3wzlOEHMu-TEkZTg_hU1bjfod_q5zEgiGChHX0lpVcBOe6tmaKYudE0GNdQwDIEs9T5nnza8eqWKlx6rbehPJ_iYdCJB_a9XXG4jaZDgEWAzGNoTPMM9fV0ngnEu8p9UG6hCNEG-_st5aOtPCn7wRFCuQcMk_ydzaHWKF9iOT0fzTuy5pmd2TtiDhpF9v4P46nXxYNpLApaUFZFR4sPSO4K2YN7Dr-ZbmC3aVY4GhTe0edXDo8bGDR-HWQH94n_pib-gnbdPm3DU8w75VyJkLMsXn0niST4QJHWOVtaJyibFIm4ThsylQeALX7NSA4xVnjPQnkfhPri2mkiFbB5hue4DDijq0ADxxkzzUXf9JVjWQksxqvDqEty1TiROA1gvla6gwkFdyv1O8pjh4tQFOuNyE3CsKOy5lfQ_7UhbIBzv2GELOtqMXqQeHNr3LaZiniQreB2m6QvY7PLOFwYEVsC6HuNjfb2CW2_4Wa-_mkhaht495djCHR14qofKyMMNaD0cCrF1Zlqjorn8-eQXF2seCPjZULKmXIR7i-gfdiorb4ESluesqcvbGkzkZkZd90xKsAFAxhHlnVD6tp17skOCv4P1R9I9EXl6lWW3VEb0KK_-wHBfNFl_nA-Ud_DEj5iNWAtbsZYqGsdB9CYvyhq1ovEMxOoPji-sE6RaH3_M888su9gy-d9NGeuPWCbcPqJLpIu7RWDhQaCOnmzC8Pk58AQUEzpkaPt64s6B3aTHyTYYYuVN8zh_Sjaw5Fy5E4H6ZJ7TLzs1jgBQ6Pxa7Ee1UZvzbtWzPRMktC-Wa0]--></g></svg>