<?xml version="1.0" encoding="us-ascii" standalone="no"?><svg xmlns="http://www.w3.org/2000/svg" xmlns:xlink="http://www.w3.org/1999/xlink" contentStyleType="text/css" height="672px" preserveAspectRatio="none" style="width:5350px;height:672px;background:#F5F5F5;" version="1.1" viewBox="0 0 5350 672" width="5350px" zoomAndPan="magnify"><defs/><g><rect fill="#F5F5F5" height="672" style="stroke:none;stroke-width:1.0;" width="5350" x="0" y="0"/><text fill="#000000" font-family="sans-serif" font-size="14" font-weight="bold" lengthAdjust="spacing" textLength="462" x="2437" y="22.9951">YTL Cement - Organization Structure &amp; Stakeholder Matrix</text><!--cluster YTL CEMENT GROUP--><g id="cluster_YTL CEMENT GROUP"><rect fill="none" height="355" rx="2.5" ry="2.5" style="stroke:#181818;stroke-width:1.0;" width="1020" x="7" y="44.2969"/><text fill="#000000" font-family="sans-serif" font-size="14" font-weight="bold" lengthAdjust="spacing" textLength="157" x="438.5" y="59.292">YTL CEMENT GROUP</text></g><!--cluster plant_org--><g id="cluster_plant_org"><rect fill="#FFE6E6" height="272" rx="2.5" ry="2.5" style="stroke:#181818;stroke-width:1.0;" width="586" x="409" y="95.2969"/><text fill="#000000" font-family="sans-serif" font-size="14" font-weight="bold" lengthAdjust="spacing" textLength="320" x="542" y="110.292">PAHANG CEMENT PLANT (Manufacturing)</text></g><!--cluster marketing_org--><g id="cluster_marketing_org"><rect fill="#E6E6FF" height="256" rx="2.5" ry="2.5" style="stroke:#181818;stroke-width:1.0;" width="346" x="31" y="103.2969"/><text fill="#000000" font-family="sans-serif" font-size="14" font-weight="bold" lengthAdjust="spacing" textLength="276" x="66" y="118.292">YTL CEMENT MARKETING COMPANY</text></g><!--cluster steering--><g id="cluster_steering"><rect fill="#FFFFCC" height="272" rx="2.5" ry="2.5" style="stroke:#181818;stroke-width:1.0;" width="456" x="1437" y="95.2969"/><text fill="#000000" font-family="sans-serif" font-size="14" font-weight="bold" lengthAdjust="spacing" textLength="171" x="1579.5" y="110.292">STEERING COMMITTEE</text></g><!--cluster proj_org--><g id="cluster_proj_org"><rect fill="#CCFFCC" height="330.5" rx="2.5" ry="2.5" style="stroke:#181818;stroke-width:1.0;" width="1522" x="2237" y="52.2969"/><text fill="#000000" font-family="sans-serif" font-size="14" font-weight="bold" lengthAdjust="spacing" textLength="190" x="2903" y="67.292">PROJECT ORGANIZATION</text></g><!--cluster Project Management--><g id="cluster_Project Management"><rect fill="none" height="114" rx="2.5" ry="2.5" style="stroke:#181818;stroke-width:1.0;" width="347" x="3372" y="103.2969"/><text fill="#000000" font-family="sans-serif" font-size="14" font-weight="bold" lengthAdjust="spacing" textLength="162" x="3464.5" y="118.292">Project Management</text></g><!--cluster Technical Stream--><g id="cluster_Technical Stream"><rect fill="none" height="239" rx="2.5" ry="2.5" style="stroke:#181818;stroke-width:1.0;" width="359" x="2989" y="111.7969"/><text fill="#000000" font-family="sans-serif" font-size="14" font-weight="bold" lengthAdjust="spacing" textLength="136" x="3100.5" y="126.792">Technical Stream</text></g><!--cluster Functional Stream--><g id="cluster_Functional Stream"><rect fill="none" height="239" rx="2.5" ry="2.5" style="stroke:#181818;stroke-width:1.0;" width="365" x="2600" y="111.7969"/><text fill="#000000" font-family="sans-serif" font-size="14" font-weight="bold" lengthAdjust="spacing" textLength="142" x="2711.5" y="126.792">Functional Stream</text></g><!--cluster Quality Assurance--><g id="cluster_Quality Assurance"><rect fill="none" height="97" rx="2.5" ry="2.5" style="stroke:#181818;stroke-width:1.0;" width="307" x="2269" y="111.7969"/><text fill="#000000" font-family="sans-serif" font-size="14" font-weight="bold" lengthAdjust="spacing" textLength="143" x="2351" y="126.792">Quality Assurance</text></g><!--cluster stakeholder--><g id="cluster_stakeholder"><rect fill="none" height="613.5" rx="2.5" ry="2.5" style="stroke:#181818;stroke-width:1.0;" width="756" x="4125" y="52.7969"/><text fill="#000000" font-family="sans-serif" font-size="14" font-weight="bold" lengthAdjust="spacing" textLength="194" x="4406" y="67.792">STAKEHOLDER ANALYSIS</text></g><!--cluster high_priority--><g id="cluster_high_priority"><rect fill="#FF9999" height="255" rx="2.5" ry="2.5" style="stroke:#181818;stroke-width:1.0;" width="285" x="4572" y="95.7969"/><text fill="#000000" font-family="sans-serif" font-size="14" font-weight="bold" lengthAdjust="spacing" textLength="113" x="4658" y="110.792">HIGH PRIORITY</text><text fill="#000000" font-family="sans-serif" font-size="14" font-weight="bold" lengthAdjust="spacing" textLength="141" x="4644" y="127.0889">(Decision Makers)</text></g><!--cluster med_priority--><g id="cluster_med_priority"><rect fill="#FFFF99" height="255" rx="2.5" ry="2.5" style="stroke:#181818;stroke-width:1.0;" width="399" x="4149" y="95.7969"/><text fill="#000000" font-family="sans-serif" font-size="14" font-weight="bold" lengthAdjust="spacing" textLength="136" x="4280.5" y="110.792">MEDIUM PRIORITY</text><text fill="#000000" font-family="sans-serif" font-size="14" font-weight="bold" lengthAdjust="spacing" textLength="114" x="4291.5" y="127.0889">(Power Users)</text></g><!--cluster ops_users--><g id="cluster_ops_users"><rect fill="#99FF99" height="219" rx="2.5" ry="2.5" style="stroke:#181818;stroke-width:1.0;" width="415" x="4442" y="423.2969"/><text fill="#000000" font-family="sans-serif" font-size="14" font-weight="bold" lengthAdjust="spacing" textLength="164" x="4567.5" y="438.292">OPERATIONAL USERS</text><text fill="#000000" font-family="sans-serif" font-size="14" font-weight="bold" lengthAdjust="spacing" textLength="100" x="4599.5" y="454.5889">(Daily Users)</text></g><!--cluster comms--><g id="cluster_comms"><rect fill="#E6E6FF" height="256" rx="2.5" ry="2.5" style="stroke:#181818;stroke-width:1.0;" width="439" x="4905" y="103.2969"/><text fill="#000000" font-family="sans-serif" font-size="14" font-weight="bold" lengthAdjust="spacing" textLength="180" x="5034.5" y="118.292">COMMUNICATION PLAN</text></g><!--entity plant_mgr--><g id="elem_plant_mgr"><rect fill="#F1F1F1" height="62.5938" rx="2.5" ry="2.5" style="stroke:#181818;stroke-width:0.5;" width="138" x="433" y="138.2969"/><rect fill="#F1F1F1" height="10" style="stroke:#181818;stroke-width:0.5;" width="15" x="551" y="143.2969"/><rect fill="#F1F1F1" height="2" style="stroke:#181818;stroke-width:0.5;" width="4" x="549" y="145.2969"/><rect fill="#F1F1F1" height="2" style="stroke:#181818;stroke-width:0.5;" width="4" x="549" y="149.2969"/><text fill="#000000" font-family="sans-serif" font-size="14" lengthAdjust="spacing" textLength="98" x="448" y="171.292">Plant Manager</text><text fill="#000000" font-family="sans-serif" font-size="14" lengthAdjust="spacing" textLength="54" x="448" y="187.5889">(1 user)</text></g><!--entity fin_team--><g id="elem_fin_team"><rect fill="#F1F1F1" height="62.5938" rx="2.5" ry="2.5" style="stroke:#181818;stroke-width:0.5;" width="137" x="606.5" y="138.2969"/><rect fill="#F1F1F1" height="10" style="stroke:#181818;stroke-width:0.5;" width="15" x="723.5" y="143.2969"/><rect fill="#F1F1F1" height="2" style="stroke:#181818;stroke-width:0.5;" width="4" x="721.5" y="145.2969"/><rect fill="#F1F1F1" height="2" style="stroke:#181818;stroke-width:0.5;" width="4" x="721.5" y="149.2969"/><text fill="#000000" font-family="sans-serif" font-size="14" lengthAdjust="spacing" textLength="97" x="621.5" y="171.292">Finance Team</text><text fill="#000000" font-family="sans-serif" font-size="14" lengthAdjust="spacing" textLength="62" x="621.5" y="187.5889">(9 users)</text></g><!--entity proc_team--><g id="elem_proc_team"><rect fill="#F1F1F1" height="62.5938" rx="2.5" ry="2.5" style="stroke:#181818;stroke-width:0.5;" width="173" x="778.5" y="138.2969"/><rect fill="#F1F1F1" height="10" style="stroke:#181818;stroke-width:0.5;" width="15" x="931.5" y="143.2969"/><rect fill="#F1F1F1" height="2" style="stroke:#181818;stroke-width:0.5;" width="4" x="929.5" y="145.2969"/><rect fill="#F1F1F1" height="2" style="stroke:#181818;stroke-width:0.5;" width="4" x="929.5" y="149.2969"/><text fill="#000000" font-family="sans-serif" font-size="14" lengthAdjust="spacing" textLength="133" x="793.5" y="171.292">Procurement Team</text><text fill="#000000" font-family="sans-serif" font-size="14" lengthAdjust="spacing" textLength="71" x="793.5" y="187.5889">(11 users)</text></g><!--entity prod_team--><g id="elem_prod_team"><rect fill="#F1F1F1" height="62.5938" rx="2.5" ry="2.5" style="stroke:#181818;stroke-width:0.5;" width="214" x="433" y="280.2969"/><rect fill="#F1F1F1" height="10" style="stroke:#181818;stroke-width:0.5;" width="15" x="627" y="285.2969"/><rect fill="#F1F1F1" height="2" style="stroke:#181818;stroke-width:0.5;" width="4" x="625" y="287.2969"/><rect fill="#F1F1F1" height="2" style="stroke:#181818;stroke-width:0.5;" width="4" x="625" y="291.2969"/><text fill="#000000" font-family="sans-serif" font-size="14" lengthAdjust="spacing" textLength="174" x="448" y="313.292">Production &amp; Warehouse</text><text fill="#000000" font-family="sans-serif" font-size="14" lengthAdjust="spacing" textLength="71" x="448" y="329.5889">(21 users)</text></g><!--entity mgmt_reports--><g id="elem_mgmt_reports"><rect fill="#F1F1F1" height="62.5938" rx="2.5" ry="2.5" style="stroke:#181818;stroke-width:0.5;" width="204" x="682" y="280.2969"/><rect fill="#F1F1F1" height="10" style="stroke:#181818;stroke-width:0.5;" width="15" x="866" y="285.2969"/><rect fill="#F1F1F1" height="2" style="stroke:#181818;stroke-width:0.5;" width="4" x="864" y="287.2969"/><rect fill="#F1F1F1" height="2" style="stroke:#181818;stroke-width:0.5;" width="4" x="864" y="291.2969"/><text fill="#000000" font-family="sans-serif" font-size="14" lengthAdjust="spacing" textLength="139" x="697" y="313.292">Senior Management</text><text fill="#000000" font-family="sans-serif" font-size="14" lengthAdjust="spacing" textLength="164" x="697" y="329.5889">(5 users - Reports Only)</text></g><!--entity sales_mgr--><g id="elem_sales_mgr"><rect fill="#F1F1F1" height="62.5938" rx="2.5" ry="2.5" style="stroke:#181818;stroke-width:0.5;" width="141" x="47.5" y="138.2969"/><rect fill="#F1F1F1" height="10" style="stroke:#181818;stroke-width:0.5;" width="15" x="168.5" y="143.2969"/><rect fill="#F1F1F1" height="2" style="stroke:#181818;stroke-width:0.5;" width="4" x="166.5" y="145.2969"/><rect fill="#F1F1F1" height="2" style="stroke:#181818;stroke-width:0.5;" width="4" x="166.5" y="149.2969"/><text fill="#000000" font-family="sans-serif" font-size="14" lengthAdjust="spacing" textLength="101" x="62.5" y="171.292">Sales Manager</text><text fill="#000000" font-family="sans-serif" font-size="14" lengthAdjust="spacing" textLength="54" x="62.5" y="187.5889">(1 user)</text></g><!--entity mkt_fin_team--><g id="elem_mkt_fin_team"><rect fill="#F1F1F1" height="62.5938" rx="2.5" ry="2.5" style="stroke:#181818;stroke-width:0.5;" width="137" x="223.5" y="138.2969"/><rect fill="#F1F1F1" height="10" style="stroke:#181818;stroke-width:0.5;" width="15" x="340.5" y="143.2969"/><rect fill="#F1F1F1" height="2" style="stroke:#181818;stroke-width:0.5;" width="4" x="338.5" y="145.2969"/><rect fill="#F1F1F1" height="2" style="stroke:#181818;stroke-width:0.5;" width="4" x="338.5" y="149.2969"/><text fill="#000000" font-family="sans-serif" font-size="14" lengthAdjust="spacing" textLength="97" x="238.5" y="171.292">Finance Team</text><text fill="#000000" font-family="sans-serif" font-size="14" lengthAdjust="spacing" textLength="62" x="238.5" y="187.5889">(3 users)</text></g><!--entity mkt_mgmt--><g id="elem_mkt_mgmt"><rect fill="#F1F1F1" height="62.5938" rx="2.5" ry="2.5" style="stroke:#181818;stroke-width:0.5;" width="204" x="47" y="280.2969"/><rect fill="#F1F1F1" height="10" style="stroke:#181818;stroke-width:0.5;" width="15" x="231" y="285.2969"/><rect fill="#F1F1F1" height="2" style="stroke:#181818;stroke-width:0.5;" width="4" x="229" y="287.2969"/><rect fill="#F1F1F1" height="2" style="stroke:#181818;stroke-width:0.5;" width="4" x="229" y="291.2969"/><text fill="#000000" font-family="sans-serif" font-size="14" lengthAdjust="spacing" textLength="139" x="62" y="313.292">Senior Management</text><text fill="#000000" font-family="sans-serif" font-size="14" lengthAdjust="spacing" textLength="164" x="62" y="329.5889">(0 users - No operation)</text></g><!--entity cfo--><g id="elem_cfo"><rect fill="#F1F1F1" height="62.5938" rx="2.5" ry="2.5" style="stroke:#181818;stroke-width:0.5;" width="166" x="1461" y="138.2969"/><rect fill="#F1F1F1" height="10" style="stroke:#181818;stroke-width:0.5;" width="15" x="1607" y="143.2969"/><rect fill="#F1F1F1" height="2" style="stroke:#181818;stroke-width:0.5;" width="4" x="1605" y="145.2969"/><rect fill="#F1F1F1" height="2" style="stroke:#181818;stroke-width:0.5;" width="4" x="1605" y="149.2969"/><text fill="#000000" font-family="sans-serif" font-size="14" lengthAdjust="spacing" textLength="29" x="1476" y="171.292">CFO</text><text fill="#000000" font-family="sans-serif" font-size="14" lengthAdjust="spacing" textLength="126" x="1476" y="187.5889">(Finance Sponsor)</text></g><!--entity coo--><g id="elem_coo"><rect fill="#F1F1F1" height="62.5938" rx="2.5" ry="2.5" style="stroke:#181818;stroke-width:0.5;" width="188" x="1662" y="138.2969"/><rect fill="#F1F1F1" height="10" style="stroke:#181818;stroke-width:0.5;" width="15" x="1830" y="143.2969"/><rect fill="#F1F1F1" height="2" style="stroke:#181818;stroke-width:0.5;" width="4" x="1828" y="145.2969"/><rect fill="#F1F1F1" height="2" style="stroke:#181818;stroke-width:0.5;" width="4" x="1828" y="149.2969"/><text fill="#000000" font-family="sans-serif" font-size="14" lengthAdjust="spacing" textLength="32" x="1677" y="171.292">COO</text><text fill="#000000" font-family="sans-serif" font-size="14" lengthAdjust="spacing" textLength="148" x="1677" y="187.5889">(Operations Sponsor)</text></g><!--entity cio--><g id="elem_cio"><rect fill="#F1F1F1" height="62.5938" rx="2.5" ry="2.5" style="stroke:#181818;stroke-width:0.5;" width="193" x="1461.5" y="280.2969"/><rect fill="#F1F1F1" height="10" style="stroke:#181818;stroke-width:0.5;" width="15" x="1634.5" y="285.2969"/><rect fill="#F1F1F1" height="2" style="stroke:#181818;stroke-width:0.5;" width="4" x="1632.5" y="287.2969"/><rect fill="#F1F1F1" height="2" style="stroke:#181818;stroke-width:0.5;" width="4" x="1632.5" y="291.2969"/><text fill="#000000" font-family="sans-serif" font-size="14" lengthAdjust="spacing" textLength="24" x="1476.5" y="313.292">CIO</text><text fill="#000000" font-family="sans-serif" font-size="14" lengthAdjust="spacing" textLength="153" x="1476.5" y="329.5889">(Technology Sponsor)</text></g><!--entity plant_lead--><g id="elem_plant_lead"><rect fill="#F1F1F1" height="62.5938" rx="2.5" ry="2.5" style="stroke:#181818;stroke-width:0.5;" width="151" x="1689.5" y="280.2969"/><rect fill="#F1F1F1" height="10" style="stroke:#181818;stroke-width:0.5;" width="15" x="1820.5" y="285.2969"/><rect fill="#F1F1F1" height="2" style="stroke:#181818;stroke-width:0.5;" width="4" x="1818.5" y="287.2969"/><rect fill="#F1F1F1" height="2" style="stroke:#181818;stroke-width:0.5;" width="4" x="1818.5" y="291.2969"/><text fill="#000000" font-family="sans-serif" font-size="14" lengthAdjust="spacing" textLength="98" x="1704.5" y="313.292">Plant Manager</text><text fill="#000000" font-family="sans-serif" font-size="14" lengthAdjust="spacing" textLength="111" x="1704.5" y="329.5889">(Business Lead)</text></g><!--entity pm--><g id="elem_pm"><rect fill="#F1F1F1" height="62.5938" rx="2.5" ry="2.5" style="stroke:#181818;stroke-width:0.5;" width="152" x="3551" y="138.2969"/><rect fill="#F1F1F1" height="10" style="stroke:#181818;stroke-width:0.5;" width="15" x="3683" y="143.2969"/><rect fill="#F1F1F1" height="2" style="stroke:#181818;stroke-width:0.5;" width="4" x="3681" y="145.2969"/><rect fill="#F1F1F1" height="2" style="stroke:#181818;stroke-width:0.5;" width="4" x="3681" y="149.2969"/><text fill="#000000" font-family="sans-serif" font-size="14" lengthAdjust="spacing" textLength="112" x="3566" y="171.292">Project Manager</text><text fill="#000000" font-family="sans-serif" font-size="14" lengthAdjust="spacing" textLength="59" x="3566" y="187.5889">(SI Lead)</text></g><!--entity apm--><g id="elem_apm"><rect fill="#F1F1F1" height="62.5938" rx="2.5" ry="2.5" style="stroke:#181818;stroke-width:0.5;" width="128" x="3388" y="138.2969"/><rect fill="#F1F1F1" height="10" style="stroke:#181818;stroke-width:0.5;" width="15" x="3496" y="143.2969"/><rect fill="#F1F1F1" height="2" style="stroke:#181818;stroke-width:0.5;" width="4" x="3494" y="145.2969"/><rect fill="#F1F1F1" height="2" style="stroke:#181818;stroke-width:0.5;" width="4" x="3494" y="149.2969"/><text fill="#000000" font-family="sans-serif" font-size="14" lengthAdjust="spacing" textLength="88" x="3403" y="171.292">Assistant PM</text><text fill="#000000" font-family="sans-serif" font-size="14" lengthAdjust="spacing" textLength="86" x="3403" y="187.5889">(Client Lead)</text></g><!--entity tech_lead--><g id="elem_tech_lead"><rect fill="#F1F1F1" height="46.2969" rx="2.5" ry="2.5" style="stroke:#181818;stroke-width:0.5;" width="143" x="3005.5" y="146.7969"/><rect fill="#F1F1F1" height="10" style="stroke:#181818;stroke-width:0.5;" width="15" x="3128.5" y="151.7969"/><rect fill="#F1F1F1" height="2" style="stroke:#181818;stroke-width:0.5;" width="4" x="3126.5" y="153.7969"/><rect fill="#F1F1F1" height="2" style="stroke:#181818;stroke-width:0.5;" width="4" x="3126.5" y="157.7969"/><text fill="#000000" font-family="sans-serif" font-size="14" lengthAdjust="spacing" textLength="103" x="3020.5" y="179.792">Technical Lead</text></g><!--entity dev_lead--><g id="elem_dev_lead"><rect fill="#F1F1F1" height="46.2969" rx="2.5" ry="2.5" style="stroke:#181818;stroke-width:0.5;" width="148" x="3184" y="146.7969"/><rect fill="#F1F1F1" height="10" style="stroke:#181818;stroke-width:0.5;" width="15" x="3312" y="151.7969"/><rect fill="#F1F1F1" height="2" style="stroke:#181818;stroke-width:0.5;" width="4" x="3310" y="153.7969"/><rect fill="#F1F1F1" height="2" style="stroke:#181818;stroke-width:0.5;" width="4" x="3310" y="157.7969"/><text fill="#000000" font-family="sans-serif" font-size="14" lengthAdjust="spacing" textLength="108" x="3199" y="179.792">Lead Developer</text></g><!--entity dba--><g id="elem_dba"><rect fill="#F1F1F1" height="46.2969" rx="2.5" ry="2.5" style="stroke:#181818;stroke-width:0.5;" width="70" x="3042" y="288.7969"/><rect fill="#F1F1F1" height="10" style="stroke:#181818;stroke-width:0.5;" width="15" x="3092" y="293.7969"/><rect fill="#F1F1F1" height="2" style="stroke:#181818;stroke-width:0.5;" width="4" x="3090" y="295.7969"/><rect fill="#F1F1F1" height="2" style="stroke:#181818;stroke-width:0.5;" width="4" x="3090" y="299.7969"/><text fill="#000000" font-family="sans-serif" font-size="14" lengthAdjust="spacing" textLength="30" x="3057" y="321.792">DBA</text></g><!--entity infra_lead--><g id="elem_infra_lead"><rect fill="#F1F1F1" height="46.2969" rx="2.5" ry="2.5" style="stroke:#181818;stroke-width:0.5;" width="169" x="3147.5" y="288.7969"/><rect fill="#F1F1F1" height="10" style="stroke:#181818;stroke-width:0.5;" width="15" x="3296.5" y="293.7969"/><rect fill="#F1F1F1" height="2" style="stroke:#181818;stroke-width:0.5;" width="4" x="3294.5" y="295.7969"/><rect fill="#F1F1F1" height="2" style="stroke:#181818;stroke-width:0.5;" width="4" x="3294.5" y="299.7969"/><text fill="#000000" font-family="sans-serif" font-size="14" lengthAdjust="spacing" textLength="129" x="3162.5" y="321.792">Infrastructure Lead</text></g><!--entity fin_lead--><g id="elem_fin_lead"><rect fill="#F1F1F1" height="46.2969" rx="2.5" ry="2.5" style="stroke:#181818;stroke-width:0.5;" width="131" x="2616.5" y="146.7969"/><rect fill="#F1F1F1" height="10" style="stroke:#181818;stroke-width:0.5;" width="15" x="2727.5" y="151.7969"/><rect fill="#F1F1F1" height="2" style="stroke:#181818;stroke-width:0.5;" width="4" x="2725.5" y="153.7969"/><rect fill="#F1F1F1" height="2" style="stroke:#181818;stroke-width:0.5;" width="4" x="2725.5" y="157.7969"/><text fill="#000000" font-family="sans-serif" font-size="14" lengthAdjust="spacing" textLength="91" x="2631.5" y="179.792">Finance Lead</text></g><!--entity proc_lead--><g id="elem_proc_lead"><rect fill="#F1F1F1" height="46.2969" rx="2.5" ry="2.5" style="stroke:#181818;stroke-width:0.5;" width="167" x="2782.5" y="146.7969"/><rect fill="#F1F1F1" height="10" style="stroke:#181818;stroke-width:0.5;" width="15" x="2929.5" y="151.7969"/><rect fill="#F1F1F1" height="2" style="stroke:#181818;stroke-width:0.5;" width="4" x="2927.5" y="153.7969"/><rect fill="#F1F1F1" height="2" style="stroke:#181818;stroke-width:0.5;" width="4" x="2927.5" y="157.7969"/><text fill="#000000" font-family="sans-serif" font-size="14" lengthAdjust="spacing" textLength="127" x="2797.5" y="179.792">Procurement Lead</text></g><!--entity prod_lead--><g id="elem_prod_lead"><rect fill="#F1F1F1" height="46.2969" rx="2.5" ry="2.5" style="stroke:#181818;stroke-width:0.5;" width="152" x="2616" y="288.7969"/><rect fill="#F1F1F1" height="10" style="stroke:#181818;stroke-width:0.5;" width="15" x="2748" y="293.7969"/><rect fill="#F1F1F1" height="2" style="stroke:#181818;stroke-width:0.5;" width="4" x="2746" y="295.7969"/><rect fill="#F1F1F1" height="2" style="stroke:#181818;stroke-width:0.5;" width="4" x="2746" y="299.7969"/><text fill="#000000" font-family="sans-serif" font-size="14" lengthAdjust="spacing" textLength="112" x="2631" y="321.792">Production Lead</text></g><!--entity sales_lead--><g id="elem_sales_lead"><rect fill="#F1F1F1" height="46.2969" rx="2.5" ry="2.5" style="stroke:#181818;stroke-width:0.5;" width="114" x="2803" y="288.7969"/><rect fill="#F1F1F1" height="10" style="stroke:#181818;stroke-width:0.5;" width="15" x="2897" y="293.7969"/><rect fill="#F1F1F1" height="2" style="stroke:#181818;stroke-width:0.5;" width="4" x="2895" y="295.7969"/><rect fill="#F1F1F1" height="2" style="stroke:#181818;stroke-width:0.5;" width="4" x="2895" y="299.7969"/><text fill="#000000" font-family="sans-serif" font-size="14" lengthAdjust="spacing" textLength="74" x="2818" y="321.792">Sales Lead</text></g><!--entity qa_lead--><g id="elem_qa_lead"><rect fill="#F1F1F1" height="46.2969" rx="2.5" ry="2.5" style="stroke:#181818;stroke-width:0.5;" width="97" x="2463.5" y="146.7969"/><rect fill="#F1F1F1" height="10" style="stroke:#181818;stroke-width:0.5;" width="15" x="2540.5" y="151.7969"/><rect fill="#F1F1F1" height="2" style="stroke:#181818;stroke-width:0.5;" width="4" x="2538.5" y="153.7969"/><rect fill="#F1F1F1" height="2" style="stroke:#181818;stroke-width:0.5;" width="4" x="2538.5" y="157.7969"/><text fill="#000000" font-family="sans-serif" font-size="14" lengthAdjust="spacing" textLength="57" x="2478.5" y="179.792">QA Lead</text></g><!--entity test_mgrs--><g id="elem_test_mgrs"><rect fill="#F1F1F1" height="46.2969" rx="2.5" ry="2.5" style="stroke:#181818;stroke-width:0.5;" width="143" x="2285.5" y="146.7969"/><rect fill="#F1F1F1" height="10" style="stroke:#181818;stroke-width:0.5;" width="15" x="2408.5" y="151.7969"/><rect fill="#F1F1F1" height="2" style="stroke:#181818;stroke-width:0.5;" width="4" x="2406.5" y="153.7969"/><rect fill="#F1F1F1" height="2" style="stroke:#181818;stroke-width:0.5;" width="4" x="2406.5" y="157.7969"/><text fill="#000000" font-family="sans-serif" font-size="14" lengthAdjust="spacing" textLength="103" x="2300.5" y="179.792">Test Managers</text></g><!--entity cfo_sp--><g id="elem_cfo_sp"><rect fill="#F1F1F1" height="46.2969" rx="2.5" ry="2.5" style="stroke:#181818;stroke-width:0.5;" width="69" x="4588.5" y="146.7969"/><rect fill="#F1F1F1" height="10" style="stroke:#181818;stroke-width:0.5;" width="15" x="4637.5" y="151.7969"/><rect fill="#F1F1F1" height="2" style="stroke:#181818;stroke-width:0.5;" width="4" x="4635.5" y="153.7969"/><rect fill="#F1F1F1" height="2" style="stroke:#181818;stroke-width:0.5;" width="4" x="4635.5" y="157.7969"/><text fill="#000000" font-family="sans-serif" font-size="14" lengthAdjust="spacing" textLength="29" x="4603.5" y="179.792">CFO</text></g><!--entity coo_sp--><g id="elem_coo_sp"><rect fill="#F1F1F1" height="46.2969" rx="2.5" ry="2.5" style="stroke:#181818;stroke-width:0.5;" width="72" x="4693" y="146.7969"/><rect fill="#F1F1F1" height="10" style="stroke:#181818;stroke-width:0.5;" width="15" x="4745" y="151.7969"/><rect fill="#F1F1F1" height="2" style="stroke:#181818;stroke-width:0.5;" width="4" x="4743" y="153.7969"/><rect fill="#F1F1F1" height="2" style="stroke:#181818;stroke-width:0.5;" width="4" x="4743" y="157.7969"/><text fill="#000000" font-family="sans-serif" font-size="14" lengthAdjust="spacing" textLength="32" x="4708" y="179.792">COO</text></g><!--entity cio_sp--><g id="elem_cio_sp"><rect fill="#F1F1F1" height="46.2969" rx="2.5" ry="2.5" style="stroke:#181818;stroke-width:0.5;" width="64" x="4588" y="288.7969"/><rect fill="#F1F1F1" height="10" style="stroke:#181818;stroke-width:0.5;" width="15" x="4632" y="293.7969"/><rect fill="#F1F1F1" height="2" style="stroke:#181818;stroke-width:0.5;" width="4" x="4630" y="295.7969"/><rect fill="#F1F1F1" height="2" style="stroke:#181818;stroke-width:0.5;" width="4" x="4630" y="299.7969"/><text fill="#000000" font-family="sans-serif" font-size="14" lengthAdjust="spacing" textLength="24" x="4603" y="321.792">CIO</text></g><!--entity fin_dir--><g id="elem_fin_dir"><rect fill="#F1F1F1" height="46.2969" rx="2.5" ry="2.5" style="stroke:#181818;stroke-width:0.5;" width="153" x="4687.5" y="288.7969"/><rect fill="#F1F1F1" height="10" style="stroke:#181818;stroke-width:0.5;" width="15" x="4820.5" y="293.7969"/><rect fill="#F1F1F1" height="2" style="stroke:#181818;stroke-width:0.5;" width="4" x="4818.5" y="295.7969"/><rect fill="#F1F1F1" height="2" style="stroke:#181818;stroke-width:0.5;" width="4" x="4818.5" y="299.7969"/><text fill="#000000" font-family="sans-serif" font-size="14" lengthAdjust="spacing" textLength="113" x="4702.5" y="321.792">Finance Director</text></g><!--entity proc_mgr_sp--><g id="elem_proc_mgr_sp"><rect fill="#F1F1F1" height="46.2969" rx="2.5" ry="2.5" style="stroke:#181818;stroke-width:0.5;" width="194" x="4165" y="146.7969"/><rect fill="#F1F1F1" height="10" style="stroke:#181818;stroke-width:0.5;" width="15" x="4339" y="151.7969"/><rect fill="#F1F1F1" height="2" style="stroke:#181818;stroke-width:0.5;" width="4" x="4337" y="153.7969"/><rect fill="#F1F1F1" height="2" style="stroke:#181818;stroke-width:0.5;" width="4" x="4337" y="157.7969"/><text fill="#000000" font-family="sans-serif" font-size="14" lengthAdjust="spacing" textLength="154" x="4180" y="179.792">Procurement Manager</text></g><!--entity plant_mgr_sp--><g id="elem_plant_mgr_sp"><rect fill="#F1F1F1" height="46.2969" rx="2.5" ry="2.5" style="stroke:#181818;stroke-width:0.5;" width="138" x="4394" y="146.7969"/><rect fill="#F1F1F1" height="10" style="stroke:#181818;stroke-width:0.5;" width="15" x="4512" y="151.7969"/><rect fill="#F1F1F1" height="2" style="stroke:#181818;stroke-width:0.5;" width="4" x="4510" y="153.7969"/><rect fill="#F1F1F1" height="2" style="stroke:#181818;stroke-width:0.5;" width="4" x="4510" y="157.7969"/><text fill="#000000" font-family="sans-serif" font-size="14" lengthAdjust="spacing" textLength="98" x="4409" y="179.792">Plant Manager</text></g><!--entity sales_mgr_sp--><g id="elem_sales_mgr_sp"><rect fill="#F1F1F1" height="46.2969" rx="2.5" ry="2.5" style="stroke:#181818;stroke-width:0.5;" width="141" x="4173.5" y="288.7969"/><rect fill="#F1F1F1" height="10" style="stroke:#181818;stroke-width:0.5;" width="15" x="4294.5" y="293.7969"/><rect fill="#F1F1F1" height="2" style="stroke:#181818;stroke-width:0.5;" width="4" x="4292.5" y="295.7969"/><rect fill="#F1F1F1" height="2" style="stroke:#181818;stroke-width:0.5;" width="4" x="4292.5" y="299.7969"/><text fill="#000000" font-family="sans-serif" font-size="14" lengthAdjust="spacing" textLength="101" x="4188.5" y="321.792">Sales Manager</text></g><!--entity acc_mgr_sp--><g id="elem_acc_mgr_sp"><rect fill="#F1F1F1" height="46.2969" rx="2.5" ry="2.5" style="stroke:#181818;stroke-width:0.5;" width="182" x="4350" y="288.7969"/><rect fill="#F1F1F1" height="10" style="stroke:#181818;stroke-width:0.5;" width="15" x="4512" y="293.7969"/><rect fill="#F1F1F1" height="2" style="stroke:#181818;stroke-width:0.5;" width="4" x="4510" y="295.7969"/><rect fill="#F1F1F1" height="2" style="stroke:#181818;stroke-width:0.5;" width="4" x="4510" y="299.7969"/><text fill="#000000" font-family="sans-serif" font-size="14" lengthAdjust="spacing" textLength="142" x="4365" y="321.792">Accounting Manager</text></g><!--entity fin_staff_sp--><g id="elem_fin_staff_sp"><rect fill="#F1F1F1" height="46.2969" rx="2.5" ry="2.5" style="stroke:#181818;stroke-width:0.5;" width="151" x="4458.5" y="474.2969"/><rect fill="#F1F1F1" height="10" style="stroke:#181818;stroke-width:0.5;" width="15" x="4589.5" y="479.2969"/><rect fill="#F1F1F1" height="2" style="stroke:#181818;stroke-width:0.5;" width="4" x="4587.5" y="481.2969"/><rect fill="#F1F1F1" height="2" style="stroke:#181818;stroke-width:0.5;" width="4" x="4587.5" y="485.2969"/><text fill="#000000" font-family="sans-serif" font-size="14" lengthAdjust="spacing" textLength="111" x="4473.5" y="507.292">Finance Staff (9)</text></g><!--entity proc_staff_sp--><g id="elem_proc_staff_sp"><rect fill="#F1F1F1" height="46.2969" rx="2.5" ry="2.5" style="stroke:#181818;stroke-width:0.5;" width="196" x="4645" y="474.2969"/><rect fill="#F1F1F1" height="10" style="stroke:#181818;stroke-width:0.5;" width="15" x="4821" y="479.2969"/><rect fill="#F1F1F1" height="2" style="stroke:#181818;stroke-width:0.5;" width="4" x="4819" y="481.2969"/><rect fill="#F1F1F1" height="2" style="stroke:#181818;stroke-width:0.5;" width="4" x="4819" y="485.2969"/><text fill="#000000" font-family="sans-serif" font-size="14" lengthAdjust="spacing" textLength="156" x="4660" y="507.292">Procurement Staff (11)</text></g><!--entity prod_staff_sp--><g id="elem_prod_staff_sp"><rect fill="#F1F1F1" height="46.2969" rx="2.5" ry="2.5" style="stroke:#181818;stroke-width:0.5;" width="181" x="4458.5" y="580.2969"/><rect fill="#F1F1F1" height="10" style="stroke:#181818;stroke-width:0.5;" width="15" x="4619.5" y="585.2969"/><rect fill="#F1F1F1" height="2" style="stroke:#181818;stroke-width:0.5;" width="4" x="4617.5" y="587.2969"/><rect fill="#F1F1F1" height="2" style="stroke:#181818;stroke-width:0.5;" width="4" x="4617.5" y="591.2969"/><text fill="#000000" font-family="sans-serif" font-size="14" lengthAdjust="spacing" textLength="141" x="4473.5" y="613.292">Production Staff (21)</text></g><!--entity mkt_staff_sp--><g id="elem_mkt_staff_sp"><rect fill="#F1F1F1" height="46.2969" rx="2.5" ry="2.5" style="stroke:#181818;stroke-width:0.5;" width="165" x="4674.5" y="580.2969"/><rect fill="#F1F1F1" height="10" style="stroke:#181818;stroke-width:0.5;" width="15" x="4819.5" y="585.2969"/><rect fill="#F1F1F1" height="2" style="stroke:#181818;stroke-width:0.5;" width="4" x="4817.5" y="587.2969"/><rect fill="#F1F1F1" height="2" style="stroke:#181818;stroke-width:0.5;" width="4" x="4817.5" y="591.2969"/><text fill="#000000" font-family="sans-serif" font-size="14" lengthAdjust="spacing" textLength="125" x="4689.5" y="613.292">Marketing Staff (3)</text></g><!--entity steer_comm--><g id="elem_steer_comm"><rect fill="#F1F1F1" height="62.5938" rx="2.5" ry="2.5" style="stroke:#181818;stroke-width:0.5;" width="202" x="4921" y="138.2969"/><rect fill="#F1F1F1" height="10" style="stroke:#181818;stroke-width:0.5;" width="15" x="5103" y="143.2969"/><rect fill="#F1F1F1" height="2" style="stroke:#181818;stroke-width:0.5;" width="4" x="5101" y="145.2969"/><rect fill="#F1F1F1" height="2" style="stroke:#181818;stroke-width:0.5;" width="4" x="5101" y="149.2969"/><text fill="#000000" font-family="sans-serif" font-size="14" lengthAdjust="spacing" textLength="143" x="4936" y="171.292">Steering Committee:</text><text fill="#000000" font-family="sans-serif" font-size="14" lengthAdjust="spacing" textLength="162" x="4936" y="187.5889">Weekly Executive Briefs</text></g><!--entity func_comm--><g id="elem_func_comm"><rect fill="#F1F1F1" height="62.5938" rx="2.5" ry="2.5" style="stroke:#181818;stroke-width:0.5;" width="170" x="5158" y="138.2969"/><rect fill="#F1F1F1" height="10" style="stroke:#181818;stroke-width:0.5;" width="15" x="5308" y="143.2969"/><rect fill="#F1F1F1" height="2" style="stroke:#181818;stroke-width:0.5;" width="4" x="5306" y="145.2969"/><rect fill="#F1F1F1" height="2" style="stroke:#181818;stroke-width:0.5;" width="4" x="5306" y="149.2969"/><text fill="#000000" font-family="sans-serif" font-size="14" lengthAdjust="spacing" textLength="121" x="5173" y="171.292">Functional Leads:</text><text fill="#000000" font-family="sans-serif" font-size="14" lengthAdjust="spacing" textLength="130" x="5173" y="187.5889">Twice Weekly Sync</text></g><!--entity daily_standup--><g id="elem_daily_standup"><rect fill="#F1F1F1" height="62.5938" rx="2.5" ry="2.5" style="stroke:#181818;stroke-width:0.5;" width="155" x="4944.5" y="280.2969"/><rect fill="#F1F1F1" height="10" style="stroke:#181818;stroke-width:0.5;" width="15" x="5079.5" y="285.2969"/><rect fill="#F1F1F1" height="2" style="stroke:#181818;stroke-width:0.5;" width="4" x="5077.5" y="287.2969"/><rect fill="#F1F1F1" height="2" style="stroke:#181818;stroke-width:0.5;" width="4" x="5077.5" y="291.2969"/><text fill="#000000" font-family="sans-serif" font-size="14" lengthAdjust="spacing" textLength="115" x="4959.5" y="313.292">All Project Team:</text><text fill="#000000" font-family="sans-serif" font-size="14" lengthAdjust="spacing" textLength="99" x="4959.5" y="329.5889">Daily Stand-up</text></g><!--entity user_training--><g id="elem_user_training"><rect fill="#F1F1F1" height="62.5938" rx="2.5" ry="2.5" style="stroke:#181818;stroke-width:0.5;" width="159" x="5134.5" y="280.2969"/><rect fill="#F1F1F1" height="10" style="stroke:#181818;stroke-width:0.5;" width="15" x="5273.5" y="285.2969"/><rect fill="#F1F1F1" height="2" style="stroke:#181818;stroke-width:0.5;" width="4" x="5271.5" y="287.2969"/><rect fill="#F1F1F1" height="2" style="stroke:#181818;stroke-width:0.5;" width="4" x="5271.5" y="291.2969"/><text fill="#000000" font-family="sans-serif" font-size="14" lengthAdjust="spacing" textLength="119" x="5149.5" y="313.292">User Community:</text><text fill="#000000" font-family="sans-serif" font-size="14" lengthAdjust="spacing" textLength="108" x="5149.5" y="329.5889">Weekly Training</text></g><g id="elem_GMN56"><path d="M1043.5,261.2969 L1043.5,362.0938 L1412.5,362.0938 L1412.5,271.2969 L1402.5,261.2969 L1043.5,261.2969 " fill="#FEFFDD" style="stroke:#181818;stroke-width:0.5;"/><path d="M1402.5,261.2969 L1402.5,271.2969 L1412.5,271.2969 L1402.5,261.2969 " fill="#FEFFDD" style="stroke:#181818;stroke-width:1.0;"/><text fill="#000000" font-family="sans-serif" font-size="13" font-weight="bold" lengthAdjust="spacing" textLength="193" x="1049.5" y="278.3638">User Distribution Phase 1:</text><text fill="#000000" font-family="sans-serif" font-size="13" lengthAdjust="spacing" textLength="283" x="1049.5" y="293.4966">Total: 46 users (Plant) + 3 users (Marketing)</text><text fill="#000000" font-family="sans-serif" font-size="13" lengthAdjust="spacing" textLength="348" x="1049.5" y="308.6294">- Finance: 9 users (GL, AP, AR posting &amp; reconciliation)</text><text fill="#000000" font-family="sans-serif" font-size="13" lengthAdjust="spacing" textLength="327" x="1049.5" y="323.7622">- Procurement: 11 users (PR, PO, Invoice matching)</text><text fill="#000000" font-family="sans-serif" font-size="13" lengthAdjust="spacing" textLength="343" x="1049.5" y="338.895">- Production: 21 users (MO creation, consumption, GI)</text><text fill="#000000" font-family="sans-serif" font-size="13" lengthAdjust="spacing" textLength="292" x="1049.5" y="354.0278">- Reports: 5 users (Management viewing only)</text></g><g id="elem_GMN59"><path d="M1917.5,261.2969 L1917.5,362.0938 L2212.5,362.0938 L2212.5,271.2969 L2202.5,261.2969 L1917.5,261.2969 " fill="#FEFFDD" style="stroke:#181818;stroke-width:0.5;"/><path d="M2202.5,261.2969 L2202.5,271.2969 L2212.5,271.2969 L2202.5,261.2969 " fill="#FEFFDD" style="stroke:#181818;stroke-width:1.0;"/><text fill="#000000" font-family="sans-serif" font-size="13" font-weight="bold" lengthAdjust="spacing" textLength="274" x="1923.5" y="278.3638">Steering Committee Responsibilities:</text><text fill="#000000" font-family="sans-serif" font-size="13" lengthAdjust="spacing" textLength="189" x="1923.5" y="293.4966">- Budget &amp; resource approval</text><text fill="#000000" font-family="sans-serif" font-size="13" lengthAdjust="spacing" textLength="186" x="1923.5" y="308.6294">- Risk escalation &amp; mitigation</text><text fill="#000000" font-family="sans-serif" font-size="13" lengthAdjust="spacing" textLength="216" x="1923.5" y="323.7622">- Schedule &amp; scope management</text><text fill="#000000" font-family="sans-serif" font-size="13" lengthAdjust="spacing" textLength="176" x="1923.5" y="338.895">- Executive status reporting</text><text fill="#000000" font-family="sans-serif" font-size="13" lengthAdjust="spacing" textLength="112" x="1923.5" y="354.0278">- Go-live approval</text></g><g id="elem_GMN62"><path d="M3783,276.2969 L3783,346.8281 L4109,346.8281 L4109,286.2969 L4099,276.2969 L3783,276.2969 " fill="#FEFFDD" style="stroke:#181818;stroke-width:0.5;"/><path d="M4099,276.2969 L4099,286.2969 L4109,286.2969 L4099,276.2969 " fill="#FEFFDD" style="stroke:#181818;stroke-width:1.0;"/><text fill="#000000" font-family="sans-serif" font-size="13" font-weight="bold" lengthAdjust="spacing" textLength="137" x="3789" y="293.3638">Project Team Size:</text><text fill="#000000" font-family="sans-serif" font-size="13" lengthAdjust="spacing" textLength="191" x="3789" y="308.4966">- SI: ~15-20 FTE (consultants)</text><text fill="#000000" font-family="sans-serif" font-size="13" lengthAdjust="spacing" textLength="226" x="3789" y="323.6294">- Client: ~10-15 FTE (business + IT)</text><text fill="#000000" font-family="sans-serif" font-size="13" lengthAdjust="spacing" textLength="305" x="3789" y="338.7622">- Total: ~30-35 FTE for 18-week implementation</text></g><!--link plant_org to GMN56--><g id="link_plant_org_GMN56"><path d="M995.0192,175.4597 C995.453,175.7116 995.9028,175.9728 996.3682,176.2431 C998.2301,177.3244 1000.3429,178.5514 1002.6822,179.91 C1012.0394,185.3444 1025.0213,192.8844 1040.0725,201.6269 C1070.175,219.1119 1108.555,241.4069 1142.77,261.2869 " fill="none" id="plant_org-GMN56" style="stroke:#181818;stroke-width:1.0;stroke-dasharray:7.0,7.0;"/></g><!--link steering to GMN59--><g id="link_steering_GMN59"><path d="M1893.2639,177.2228 C1893.4485,177.3663 1893.6358,177.5121 1893.8259,177.6599 C1894.2061,177.9556 1894.5972,178.2598 1894.9989,178.5723 C1895.8024,179.1973 1896.6485,179.8553 1897.535,180.5448 C1904.6269,186.0609 1914.305,193.5888 1925.4575,202.2631 C1947.7625,219.6119 1975.965,241.5469 2001.17,261.1469 " fill="none" id="steering-GMN59" style="stroke:#181818;stroke-width:1.0;stroke-dasharray:7.0,7.0;"/></g><!--link proj_org to GMN62--><g id="link_proj_org_GMN62"><path d="M3759.228,176.7027 C3759.446,176.8592 3759.6679,177.0185 3759.8936,177.1805 C3760.3451,177.5046 3760.8119,177.8397 3761.2936,178.1856 C3763.2206,179.569 3765.3865,181.124 3767.7641,182.8309 C3777.2744,189.6588 3790.1712,198.9181 3804.7075,209.3544 C3833.78,230.2269 3869.41,255.8069 3897.62,276.0569 " fill="none" id="proj_org-GMN62" style="stroke:#181818;stroke-width:1.0;stroke-dasharray:7.0,7.0;"/></g><!--SRC=[ZLTjKziu4FxEhzYXCnsWP8R0qJdopGGd-9h4QMocmxrCHZXAqCMMV98CfJVjRx-LP3kECPsZKwQMdcUr- -ngjTLCfnJkumaCQKQvXXw4SaCu-qOq4nmYBOj45vB2U_mtsT97aQweX2dHadqzK5l6So991WyasMwaAFXgA58XuTteqlmvE90qqOHly9H3Uum_zMSnZ1VXtVmG_Zqu06WWvjwjDnjNeFd4mzz7KyABDJ5UCBuvFWIY84y9rqiXDtZEoF_eVqHBW3-9o7B1JHn_p0q4_UHaG-MV_AWFXQBo-AyTFTl8Dcd4EE49XPYI33bNbgCSQStuKkFwguEaI50Wgrx9w_URn1m1Rp5NgAxH-Jry8HB5HHhopzlyLIS_efm9MSPepaVgfMDY7XSq5r8h27dwuWnbcqmlfLj6MzzRuZVIC_KMd_muCAa8ftDlTczLpuZSKer9SCeRtKUZryf79ANg3UMLsViVobyq1SYsUlcM-bqQdDKQp0I8d4fRopjRHWSN__Uz-enYtr-KGK-36Bzis4fJQahFrDfeD1pQY1ik34SX7be54E6o4cMuoLgqiA71XfLFgWKNRNXWu35D7ZdUgirB2yvQy7RDNnUASQeKJ2XPDKi_nUzMyFD5-9i_Z25SZBrPyBiN1-7ii2o_lrt2XyCw_2OHz_6haOB3Zjku1pA-HK7JgrTvzPHYIfjmvbD43rDcbdSCOYdj4hPAiOIafd5XjNHuieCOOzQMnYKdIGjh4713dsXggiXYL_If4tfpxRdz1zBU2lXQ4bKtqlfOPjOhO-r8HWMtdU5deLGbLriqbwJBkMQBgi6sBRs1hjfI4xpg1BlBNkFS_NuZfiy5IPb-0Snj8Otd7J5zzdR6_Y6THyPKrOMaoWGgsyvTLsjVQk-JVnjERlm5U3DlSXy5KNcjTyzPgwHlW_4jp1T1k0ZYUwo-6vemPVIO8WMxakK_iitZCfVOVKnCs1kkyETrGDWTgbQmLFchtJ2iRdxNRX1M5xrZjqh_3JEk2rcNm8h93lMd_armDss6DHVF6FkTgaFAw6el8XDJvrskgwbCmwwWC0iThkurflqdk0Ezzu3iFniTQ2z9SEmmpz8UXIGDPzfQX7D_OJkSDu6xo5z49ic4fIzDDKIkbkuXUNTrrIr5tVGrMQ_Xw6etAIYpqgL4GxoIrUytveIVyAfBMTBE-utnu2tQj7goAzR5xXbiSDgNnZo0TxDWQ3MoSzYXgz8iKtiFVpDhrJCvH1JJ-3Nuat-XT8kg-bzfKcZsHE5QChfsjzQ-gqjZSzzGe_MPLg3GJFpCKENIMFJ24wSp0ZluNff2zTwOSGBvBhSe0L_rYjmrQhDaDE2h8jytO6h0Hb5ml0YxA6996CS8BTzKnbANAqO-BZI51w6ro42iToCgsZuviIPly4MJxA6mMPm_4aMXFpWvGK0iD4a7yCl7Sd8viXVc63x0HRLIP_8OyJqeAsy0LnLWF3a5Ruv_5v0BPNF-tjIyu0bBcHk1BBLHWWEeHbKySd4Ay_0K0luaZDePqSbZVTwk_WPmNdEc8IJuE9dbKrIGgoBBtSSuSBno2Xt0vIwGQaw09qQVZP_2ZAW7bA_0YFXAoce0iqg-BZCyGvcnY3rWd9fHvJJjmNMnsb1jLL2Ya1WJoV6sF97KkSRK5gZ2KO2KCpZQOnlxOG5HyaXNHMh-xwCId01Gaifrkx-hQYmZNIXmixNpj0TZqKlDPdtecm5M8vODi5cw4B5lj0ed2WRmet_PEp-3KUp3aTKxDJEISbgx8Sc0pdhzImTwg4R03n343bOMsu-Bizw5GwrnWkx_sdl6CWUMvQaDqUbG-_mV]--></g></svg>