<?xml version="1.0" encoding="us-ascii" standalone="no"?><svg xmlns="http://www.w3.org/2000/svg" xmlns:xlink="http://www.w3.org/1999/xlink" contentStyleType="text/css" height="962px" preserveAspectRatio="none" style="width:1642px;height:962px;background:#F5F5F5;" version="1.1" viewBox="0 0 1642 962" width="1642px" zoomAndPan="magnify"><defs/><g><rect fill="#F5F5F5" height="962" style="stroke:none;stroke-width:1.0;" width="1642" x="0" y="0"/><text fill="#000000" font-family="sans-serif" font-size="14" font-weight="bold" lengthAdjust="spacing" textLength="401" x="613.75" y="22.9951">YTL Cement - Data Flow Architecture (To-Be State)</text><!--cluster plant--><g id="cluster_plant"><rect fill="#FFE6E6" height="264.5" rx="2.5" ry="2.5" style="stroke:#181818;stroke-width:1.0;" width="325" x="22" y="52.2969"/><text fill="#000000" font-family="sans-serif" font-size="14" font-weight="bold" lengthAdjust="spacing" textLength="190" x="89.5" y="67.292">PAHANG CEMENT PLANT</text></g><!--cluster wb--><g id="cluster_wb"><rect fill="#FFF9E6" height="264.5" rx="2.5" ry="2.5" style="stroke:#181818;stroke-width:1.0;" width="373" x="605" y="44.2969"/><text fill="#000000" font-family="sans-serif" font-size="14" font-weight="bold" lengthAdjust="spacing" textLength="174" x="704.5" y="59.292">WEIGHBRIDGE SYSTEM</text><text fill="#000000" font-family="sans-serif" font-size="14" font-weight="bold" lengthAdjust="spacing" textLength="175" x="704" y="75.5889">(Authoritative Source)</text></g><!--cluster inventory--><g id="cluster_inventory"><rect fill="#E6F3FF" height="264.5" rx="2.5" ry="2.5" style="stroke:#181818;stroke-width:1.0;" width="346" x="1002" y="44.2969"/><text fill="#000000" font-family="sans-serif" font-size="14" font-weight="bold" lengthAdjust="spacing" textLength="162" x="1094" y="59.292">S/4HANA INVENTORY</text><text fill="#000000" font-family="sans-serif" font-size="14" font-weight="bold" lengthAdjust="spacing" textLength="103" x="1123.5" y="75.5889">(Central ERP)</text></g><!--cluster sales_intra--><g id="cluster_sales_intra"><rect fill="#E6F3FF" height="272" rx="2.5" ry="2.5" style="stroke:#181818;stroke-width:1.0;" width="389" x="7" y="364.7969"/><text fill="#000000" font-family="sans-serif" font-size="14" font-weight="bold" lengthAdjust="spacing" textLength="123" x="140" y="379.792">S/4HANA SALES</text><text fill="#000000" font-family="sans-serif" font-size="14" font-weight="bold" lengthAdjust="spacing" textLength="120" x="141.5" y="396.0889">(Intercompany)</text></g><!--cluster marketing--><g id="cluster_marketing"><rect fill="#E6E6FF" height="256" rx="2.5" ry="2.5" style="stroke:#181818;stroke-width:1.0;" width="301" x="420" y="380.7969"/><text fill="#000000" font-family="sans-serif" font-size="14" font-weight="bold" lengthAdjust="spacing" textLength="276" x="432.5" y="395.792">YTL CEMENT MARKETING COMPANY</text></g><!--cluster mvp--><g id="cluster_mvp"><rect fill="#CCFFCC" height="288" rx="2.5" ry="2.5" style="stroke:#181818;stroke-width:1.0;" width="553" x="753" y="356.7969"/><text fill="#000000" font-family="sans-serif" font-size="14" font-weight="bold" lengthAdjust="spacing" textLength="114" x="972.5" y="371.792">MVP MODULES</text><text fill="#000000" font-family="sans-serif" font-size="14" font-weight="bold" lengthAdjust="spacing" textLength="216" x="921.5" y="388.0889">(Intelligence &amp; Automation)</text></g><!--cluster gl_hub--><g id="cluster_gl_hub"><rect fill="#FFFFCC" height="272" rx="2.5" ry="2.5" style="stroke:#181818;stroke-width:1.0;" width="345" x="18" y="676.7969"/><text fill="#000000" font-family="sans-serif" font-size="14" font-weight="bold" lengthAdjust="spacing" textLength="95" x="143" y="691.792">S/4HANA GL</text><text fill="#000000" font-family="sans-serif" font-size="14" font-weight="bold" lengthAdjust="spacing" textLength="116" x="132.5" y="708.0889">(Financial Hub)</text></g><!--cluster dw--><g id="cluster_dw"><rect fill="#CCFFFF" height="272" rx="2.5" ry="2.5" style="stroke:#181818;stroke-width:1.0;" width="327" x="387" y="676.7969"/><text fill="#000000" font-family="sans-serif" font-size="14" font-weight="bold" lengthAdjust="spacing" textLength="146" x="477.5" y="691.792">DATA WAREHOUSE</text><text fill="#000000" font-family="sans-serif" font-size="14" font-weight="bold" lengthAdjust="spacing" textLength="83" x="509" y="708.0889">(Analytics)</text></g><!--cluster reports--><g id="cluster_reports"><rect fill="#FFFFDD" height="272" rx="2.5" ry="2.5" style="stroke:#181818;stroke-width:1.0;" width="513" x="746" y="684.7969"/><text fill="#000000" font-family="sans-serif" font-size="14" font-weight="bold" lengthAdjust="spacing" textLength="218" x="893.5" y="699.792">DASHBOARDS &amp; REPORTING</text></g><!--entity plant_mm--><g id="elem_plant_mm"><rect fill="#F1F1F1" height="62.5938" rx="2.5" ry="2.5" style="stroke:#181818;stroke-width:0.5;" width="129" x="46.5" y="95.2969"/><rect fill="#F1F1F1" height="10" style="stroke:#181818;stroke-width:0.5;" width="15" x="155.5" y="100.2969"/><rect fill="#F1F1F1" height="2" style="stroke:#181818;stroke-width:0.5;" width="4" x="153.5" y="102.2969"/><rect fill="#F1F1F1" height="2" style="stroke:#181818;stroke-width:0.5;" width="4" x="153.5" y="106.2969"/><text fill="#000000" font-family="sans-serif" font-size="14" lengthAdjust="spacing" textLength="89" x="61.5" y="128.292">S/4HANA MM</text><text fill="#000000" font-family="sans-serif" font-size="14" lengthAdjust="spacing" textLength="51" x="61.5" y="144.5889">Module</text></g><!--entity mm_data--><g id="elem_mm_data"><rect fill="#F1F1F1" height="62.5938" rx="2.5" ry="2.5" style="stroke:#181818;stroke-width:0.5;" width="93" x="210.5" y="95.2969"/><rect fill="#F1F1F1" height="10" style="stroke:#181818;stroke-width:0.5;" width="15" x="283.5" y="100.2969"/><rect fill="#F1F1F1" height="2" style="stroke:#181818;stroke-width:0.5;" width="4" x="281.5" y="102.2969"/><rect fill="#F1F1F1" height="2" style="stroke:#181818;stroke-width:0.5;" width="4" x="281.5" y="106.2969"/><text fill="#000000" font-family="sans-serif" font-size="14" lengthAdjust="spacing" textLength="53" x="225.5" y="128.292">Material</text><text fill="#000000" font-family="sans-serif" font-size="14" lengthAdjust="spacing" textLength="47" x="225.5" y="144.5889">Master</text></g><!--entity pr_data--><g id="elem_pr_data"><rect fill="#F1F1F1" height="62.5938" rx="2.5" ry="2.5" style="stroke:#181818;stroke-width:0.5;" width="125" x="48.5" y="229.7969"/><rect fill="#F1F1F1" height="10" style="stroke:#181818;stroke-width:0.5;" width="15" x="153.5" y="234.7969"/><rect fill="#F1F1F1" height="2" style="stroke:#181818;stroke-width:0.5;" width="4" x="151.5" y="236.7969"/><rect fill="#F1F1F1" height="2" style="stroke:#181818;stroke-width:0.5;" width="4" x="151.5" y="240.7969"/><text fill="#000000" font-family="sans-serif" font-size="14" lengthAdjust="spacing" textLength="65" x="63.5" y="262.792">Purchase</text><text fill="#000000" font-family="sans-serif" font-size="14" lengthAdjust="spacing" textLength="85" x="63.5" y="279.0889">Requisitions</text></g><!--entity gr_data--><g id="elem_gr_data"><rect fill="#F1F1F1" height="62.5938" rx="2.5" ry="2.5" style="stroke:#181818;stroke-width:0.5;" width="93" x="208.5" y="229.7969"/><rect fill="#F1F1F1" height="10" style="stroke:#181818;stroke-width:0.5;" width="15" x="281.5" y="234.7969"/><rect fill="#F1F1F1" height="2" style="stroke:#181818;stroke-width:0.5;" width="4" x="279.5" y="236.7969"/><rect fill="#F1F1F1" height="2" style="stroke:#181818;stroke-width:0.5;" width="4" x="279.5" y="240.7969"/><text fill="#000000" font-family="sans-serif" font-size="14" lengthAdjust="spacing" textLength="46" x="223.5" y="262.792">Goods</text><text fill="#000000" font-family="sans-serif" font-size="14" lengthAdjust="spacing" textLength="53" x="223.5" y="279.0889">Receipt</text></g><!--entity wb_data--><g id="elem_wb_data"><rect fill="#F1F1F1" height="62.5938" rx="2.5" ry="2.5" style="stroke:#181818;stroke-width:0.5;" width="129" x="628.5" y="95.2969"/><rect fill="#F1F1F1" height="10" style="stroke:#181818;stroke-width:0.5;" width="15" x="737.5" y="100.2969"/><rect fill="#F1F1F1" height="2" style="stroke:#181818;stroke-width:0.5;" width="4" x="735.5" y="102.2969"/><rect fill="#F1F1F1" height="2" style="stroke:#181818;stroke-width:0.5;" width="4" x="735.5" y="106.2969"/><text fill="#000000" font-family="sans-serif" font-size="14" lengthAdjust="spacing" textLength="53" x="643.5" y="128.292">Material</text><text fill="#000000" font-family="sans-serif" font-size="14" lengthAdjust="spacing" textLength="89" x="643.5" y="144.5889">Transactions</text></g><!--entity wb_in--><g id="elem_wb_in"><rect fill="#F1F1F1" height="62.5938" rx="2.5" ry="2.5" style="stroke:#181818;stroke-width:0.5;" width="134" x="828" y="95.2969"/><rect fill="#F1F1F1" height="10" style="stroke:#181818;stroke-width:0.5;" width="15" x="942" y="100.2969"/><rect fill="#F1F1F1" height="2" style="stroke:#181818;stroke-width:0.5;" width="4" x="940" y="102.2969"/><rect fill="#F1F1F1" height="2" style="stroke:#181818;stroke-width:0.5;" width="4" x="940" y="106.2969"/><text fill="#000000" font-family="sans-serif" font-size="14" lengthAdjust="spacing" textLength="62" x="843" y="128.292">Inbound:</text><text fill="#000000" font-family="sans-serif" font-size="14" lengthAdjust="spacing" textLength="94" x="843" y="144.5889">Raw Materials</text></g><!--entity wb_process--><g id="elem_wb_process"><rect fill="#F1F1F1" height="62.5938" rx="2.5" ry="2.5" style="stroke:#181818;stroke-width:0.5;" width="157" x="621.5" y="229.7969"/><rect fill="#F1F1F1" height="10" style="stroke:#181818;stroke-width:0.5;" width="15" x="758.5" y="234.7969"/><rect fill="#F1F1F1" height="2" style="stroke:#181818;stroke-width:0.5;" width="4" x="756.5" y="236.7969"/><rect fill="#F1F1F1" height="2" style="stroke:#181818;stroke-width:0.5;" width="4" x="756.5" y="240.7969"/><text fill="#000000" font-family="sans-serif" font-size="14" lengthAdjust="spacing" textLength="82" x="636.5" y="262.792">Processing:</text><text fill="#000000" font-family="sans-serif" font-size="14" lengthAdjust="spacing" textLength="117" x="636.5" y="279.0889">Cement Creation</text></g><!--entity wb_out--><g id="elem_wb_out"><rect fill="#F1F1F1" height="62.5938" rx="2.5" ry="2.5" style="stroke:#181818;stroke-width:0.5;" width="148" x="814" y="229.7969"/><rect fill="#F1F1F1" height="10" style="stroke:#181818;stroke-width:0.5;" width="15" x="942" y="234.7969"/><rect fill="#F1F1F1" height="2" style="stroke:#181818;stroke-width:0.5;" width="4" x="940" y="236.7969"/><rect fill="#F1F1F1" height="2" style="stroke:#181818;stroke-width:0.5;" width="4" x="940" y="240.7969"/><text fill="#000000" font-family="sans-serif" font-size="14" lengthAdjust="spacing" textLength="75" x="829" y="262.792">Outbound:</text><text fill="#000000" font-family="sans-serif" font-size="14" lengthAdjust="spacing" textLength="108" x="829" y="279.0889">Finished Goods</text></g><!--entity inv_movements--><g id="elem_inv_movements"><rect fill="#F1F1F1" height="62.5938" rx="2.5" ry="2.5" style="stroke:#181818;stroke-width:0.5;" width="149" x="1017.5" y="95.2969"/><rect fill="#F1F1F1" height="10" style="stroke:#181818;stroke-width:0.5;" width="15" x="1146.5" y="100.2969"/><rect fill="#F1F1F1" height="2" style="stroke:#181818;stroke-width:0.5;" width="4" x="1144.5" y="102.2969"/><rect fill="#F1F1F1" height="2" style="stroke:#181818;stroke-width:0.5;" width="4" x="1144.5" y="106.2969"/><text fill="#000000" font-family="sans-serif" font-size="14" lengthAdjust="spacing" textLength="53" x="1032.5" y="128.292">Material</text><text fill="#000000" font-family="sans-serif" font-size="14" lengthAdjust="spacing" textLength="109" x="1032.5" y="144.5889">Movements (GI)</text></g><!--entity inv_cost--><g id="elem_inv_cost"><rect fill="#F1F1F1" height="62.5938" rx="2.5" ry="2.5" style="stroke:#181818;stroke-width:0.5;" width="130" x="1202" y="95.2969"/><rect fill="#F1F1F1" height="10" style="stroke:#181818;stroke-width:0.5;" width="15" x="1312" y="100.2969"/><rect fill="#F1F1F1" height="2" style="stroke:#181818;stroke-width:0.5;" width="4" x="1310" y="102.2969"/><rect fill="#F1F1F1" height="2" style="stroke:#181818;stroke-width:0.5;" width="4" x="1310" y="106.2969"/><text fill="#000000" font-family="sans-serif" font-size="14" lengthAdjust="spacing" textLength="32" x="1217" y="128.292">Cost</text><text fill="#000000" font-family="sans-serif" font-size="14" lengthAdjust="spacing" textLength="90" x="1217" y="144.5889">Assignments</text></g><!--entity inv_gl--><g id="elem_inv_gl"><rect fill="#F1F1F1" height="62.5938" rx="2.5" ry="2.5" style="stroke:#181818;stroke-width:0.5;" width="122" x="1031" y="229.7969"/><rect fill="#F1F1F1" height="10" style="stroke:#181818;stroke-width:0.5;" width="15" x="1133" y="234.7969"/><rect fill="#F1F1F1" height="2" style="stroke:#181818;stroke-width:0.5;" width="4" x="1131" y="236.7969"/><rect fill="#F1F1F1" height="2" style="stroke:#181818;stroke-width:0.5;" width="4" x="1131" y="240.7969"/><text fill="#000000" font-family="sans-serif" font-size="14" lengthAdjust="spacing" textLength="82" x="1046" y="262.792">GL Postings</text><text fill="#000000" font-family="sans-serif" font-size="14" lengthAdjust="spacing" textLength="42" x="1046" y="279.0889">(Auto)</text></g><!--entity so_intra--><g id="elem_so_intra"><rect fill="#F1F1F1" height="62.5938" rx="2.5" ry="2.5" style="stroke:#181818;stroke-width:0.5;" width="177" x="22.5" y="415.7969"/><rect fill="#F1F1F1" height="10" style="stroke:#181818;stroke-width:0.5;" width="15" x="179.5" y="420.7969"/><rect fill="#F1F1F1" height="2" style="stroke:#181818;stroke-width:0.5;" width="4" x="177.5" y="422.7969"/><rect fill="#F1F1F1" height="2" style="stroke:#181818;stroke-width:0.5;" width="4" x="177.5" y="426.7969"/><text fill="#000000" font-family="sans-serif" font-size="14" lengthAdjust="spacing" textLength="88" x="37.5" y="448.792">Sales Orders</text><text fill="#000000" font-family="sans-serif" font-size="14" lengthAdjust="spacing" textLength="137" x="37.5" y="465.0889">(Plant -&gt; Marketing)</text></g><!--entity do_intra--><g id="elem_do_intra"><rect fill="#F1F1F1" height="46.2969" rx="2.5" ry="2.5" style="stroke:#181818;stroke-width:0.5;" width="145" x="234.5" y="424.2969"/><rect fill="#F1F1F1" height="10" style="stroke:#181818;stroke-width:0.5;" width="15" x="359.5" y="429.2969"/><rect fill="#F1F1F1" height="2" style="stroke:#181818;stroke-width:0.5;" width="4" x="357.5" y="431.2969"/><rect fill="#F1F1F1" height="2" style="stroke:#181818;stroke-width:0.5;" width="4" x="357.5" y="435.2969"/><text fill="#000000" font-family="sans-serif" font-size="14" lengthAdjust="spacing" textLength="105" x="249.5" y="457.292">Delivery Orders</text></g><!--entity inv_intra--><g id="elem_inv_intra"><rect fill="#F1F1F1" height="62.5938" rx="2.5" ry="2.5" style="stroke:#181818;stroke-width:0.5;" width="134" x="44" y="557.7969"/><rect fill="#F1F1F1" height="10" style="stroke:#181818;stroke-width:0.5;" width="15" x="158" y="562.7969"/><rect fill="#F1F1F1" height="2" style="stroke:#181818;stroke-width:0.5;" width="4" x="156" y="564.7969"/><rect fill="#F1F1F1" height="2" style="stroke:#181818;stroke-width:0.5;" width="4" x="156" y="568.7969"/><text fill="#000000" font-family="sans-serif" font-size="14" lengthAdjust="spacing" textLength="94" x="59" y="590.792">Intercompany</text><text fill="#000000" font-family="sans-serif" font-size="14" lengthAdjust="spacing" textLength="60" x="59" y="607.0889">Invoicing</text></g><!--entity marketing_sd--><g id="elem_marketing_sd"><rect fill="#F1F1F1" height="62.5938" rx="2.5" ry="2.5" style="stroke:#181818;stroke-width:0.5;" width="125" x="436.5" y="415.7969"/><rect fill="#F1F1F1" height="10" style="stroke:#181818;stroke-width:0.5;" width="15" x="541.5" y="420.7969"/><rect fill="#F1F1F1" height="2" style="stroke:#181818;stroke-width:0.5;" width="4" x="539.5" y="422.7969"/><rect fill="#F1F1F1" height="2" style="stroke:#181818;stroke-width:0.5;" width="4" x="539.5" y="426.7969"/><text fill="#000000" font-family="sans-serif" font-size="14" lengthAdjust="spacing" textLength="85" x="451.5" y="448.792">S/4HANA SD</text><text fill="#000000" font-family="sans-serif" font-size="14" lengthAdjust="spacing" textLength="51" x="451.5" y="465.0889">Module</text></g><!--entity customer_orders--><g id="elem_customer_orders"><rect fill="#F1F1F1" height="62.5938" rx="2.5" ry="2.5" style="stroke:#181818;stroke-width:0.5;" width="108" x="597" y="415.7969"/><rect fill="#F1F1F1" height="10" style="stroke:#181818;stroke-width:0.5;" width="15" x="685" y="420.7969"/><rect fill="#F1F1F1" height="2" style="stroke:#181818;stroke-width:0.5;" width="4" x="683" y="422.7969"/><rect fill="#F1F1F1" height="2" style="stroke:#181818;stroke-width:0.5;" width="4" x="683" y="426.7969"/><text fill="#000000" font-family="sans-serif" font-size="14" lengthAdjust="spacing" textLength="68" x="612" y="448.792">Customer</text><text fill="#000000" font-family="sans-serif" font-size="14" lengthAdjust="spacing" textLength="47" x="612" y="465.0889">Orders</text></g><!--entity customer_do--><g id="elem_customer_do"><rect fill="#F1F1F1" height="62.5938" rx="2.5" ry="2.5" style="stroke:#181818;stroke-width:0.5;" width="94" x="452" y="557.7969"/><rect fill="#F1F1F1" height="10" style="stroke:#181818;stroke-width:0.5;" width="15" x="526" y="562.7969"/><rect fill="#F1F1F1" height="2" style="stroke:#181818;stroke-width:0.5;" width="4" x="524" y="564.7969"/><rect fill="#F1F1F1" height="2" style="stroke:#181818;stroke-width:0.5;" width="4" x="524" y="568.7969"/><text fill="#000000" font-family="sans-serif" font-size="14" lengthAdjust="spacing" textLength="54" x="467" y="590.792">Delivery</text><text fill="#000000" font-family="sans-serif" font-size="14" lengthAdjust="spacing" textLength="47" x="467" y="607.0889">Orders</text></g><!--entity customer_inv--><g id="elem_customer_inv"><rect fill="#F1F1F1" height="62.5938" rx="2.5" ry="2.5" style="stroke:#181818;stroke-width:0.5;" width="108" x="581" y="557.7969"/><rect fill="#F1F1F1" height="10" style="stroke:#181818;stroke-width:0.5;" width="15" x="669" y="562.7969"/><rect fill="#F1F1F1" height="2" style="stroke:#181818;stroke-width:0.5;" width="4" x="667" y="564.7969"/><rect fill="#F1F1F1" height="2" style="stroke:#181818;stroke-width:0.5;" width="4" x="667" y="568.7969"/><text fill="#000000" font-family="sans-serif" font-size="14" lengthAdjust="spacing" textLength="68" x="596" y="590.792">Customer</text><text fill="#000000" font-family="sans-serif" font-size="14" lengthAdjust="spacing" textLength="60" x="596" y="607.0889">Invoicing</text></g><!--entity invoice_mod--><g id="elem_invoice_mod"><rect fill="#F1F1F1" height="62.5938" rx="2.5" ry="2.5" style="stroke:#181818;stroke-width:0.5;" width="155" x="777.5" y="415.7969"/><rect fill="#F1F1F1" height="10" style="stroke:#181818;stroke-width:0.5;" width="15" x="912.5" y="420.7969"/><rect fill="#F1F1F1" height="2" style="stroke:#181818;stroke-width:0.5;" width="4" x="910.5" y="422.7969"/><rect fill="#F1F1F1" height="2" style="stroke:#181818;stroke-width:0.5;" width="4" x="910.5" y="426.7969"/><text fill="#000000" font-family="sans-serif" font-size="14" lengthAdjust="spacing" textLength="115" x="792.5" y="448.792">Invoice Matching</text><text fill="#000000" font-family="sans-serif" font-size="14" lengthAdjust="spacing" textLength="51" x="792.5" y="465.0889">Module</text></g><!--entity gl_mod--><g id="elem_gl_mod"><rect fill="#F1F1F1" height="62.5938" rx="2.5" ry="2.5" style="stroke:#181818;stroke-width:0.5;" width="120" x="968" y="415.7969"/><rect fill="#F1F1F1" height="10" style="stroke:#181818;stroke-width:0.5;" width="15" x="1068" y="420.7969"/><rect fill="#F1F1F1" height="2" style="stroke:#181818;stroke-width:0.5;" width="4" x="1066" y="422.7969"/><rect fill="#F1F1F1" height="2" style="stroke:#181818;stroke-width:0.5;" width="4" x="1066" y="426.7969"/><text fill="#000000" font-family="sans-serif" font-size="14" lengthAdjust="spacing" textLength="80" x="983" y="448.792">GL Anomaly</text><text fill="#000000" font-family="sans-serif" font-size="14" lengthAdjust="spacing" textLength="61" x="983" y="465.0889">Detector</text></g><!--entity vendor_mod--><g id="elem_vendor_mod"><rect fill="#F1F1F1" height="62.5938" rx="2.5" ry="2.5" style="stroke:#181818;stroke-width:0.5;" width="140" x="1123" y="415.7969"/><rect fill="#F1F1F1" height="10" style="stroke:#181818;stroke-width:0.5;" width="15" x="1243" y="420.7969"/><rect fill="#F1F1F1" height="2" style="stroke:#181818;stroke-width:0.5;" width="4" x="1241" y="422.7969"/><rect fill="#F1F1F1" height="2" style="stroke:#181818;stroke-width:0.5;" width="4" x="1241" y="426.7969"/><text fill="#000000" font-family="sans-serif" font-size="14" lengthAdjust="spacing" textLength="100" x="1138" y="448.792">Vendor Quality</text><text fill="#000000" font-family="sans-serif" font-size="14" lengthAdjust="spacing" textLength="60" x="1138" y="465.0889">Manager</text></g><!--entity sod_mod--><g id="elem_sod_mod"><rect fill="#F1F1F1" height="62.5938" rx="2.5" ry="2.5" style="stroke:#181818;stroke-width:0.5;" width="131" x="789.5" y="557.7969"/><rect fill="#F1F1F1" height="10" style="stroke:#181818;stroke-width:0.5;" width="15" x="900.5" y="562.7969"/><rect fill="#F1F1F1" height="2" style="stroke:#181818;stroke-width:0.5;" width="4" x="898.5" y="564.7969"/><rect fill="#F1F1F1" height="2" style="stroke:#181818;stroke-width:0.5;" width="4" x="898.5" y="568.7969"/><text fill="#000000" font-family="sans-serif" font-size="14" lengthAdjust="spacing" textLength="91" x="804.5" y="590.792">SoD Analyzer</text><text fill="#000000" font-family="sans-serif" font-size="14" lengthAdjust="spacing" textLength="69" x="804.5" y="607.0889">Real-Time</text></g><!--entity einvoice_mod--><g id="elem_einvoice_mod"><rect fill="#F1F1F1" height="62.5938" rx="2.5" ry="2.5" style="stroke:#181818;stroke-width:0.5;" width="157" x="955.5" y="557.7969"/><rect fill="#F1F1F1" height="10" style="stroke:#181818;stroke-width:0.5;" width="15" x="1092.5" y="562.7969"/><rect fill="#F1F1F1" height="2" style="stroke:#181818;stroke-width:0.5;" width="4" x="1090.5" y="564.7969"/><rect fill="#F1F1F1" height="2" style="stroke:#181818;stroke-width:0.5;" width="4" x="1090.5" y="568.7969"/><text fill="#000000" font-family="sans-serif" font-size="14" lengthAdjust="spacing" textLength="117" x="970.5" y="590.792">e-Invoice Module</text><text fill="#000000" font-family="sans-serif" font-size="14" lengthAdjust="spacing" textLength="48" x="970.5" y="607.0889">(LHDN)</text></g><!--entity gl_posting--><g id="elem_gl_posting"><rect fill="#F1F1F1" height="62.5938" rx="2.5" ry="2.5" style="stroke:#181818;stroke-width:0.5;" width="154" x="34" y="727.7969"/><rect fill="#F1F1F1" height="10" style="stroke:#181818;stroke-width:0.5;" width="15" x="168" y="732.7969"/><rect fill="#F1F1F1" height="2" style="stroke:#181818;stroke-width:0.5;" width="4" x="166" y="734.7969"/><rect fill="#F1F1F1" height="2" style="stroke:#181818;stroke-width:0.5;" width="4" x="166" y="738.7969"/><text fill="#000000" font-family="sans-serif" font-size="14" lengthAdjust="spacing" textLength="106" x="49" y="760.792">General Ledger</text><text fill="#000000" font-family="sans-serif" font-size="14" lengthAdjust="spacing" textLength="114" x="49" y="777.0889">(All transactions)</text></g><!--entity cc_alloc--><g id="elem_cc_alloc"><rect fill="#F1F1F1" height="62.5938" rx="2.5" ry="2.5" style="stroke:#181818;stroke-width:0.5;" width="123" x="223.5" y="727.7969"/><rect fill="#F1F1F1" height="10" style="stroke:#181818;stroke-width:0.5;" width="15" x="326.5" y="732.7969"/><rect fill="#F1F1F1" height="2" style="stroke:#181818;stroke-width:0.5;" width="4" x="324.5" y="734.7969"/><rect fill="#F1F1F1" height="2" style="stroke:#181818;stroke-width:0.5;" width="4" x="324.5" y="738.7969"/><text fill="#000000" font-family="sans-serif" font-size="14" lengthAdjust="spacing" textLength="83" x="238.5" y="760.792">Cost Center</text><text fill="#000000" font-family="sans-serif" font-size="14" lengthAdjust="spacing" textLength="66" x="238.5" y="777.0889">Allocation</text></g><!--entity close_process--><g id="elem_close_process"><rect fill="#F1F1F1" height="62.5938" rx="2.5" ry="2.5" style="stroke:#181818;stroke-width:0.5;" width="116" x="53" y="869.7969"/><rect fill="#F1F1F1" height="10" style="stroke:#181818;stroke-width:0.5;" width="15" x="149" y="874.7969"/><rect fill="#F1F1F1" height="2" style="stroke:#181818;stroke-width:0.5;" width="4" x="147" y="876.7969"/><rect fill="#F1F1F1" height="2" style="stroke:#181818;stroke-width:0.5;" width="4" x="147" y="880.7969"/><text fill="#000000" font-family="sans-serif" font-size="14" lengthAdjust="spacing" textLength="76" x="68" y="902.792">Month-End</text><text fill="#000000" font-family="sans-serif" font-size="14" lengthAdjust="spacing" textLength="39" x="68" y="919.0889">Close</text></g><!--entity dw_data--><g id="elem_dw_data"><rect fill="#F1F1F1" height="62.5938" rx="2.5" ry="2.5" style="stroke:#181818;stroke-width:0.5;" width="138" x="403" y="727.7969"/><rect fill="#F1F1F1" height="10" style="stroke:#181818;stroke-width:0.5;" width="15" x="521" y="732.7969"/><rect fill="#F1F1F1" height="2" style="stroke:#181818;stroke-width:0.5;" width="4" x="519" y="734.7969"/><rect fill="#F1F1F1" height="2" style="stroke:#181818;stroke-width:0.5;" width="4" x="519" y="738.7969"/><text fill="#000000" font-family="sans-serif" font-size="14" lengthAdjust="spacing" textLength="98" x="418" y="760.792">Historical Data</text><text fill="#000000" font-family="sans-serif" font-size="14" lengthAdjust="spacing" textLength="54" x="418" y="777.0889">Storage</text></g><!--entity dw_metrics--><g id="elem_dw_metrics"><rect fill="#F1F1F1" height="62.5938" rx="2.5" ry="2.5" style="stroke:#181818;stroke-width:0.5;" width="121" x="576.5" y="727.7969"/><rect fill="#F1F1F1" height="10" style="stroke:#181818;stroke-width:0.5;" width="15" x="677.5" y="732.7969"/><rect fill="#F1F1F1" height="2" style="stroke:#181818;stroke-width:0.5;" width="4" x="675.5" y="734.7969"/><rect fill="#F1F1F1" height="2" style="stroke:#181818;stroke-width:0.5;" width="4" x="675.5" y="738.7969"/><text fill="#000000" font-family="sans-serif" font-size="14" lengthAdjust="spacing" textLength="81" x="591.5" y="760.792">Aggregated</text><text fill="#000000" font-family="sans-serif" font-size="14" lengthAdjust="spacing" textLength="50" x="591.5" y="777.0889">Metrics</text></g><!--entity dw_models--><g id="elem_dw_models"><rect fill="#F1F1F1" height="62.5938" rx="2.5" ry="2.5" style="stroke:#181818;stroke-width:0.5;" width="100" x="422" y="869.7969"/><rect fill="#F1F1F1" height="10" style="stroke:#181818;stroke-width:0.5;" width="15" x="502" y="874.7969"/><rect fill="#F1F1F1" height="2" style="stroke:#181818;stroke-width:0.5;" width="4" x="500" y="876.7969"/><rect fill="#F1F1F1" height="2" style="stroke:#181818;stroke-width:0.5;" width="4" x="500" y="880.7969"/><text fill="#000000" font-family="sans-serif" font-size="14" lengthAdjust="spacing" textLength="60" x="437" y="902.792">Analytics</text><text fill="#000000" font-family="sans-serif" font-size="14" lengthAdjust="spacing" textLength="50" x="437" y="919.0889">Models</text></g><!--entity report_gl--><g id="elem_report_gl"><rect fill="#F1F1F1" height="62.5938" rx="2.5" ry="2.5" style="stroke:#181818;stroke-width:0.5;" width="102" x="770" y="727.7969"/><rect fill="#F1F1F1" height="10" style="stroke:#181818;stroke-width:0.5;" width="15" x="852" y="732.7969"/><rect fill="#F1F1F1" height="2" style="stroke:#181818;stroke-width:0.5;" width="4" x="850" y="734.7969"/><rect fill="#F1F1F1" height="2" style="stroke:#181818;stroke-width:0.5;" width="4" x="850" y="738.7969"/><text fill="#000000" font-family="sans-serif" font-size="14" lengthAdjust="spacing" textLength="61" x="785" y="760.792">GL Close</text><text fill="#000000" font-family="sans-serif" font-size="14" lengthAdjust="spacing" textLength="62" x="785" y="777.0889">Progress</text></g><!--entity report_invoice--><g id="elem_report_invoice"><rect fill="#F1F1F1" height="62.5938" rx="2.5" ry="2.5" style="stroke:#181818;stroke-width:0.5;" width="134" x="907" y="727.7969"/><rect fill="#F1F1F1" height="10" style="stroke:#181818;stroke-width:0.5;" width="15" x="1021" y="732.7969"/><rect fill="#F1F1F1" height="2" style="stroke:#181818;stroke-width:0.5;" width="4" x="1019" y="734.7969"/><rect fill="#F1F1F1" height="2" style="stroke:#181818;stroke-width:0.5;" width="4" x="1019" y="738.7969"/><text fill="#000000" font-family="sans-serif" font-size="14" lengthAdjust="spacing" textLength="94" x="922" y="760.792">Invoice Match</text><text fill="#000000" font-family="sans-serif" font-size="14" lengthAdjust="spacing" textLength="79" x="922" y="777.0889">Accuracy %</text></g><!--entity report_vendor--><g id="elem_report_vendor"><rect fill="#F1F1F1" height="62.5938" rx="2.5" ry="2.5" style="stroke:#181818;stroke-width:0.5;" width="140" x="1076" y="727.7969"/><rect fill="#F1F1F1" height="10" style="stroke:#181818;stroke-width:0.5;" width="15" x="1196" y="732.7969"/><rect fill="#F1F1F1" height="2" style="stroke:#181818;stroke-width:0.5;" width="4" x="1194" y="734.7969"/><rect fill="#F1F1F1" height="2" style="stroke:#181818;stroke-width:0.5;" width="4" x="1194" y="738.7969"/><text fill="#000000" font-family="sans-serif" font-size="14" lengthAdjust="spacing" textLength="100" x="1091" y="760.792">Vendor Quality</text><text fill="#000000" font-family="sans-serif" font-size="14" lengthAdjust="spacing" textLength="48" x="1091" y="777.0889">Scores</text></g><!--entity report_sod--><g id="elem_report_sod"><rect fill="#F1F1F1" height="62.5938" rx="2.5" ry="2.5" style="stroke:#181818;stroke-width:0.5;" width="139" x="770.5" y="869.7969"/><rect fill="#F1F1F1" height="10" style="stroke:#181818;stroke-width:0.5;" width="15" x="889.5" y="874.7969"/><rect fill="#F1F1F1" height="2" style="stroke:#181818;stroke-width:0.5;" width="4" x="887.5" y="876.7969"/><rect fill="#F1F1F1" height="2" style="stroke:#181818;stroke-width:0.5;" width="4" x="887.5" y="880.7969"/><text fill="#000000" font-family="sans-serif" font-size="14" lengthAdjust="spacing" textLength="99" x="785.5" y="902.792">SoD Violations</text><text fill="#000000" font-family="sans-serif" font-size="14" lengthAdjust="spacing" textLength="59" x="785.5" y="919.0889">Tracking</text></g><!--entity report_einvoice--><g id="elem_report_einvoice"><rect fill="#F1F1F1" height="62.5938" rx="2.5" ry="2.5" style="stroke:#181818;stroke-width:0.5;" width="168" x="945" y="869.7969"/><rect fill="#F1F1F1" height="10" style="stroke:#181818;stroke-width:0.5;" width="15" x="1093" y="874.7969"/><rect fill="#F1F1F1" height="2" style="stroke:#181818;stroke-width:0.5;" width="4" x="1091" y="876.7969"/><rect fill="#F1F1F1" height="2" style="stroke:#181818;stroke-width:0.5;" width="4" x="1091" y="880.7969"/><text fill="#000000" font-family="sans-serif" font-size="14" lengthAdjust="spacing" textLength="62" x="960" y="902.792">e-Invoice</text><text fill="#000000" font-family="sans-serif" font-size="14" lengthAdjust="spacing" textLength="128" x="960" y="919.0889">Submission Status</text></g><g id="elem_GMN45"><path d="M371.5,218.2969 L371.5,303.9609 L586.5,303.9609 L586.5,228.2969 L576.5,218.2969 L371.5,218.2969 " fill="#FEFFDD" style="stroke:#181818;stroke-width:0.5;"/><path d="M576.5,218.2969 L576.5,228.2969 L586.5,228.2969 L576.5,218.2969 " fill="#FEFFDD" style="stroke:#181818;stroke-width:1.0;"/><text fill="#000000" font-family="sans-serif" font-size="13" font-weight="bold" lengthAdjust="spacing" textLength="119" x="377.5" y="235.3638">Volume Metrics:</text><text fill="#000000" font-family="sans-serif" font-size="13" lengthAdjust="spacing" textLength="134" x="377.5" y="250.4966">- 28K invoices/month</text><text fill="#000000" font-family="sans-serif" font-size="13" lengthAdjust="spacing" textLength="194" x="377.5" y="265.6294">- 39K sales order items/month</text><text fill="#000000" font-family="sans-serif" font-size="13" lengthAdjust="spacing" textLength="158" x="377.5" y="280.7622">- 46K GL postings/month</text><text fill="#000000" font-family="sans-serif" font-size="13" lengthAdjust="spacing" textLength="190" x="377.5" y="295.895">- ~1,300 invoices/working day</text></g><g id="elem_GMN48"><path d="M1330.5,538.7969 L1330.5,639.5938 L1635.5,639.5938 L1635.5,548.7969 L1625.5,538.7969 L1330.5,538.7969 " fill="#FEFFDD" style="stroke:#181818;stroke-width:0.5;"/><path d="M1625.5,538.7969 L1625.5,548.7969 L1635.5,548.7969 L1625.5,538.7969 " fill="#FEFFDD" style="stroke:#181818;stroke-width:1.0;"/><text fill="#000000" font-family="sans-serif" font-size="13" font-weight="bold" lengthAdjust="spacing" textLength="119" x="1336.5" y="555.8638">MVP Value-Add:</text><text fill="#000000" font-family="sans-serif" font-size="13" lengthAdjust="spacing" textLength="284" x="1336.5" y="570.9966">- Continuous monitoring (not just at posting)</text><text fill="#000000" font-family="sans-serif" font-size="13" lengthAdjust="spacing" textLength="199" x="1336.5" y="586.1294">- Pattern detection across data</text><text fill="#000000" font-family="sans-serif" font-size="13" lengthAdjust="spacing" textLength="196" x="1336.5" y="601.2622">- Predictive alerts &amp; anomalies</text><text fill="#000000" font-family="sans-serif" font-size="13" lengthAdjust="spacing" textLength="206" x="1336.5" y="616.395">- Automated evidence collection</text><text fill="#000000" font-family="sans-serif" font-size="13" lengthAdjust="spacing" textLength="202" x="1336.5" y="631.5278">- Real-time compliance tracking</text></g><g id="elem_GMN51"><path d="M1283.5,850.7969 L1283.5,951.5938 L1560.5,951.5938 L1560.5,860.7969 L1550.5,850.7969 L1283.5,850.7969 " fill="#FEFFDD" style="stroke:#181818;stroke-width:0.5;"/><path d="M1550.5,850.7969 L1550.5,860.7969 L1560.5,860.7969 L1550.5,850.7969 " fill="#FEFFDD" style="stroke:#181818;stroke-width:1.0;"/><text fill="#000000" font-family="sans-serif" font-size="13" font-weight="bold" lengthAdjust="spacing" textLength="185" x="1289.5" y="867.8638">Expected Improvements:</text><text fill="#000000" font-family="sans-serif" font-size="13" lengthAdjust="spacing" textLength="181" x="1289.5" y="882.9966">- GL Close: 8 days -&gt; 4 days</text><text fill="#000000" font-family="sans-serif" font-size="13" lengthAdjust="spacing" textLength="215" x="1289.5" y="898.1294">- Invoice Accuracy: 98% -&gt; 99.7%</text><text fill="#000000" font-family="sans-serif" font-size="13" lengthAdjust="spacing" textLength="256" x="1289.5" y="913.2622">- SoD Detection: 6 months -&gt; Real-time</text><text fill="#000000" font-family="sans-serif" font-size="13" lengthAdjust="spacing" textLength="256" x="1289.5" y="928.395">- e-Invoice: Manual -&gt; 100% Automated</text><text fill="#000000" font-family="sans-serif" font-size="13" lengthAdjust="spacing" textLength="209" x="1289.5" y="943.5278">- Dashboard: Day 8 -&gt; Real-time</text></g><!--link plant to GMN45--><g id="link_plant_GMN45"><path d="M347.0968,135.4616 C347.1797,135.54 347.2632,135.619 347.3472,135.6986 C348.0195,136.3348 348.7273,137.0046 349.4686,137.7061 C355.3991,143.3184 363.4769,150.9638 372.7213,159.7131 C391.21,177.2119 414.365,199.1269 434.34,218.0269 " fill="none" id="plant-GMN45" style="stroke:#181818;stroke-width:1.0;stroke-dasharray:7.0,7.0;"/></g><!--link mvp to GMN48--><g id="link_mvp_GMN48"><path d="M1306.208,454.509 C1306.3015,454.5797 1306.3957,454.651 1306.4905,454.7228 C1306.6803,454.8663 1306.8728,455.0121 1307.0682,455.1599 C1307.459,455.4556 1307.861,455.7598 1308.2739,456.0723 C1309.0998,456.6973 1309.9695,457.3553 1310.8806,458.0448 C1318.17,463.5609 1328.1175,471.0888 1339.58,479.7631 C1362.505,497.1119 1391.49,519.0469 1417.39,538.6469 " fill="none" id="mvp-GMN48" style="stroke:#181818;stroke-width:1.0;stroke-dasharray:7.0,7.0;"/></g><!--link reports to GMN51--><g id="link_reports_GMN51"><path d="M1259.1129,766.9397 C1259.2019,767.0126 1259.2916,767.086 1259.3819,767.1599 C1259.7431,767.4556 1260.1146,767.7598 1260.4963,768.0723 C1261.2596,768.6973 1262.0634,769.3553 1262.9056,770.0448 C1269.6431,775.5609 1278.8375,783.0888 1289.4325,791.7631 C1310.6225,809.1119 1337.415,831.0469 1361.36,850.6469 " fill="none" id="reports-GMN51" style="stroke:#181818;stroke-width:1.0;stroke-dasharray:7.0,7.0;"/></g><!--SRC=[VLRRRkCs47tFLmmso289wcwskqqJFnHGBFc2sB5hURC8waL0Kwp2XY9TahAR5kstTqXAlhlmYopD3EUSENCaowrWy3JfGuiLJ5feG4miWRPGIuWqVU6MKLjg1kSJrRXZa5fYsSM9UULoJZGfO4ReQwvLAREM4ah3QVj7zpivqPX8P8xbtusYRlJGWLOoI1ucCEf73vDtG0pC1S4ZJzljv3gvXhzF0AWgvagwHdvDFtp6h0W6WwaSgAmKxDigvxaejeC7s9NcH60eCNZfGulYEKCmsv6Z4b4HmwPopFuekU6MAsb2QNqWlgDKPbmmPNnkVLnUnVsp1V9hqkjqxyQzk9D0-fHE4kpxF2hjYz8SIUCB94_XuUp2Or_E7F3sxJxmDPQ99j8GkkvmEJlGOK_E7FrDR98ieSvU9N2vGu1Mb1d3POuPrTHRcX5tIfqp3p7RYSFIrWUrkUJcXMNWsQcpL6btEAbds7junCaFnqz8IGkBQI8W6Oy24rmky9RIRt2QNBS_jTl72HceXM_Om7cdT_6jodukwjlRUIrbx5H6Y3MN_l4gWUAJdJ7tOOGtaHKJngRMvNDn15OQzPCKmtiI6tJ5Y7mBc0mHp23rYFGOgjI5m51dJBiZHtuN6Z_Z0FKhSus41emAPRQJOoPGK4XPoFUHsS78pTwciYSNYbCilW8NKhRnUJy8opg8nlV9fEUsTpWOHGzF7bvHz-Z08RpsiULDuwtbNUKzcsndLgMngc1wAZSGqUhci_Bt3bDmE2DJn-flKx1AG2vsM1WyZc0mZB-iPom4pvca3Dw3KqZXToOCl5ZCuRJLQhTRhLqkme7CRIRwgSot6E7X8KeusnDa9F48WG1ZvbnO1LVBnNxm8vCPUkyl9H7SlZaJb2IlN73Xd-tdf2h64x3-NuwLCIEYCU45gqINxIUmnWg9xnz9wNVZXo1JjWdayBPq-fY1pa4anMM6RZaBr26WbpAuuG7sEamoPnTzbkMkqVD82B0RndXHip8F-xll0U0in-LYgg9hewFqcRWxEswZf7rf9393TnJA14AekrhPuZQ-E9f4y3KQ9ztXbpHn7JfMBQScuCkMGHdxMzBbA3xDAS9pRzsfJF4l3Ywiy_A0rqTvhbcEVeZT3PZ5N5C75-7lJdpTYXST4-je_syFITgz6qRZE4M5ZvFHSEmstuFGRAuq-gwVKXplJGaDmr4qbVXwmHPDE2XaEGCzlX4u5afBJUWRd6qcLOBwVw6dLE5Xcsb1xljIV-HA-D4R_rwbhxK3L7dcgDpnb79MS7oDAEc_Vygj0slbEowbiWncog8tWFejVAjWrSlBHoNA0W676JKlB_5k0twukQyDm7medExyxK-tz-450jxt0B_1Yitddw_lSPcWqllcaty_VlVfwcfTSwcqmmaPUJj1Ni3rjzSbMfVlqVdT8n4bQqHPLhVOmjfSbgf4YrEIExbYlNCi0R-ZTGAnTHyNFdv4BAwQXCnRbcECKAqCQYve6ICqopZrtqE8qMdgFH3lT9mP7r5vAtvUi0NFlE5I9KIevoEyMrbqApymmOcBiTLKZoEjHEpH9d_EiI2UqIjmhQllXnfrBUSct3ZkZ7ilV_PN_d6jtrguJRYzENCnjxVV_tJcGvpaufg39bo37v8lj6hU1wvariHraAXh5_BnwkfiJOEFYubvcIcYioPUlc5VMvLMaFy3]--></g></svg>