<?xml version="1.0" encoding="us-ascii" standalone="no"?><svg xmlns="http://www.w3.org/2000/svg" xmlns:xlink="http://www.w3.org/1999/xlink" contentStyleType="text/css" height="1055px" preserveAspectRatio="none" style="width:4475px;height:1055px;background:#F5F5F5;" version="1.1" viewBox="0 0 4475 1055" width="4475px" zoomAndPan="magnify"><defs/><g><rect fill="#F5F5F5" height="1055" style="stroke:none;stroke-width:1.0;" width="4475" x="0" y="0"/><text fill="#000000" font-family="sans-serif" font-size="14" font-weight="bold" lengthAdjust="spacing" textLength="339" x="2061" y="22.9951">YTL Cement - ROI &amp; Annual Business Value</text><!--cluster investment--><g id="cluster_investment"><rect fill="#FFE6E6" height="294.5" rx="2.5" ry="2.5" style="stroke:#181818;stroke-width:1.0;" width="1099" x="19" y="173.7969"/><text fill="#000000" font-family="sans-serif" font-size="14" font-weight="bold" lengthAdjust="spacing" textLength="179" x="479" y="188.792">INVESTMENT REQUIRED</text></g><!--cluster benefits--><g id="cluster_benefits"><rect fill="#E6FFE6" height="828.36" rx="2.5" ry="2.5" style="stroke:#181818;stroke-width:1.0;" width="2062" x="2407" y="220.9369"/><text fill="#000000" font-family="sans-serif" font-size="14" font-weight="bold" lengthAdjust="spacing" textLength="221" x="3327.5" y="235.932">ANNUAL BENEFITS (Year 1+)</text></g><!--cluster b1--><g id="cluster_b1"><rect fill="#CCFFCC" height="251" rx="2.5" ry="2.5" style="stroke:#181818;stroke-width:1.0;" width="563" x="3874" y="354.7969"/><text fill="#000000" font-family="sans-serif" font-size="14" font-weight="bold" lengthAdjust="spacing" textLength="220" x="4045.5" y="369.792">BENEFIT 1: Invoice Matching</text></g><!--cluster b2--><g id="cluster_b2"><rect fill="#CCFFCC" height="251" rx="2.5" ry="2.5" style="stroke:#181818;stroke-width:1.0;" width="515" x="3335" y="354.7969"/><text fill="#000000" font-family="sans-serif" font-size="14" font-weight="bold" lengthAdjust="spacing" textLength="255" x="3465" y="369.792">BENEFIT 2: GL Anomaly Detector</text></g><!--cluster b3--><g id="cluster_b3"><rect fill="#CCFFCC" height="251" rx="2.5" ry="2.5" style="stroke:#181818;stroke-width:1.0;" width="494" x="2817" y="354.7969"/><text fill="#000000" font-family="sans-serif" font-size="14" font-weight="bold" lengthAdjust="spacing" textLength="245" x="2941.5" y="369.792">BENEFIT 3: Vendor Data Quality</text></g><!--cluster b4--><g id="cluster_b4"><rect fill="#CCFFCC" height="298.5" rx="2.5" ry="2.5" style="stroke:#181818;stroke-width:1.0;" width="474" x="3904" y="718.7969"/><text fill="#000000" font-family="sans-serif" font-size="14" font-weight="bold" lengthAdjust="spacing" textLength="193" x="4044.5" y="733.792">BENEFIT 4: SoD Analyzer</text></g><!--cluster b5--><g id="cluster_b5"><rect fill="#CCFFCC" height="298.5" rx="2.5" ry="2.5" style="stroke:#181818;stroke-width:1.0;" width="515" x="3365" y="718.7969"/><text fill="#000000" font-family="sans-serif" font-size="14" font-weight="bold" lengthAdjust="spacing" textLength="222" x="3511.5" y="733.792">BENEFIT 5: e-Invoice Module</text></g><!--cluster roi--><g id="cluster_roi"><rect fill="#FFFFCC" height="327.5" rx="2.5" ry="2.5" style="stroke:#181818;stroke-width:1.0;" width="1209" x="1158" y="132.2969"/><text fill="#000000" font-family="sans-serif" font-size="14" font-weight="bold" lengthAdjust="spacing" textLength="141" x="1692" y="147.292">ROI CALCULATION</text></g><!--cluster intangible--><g id="cluster_intangible"><rect fill="#E6E6FF" height="324" rx="2.5" ry="2.5" style="stroke:#181818;stroke-width:1.0;" width="992" x="7" y="500.2969"/><text fill="#000000" font-family="sans-serif" font-size="14" font-weight="bold" lengthAdjust="spacing" textLength="290" x="358" y="515.292">INTANGIBLE BENEFITS (Non-Financial)</text></g><!--entity invest_license--><g id="elem_invest_license"><rect fill="#F1F1F1" height="62.5938" rx="2.5" ry="2.5" style="stroke:#181818;stroke-width:0.5;" width="187" x="62.5" y="216.7969"/><rect fill="#F1F1F1" height="10" style="stroke:#181818;stroke-width:0.5;" width="15" x="229.5" y="221.7969"/><rect fill="#F1F1F1" height="2" style="stroke:#181818;stroke-width:0.5;" width="4" x="227.5" y="223.7969"/><rect fill="#F1F1F1" height="2" style="stroke:#181818;stroke-width:0.5;" width="4" x="227.5" y="227.7969"/><text fill="#000000" font-family="sans-serif" font-size="14" lengthAdjust="spacing" textLength="118" x="77.5" y="249.792">S/4HANA License</text><text fill="#000000" font-family="sans-serif" font-size="14" lengthAdjust="spacing" textLength="147" x="77.5" y="266.0889">(1 year): $200K-250K</text></g><!--entity invest_infra--><g id="elem_invest_infra"><rect fill="#F1F1F1" height="62.5938" rx="2.5" ry="2.5" style="stroke:#181818;stroke-width:0.5;" width="207" x="284.5" y="216.7969"/><rect fill="#F1F1F1" height="10" style="stroke:#181818;stroke-width:0.5;" width="15" x="471.5" y="221.7969"/><rect fill="#F1F1F1" height="2" style="stroke:#181818;stroke-width:0.5;" width="4" x="469.5" y="223.7969"/><rect fill="#F1F1F1" height="2" style="stroke:#181818;stroke-width:0.5;" width="4" x="469.5" y="227.7969"/><text fill="#000000" font-family="sans-serif" font-size="14" lengthAdjust="spacing" textLength="167" x="299.5" y="249.792">Infrastructure/Hardware:</text><text fill="#000000" font-family="sans-serif" font-size="14" lengthAdjust="spacing" textLength="86" x="299.5" y="266.0889">$150K-200K</text></g><!--entity invest_impl--><g id="elem_invest_impl"><rect fill="#F1F1F1" height="62.5938" rx="2.5" ry="2.5" style="stroke:#181818;stroke-width:0.5;" width="212" x="527" y="216.7969"/><rect fill="#F1F1F1" height="10" style="stroke:#181818;stroke-width:0.5;" width="15" x="719" y="221.7969"/><rect fill="#F1F1F1" height="2" style="stroke:#181818;stroke-width:0.5;" width="4" x="717" y="223.7969"/><rect fill="#F1F1F1" height="2" style="stroke:#181818;stroke-width:0.5;" width="4" x="717" y="227.7969"/><text fill="#000000" font-family="sans-serif" font-size="14" lengthAdjust="spacing" textLength="169" x="542" y="249.792">Implementation Services</text><text fill="#000000" font-family="sans-serif" font-size="14" lengthAdjust="spacing" textLength="172" x="542" y="266.0889">(1,000 MD): $200K-300K</text></g><!--entity invest_mvp--><g id="elem_invest_mvp"><rect fill="#F1F1F1" height="62.5938" rx="2.5" ry="2.5" style="stroke:#181818;stroke-width:0.5;" width="225" x="63.5" y="381.2969"/><rect fill="#F1F1F1" height="10" style="stroke:#181818;stroke-width:0.5;" width="15" x="268.5" y="386.2969"/><rect fill="#F1F1F1" height="2" style="stroke:#181818;stroke-width:0.5;" width="4" x="266.5" y="388.2969"/><rect fill="#F1F1F1" height="2" style="stroke:#181818;stroke-width:0.5;" width="4" x="266.5" y="392.2969"/><text fill="#000000" font-family="sans-serif" font-size="14" lengthAdjust="spacing" textLength="185" x="78.5" y="414.292">MVP Modules (5 modules):</text><text fill="#000000" font-family="sans-serif" font-size="14" lengthAdjust="spacing" textLength="86" x="78.5" y="430.5889">$160K-240K</text></g><!--entity invest_training--><g id="elem_invest_training"><rect fill="#F1F1F1" height="62.5938" rx="2.5" ry="2.5" style="stroke:#181818;stroke-width:0.5;" width="269" x="323.5" y="381.2969"/><rect fill="#F1F1F1" height="10" style="stroke:#181818;stroke-width:0.5;" width="15" x="572.5" y="386.2969"/><rect fill="#F1F1F1" height="2" style="stroke:#181818;stroke-width:0.5;" width="4" x="570.5" y="388.2969"/><rect fill="#F1F1F1" height="2" style="stroke:#181818;stroke-width:0.5;" width="4" x="570.5" y="392.2969"/><text fill="#000000" font-family="sans-serif" font-size="14" lengthAdjust="spacing" textLength="229" x="338.5" y="414.292">Change Management &amp; Training:</text><text fill="#000000" font-family="sans-serif" font-size="14" lengthAdjust="spacing" textLength="86" x="338.5" y="430.5889">$100K-150K</text></g><g id="elem_GMN8"><path d="M774,235.7969 L774,260.9297 L1094,260.9297 L1094,245.7969 L1084,235.7969 L774,235.7969 " fill="#FEFFDD" style="stroke:#181818;stroke-width:0.5;"/><path d="M1084,235.7969 L1084,245.7969 L1094,245.7969 L1084,235.7969 " fill="#FEFFDD" style="stroke:#181818;stroke-width:1.0;"/><text fill="#000000" font-family="sans-serif" font-size="13" font-weight="bold" lengthAdjust="spacing" textLength="299" x="780" y="252.8638">Total Phase 1 Investment: $810K-1,140K</text></g><g id="elem_GMN37"><path d="M2431.5,392.7969 L2431.5,433.0625 L2800.5,433.0625 L2800.5,402.7969 L2790.5,392.7969 L2431.5,392.7969 " fill="#FEFFDD" style="stroke:#181818;stroke-width:0.5;"/><path d="M2790.5,392.7969 L2790.5,402.7969 L2800.5,402.7969 L2790.5,392.7969 " fill="#FEFFDD" style="stroke:#181818;stroke-width:1.0;"/><text fill="#000000" font-family="sans-serif" font-size="13" font-weight="bold" lengthAdjust="spacing" textLength="244" x="2437.5" y="409.8638">Total Year 1 Benefit: $722K-1.2M</text><text fill="#000000" font-family="sans-serif" font-size="13" font-weight="bold" lengthAdjust="spacing" textLength="348" x="2437.5" y="424.9966">Ongoing Annual Benefit (Year 2+): $722K-1.2M</text></g><!--entity b1_vol--><g id="elem_b1_vol"><rect fill="#F1F1F1" height="46.2969" rx="2.5" ry="2.5" style="stroke:#181818;stroke-width:0.5;" width="238" x="3890" y="389.7969"/><rect fill="#F1F1F1" height="10" style="stroke:#181818;stroke-width:0.5;" width="15" x="4108" y="394.7969"/><rect fill="#F1F1F1" height="2" style="stroke:#181818;stroke-width:0.5;" width="4" x="4106" y="396.7969"/><rect fill="#F1F1F1" height="2" style="stroke:#181818;stroke-width:0.5;" width="4" x="4106" y="400.7969"/><text fill="#000000" font-family="sans-serif" font-size="14" lengthAdjust="spacing" textLength="198" x="3905" y="422.792">Volume: 28K invoices/month</text></g><!--entity b1_loss--><g id="elem_b1_loss"><rect fill="#F1F1F1" height="46.2969" rx="2.5" ry="2.5" style="stroke:#181818;stroke-width:0.5;" width="257" x="4163.5" y="389.7969"/><rect fill="#F1F1F1" height="10" style="stroke:#181818;stroke-width:0.5;" width="15" x="4400.5" y="394.7969"/><rect fill="#F1F1F1" height="2" style="stroke:#181818;stroke-width:0.5;" width="4" x="4398.5" y="396.7969"/><rect fill="#F1F1F1" height="2" style="stroke:#181818;stroke-width:0.5;" width="4" x="4398.5" y="400.7969"/><text fill="#000000" font-family="sans-serif" font-size="14" lengthAdjust="spacing" textLength="217" x="4178.5" y="422.792">Current loss: 1-2% mismatches</text></g><!--entity b1_value--><g id="elem_b1_value"><rect fill="#F1F1F1" height="46.2969" rx="2.5" ry="2.5" style="stroke:#181818;stroke-width:0.5;" width="251" x="3890.5" y="543.7969"/><rect fill="#F1F1F1" height="10" style="stroke:#181818;stroke-width:0.5;" width="15" x="4121.5" y="548.7969"/><rect fill="#F1F1F1" height="2" style="stroke:#181818;stroke-width:0.5;" width="4" x="4119.5" y="550.7969"/><rect fill="#F1F1F1" height="2" style="stroke:#181818;stroke-width:0.5;" width="4" x="4119.5" y="554.7969"/><text fill="#000000" font-family="sans-serif" font-size="14" lengthAdjust="spacing" textLength="211" x="3905.5" y="576.792">Undetected cost: $280K-560K</text></g><!--entity b1_timeline--><g id="elem_b1_timeline"><rect fill="#F1F1F1" height="46.2969" rx="2.5" ry="2.5" style="stroke:#181818;stroke-width:0.5;" width="227" x="4176.5" y="543.7969"/><rect fill="#F1F1F1" height="10" style="stroke:#181818;stroke-width:0.5;" width="15" x="4383.5" y="548.7969"/><rect fill="#F1F1F1" height="2" style="stroke:#181818;stroke-width:0.5;" width="4" x="4381.5" y="550.7969"/><rect fill="#F1F1F1" height="2" style="stroke:#181818;stroke-width:0.5;" width="4" x="4381.5" y="554.7969"/><text fill="#000000" font-family="sans-serif" font-size="14" lengthAdjust="spacing" textLength="187" x="4191.5" y="576.792">Timeline: Month 4 onwards</text></g><!--entity b2_labor--><g id="elem_b2_labor"><rect fill="#F1F1F1" height="46.2969" rx="2.5" ry="2.5" style="stroke:#181818;stroke-width:0.5;" width="194" x="3351" y="389.7969"/><rect fill="#F1F1F1" height="10" style="stroke:#181818;stroke-width:0.5;" width="15" x="3525" y="394.7969"/><rect fill="#F1F1F1" height="2" style="stroke:#181818;stroke-width:0.5;" width="4" x="3523" y="396.7969"/><rect fill="#F1F1F1" height="2" style="stroke:#181818;stroke-width:0.5;" width="4" x="3523" y="400.7969"/><text fill="#000000" font-family="sans-serif" font-size="14" lengthAdjust="spacing" textLength="154" x="3366" y="422.792">Labor: 2 FTE per close</text></g><!--entity b2_save--><g id="elem_b2_save"><rect fill="#F1F1F1" height="46.2969" rx="2.5" ry="2.5" style="stroke:#181818;stroke-width:0.5;" width="253" x="3580.5" y="389.7969"/><rect fill="#F1F1F1" height="10" style="stroke:#181818;stroke-width:0.5;" width="15" x="3813.5" y="394.7969"/><rect fill="#F1F1F1" height="2" style="stroke:#181818;stroke-width:0.5;" width="4" x="3811.5" y="396.7969"/><rect fill="#F1F1F1" height="2" style="stroke:#181818;stroke-width:0.5;" width="4" x="3811.5" y="400.7969"/><text fill="#000000" font-family="sans-serif" font-size="14" lengthAdjust="spacing" textLength="213" x="3595.5" y="422.792">Cost reduction: 4+ days saved</text></g><!--entity b2_value--><g id="elem_b2_value"><rect fill="#F1F1F1" height="46.2969" rx="2.5" ry="2.5" style="stroke:#181818;stroke-width:0.5;" width="181" x="3357.5" y="543.7969"/><rect fill="#F1F1F1" height="10" style="stroke:#181818;stroke-width:0.5;" width="15" x="3518.5" y="548.7969"/><rect fill="#F1F1F1" height="2" style="stroke:#181818;stroke-width:0.5;" width="4" x="3516.5" y="550.7969"/><rect fill="#F1F1F1" height="2" style="stroke:#181818;stroke-width:0.5;" width="4" x="3516.5" y="554.7969"/><text fill="#000000" font-family="sans-serif" font-size="14" lengthAdjust="spacing" textLength="141" x="3372.5" y="576.792">Annual value: $192K</text></g><!--entity b2_timeline--><g id="elem_b2_timeline"><rect fill="#F1F1F1" height="46.2969" rx="2.5" ry="2.5" style="stroke:#181818;stroke-width:0.5;" width="227" x="3573.5" y="543.7969"/><rect fill="#F1F1F1" height="10" style="stroke:#181818;stroke-width:0.5;" width="15" x="3780.5" y="548.7969"/><rect fill="#F1F1F1" height="2" style="stroke:#181818;stroke-width:0.5;" width="4" x="3778.5" y="550.7969"/><rect fill="#F1F1F1" height="2" style="stroke:#181818;stroke-width:0.5;" width="4" x="3778.5" y="554.7969"/><text fill="#000000" font-family="sans-serif" font-size="14" lengthAdjust="spacing" textLength="187" x="3588.5" y="576.792">Timeline: Month 4 onwards</text></g><!--entity b3_dup--><g id="elem_b3_dup"><rect fill="#F1F1F1" height="46.2969" rx="2.5" ry="2.5" style="stroke:#181818;stroke-width:0.5;" width="207" x="2843.5" y="389.7969"/><rect fill="#F1F1F1" height="10" style="stroke:#181818;stroke-width:0.5;" width="15" x="3030.5" y="394.7969"/><rect fill="#F1F1F1" height="2" style="stroke:#181818;stroke-width:0.5;" width="4" x="3028.5" y="396.7969"/><rect fill="#F1F1F1" height="2" style="stroke:#181818;stroke-width:0.5;" width="4" x="3028.5" y="400.7969"/><text fill="#000000" font-family="sans-serif" font-size="14" lengthAdjust="spacing" textLength="167" x="2858.5" y="422.792">Current: 23% duplicates</text></g><!--entity b3_vol--><g id="elem_b3_vol"><rect fill="#F1F1F1" height="46.2969" rx="2.5" ry="2.5" style="stroke:#181818;stroke-width:0.5;" width="201" x="3085.5" y="389.7969"/><rect fill="#F1F1F1" height="10" style="stroke:#181818;stroke-width:0.5;" width="15" x="3266.5" y="394.7969"/><rect fill="#F1F1F1" height="2" style="stroke:#181818;stroke-width:0.5;" width="4" x="3264.5" y="396.7969"/><rect fill="#F1F1F1" height="2" style="stroke:#181818;stroke-width:0.5;" width="4" x="3264.5" y="400.7969"/><text fill="#000000" font-family="sans-serif" font-size="14" lengthAdjust="spacing" textLength="161" x="3100.5" y="422.792">Volume: 8,000 vendors</text></g><!--entity b3_value--><g id="elem_b3_value"><rect fill="#F1F1F1" height="46.2969" rx="2.5" ry="2.5" style="stroke:#181818;stroke-width:0.5;" width="199" x="2833.5" y="543.7969"/><rect fill="#F1F1F1" height="10" style="stroke:#181818;stroke-width:0.5;" width="15" x="3012.5" y="548.7969"/><rect fill="#F1F1F1" height="2" style="stroke:#181818;stroke-width:0.5;" width="4" x="3010.5" y="550.7969"/><rect fill="#F1F1F1" height="2" style="stroke:#181818;stroke-width:0.5;" width="4" x="3010.5" y="554.7969"/><text fill="#000000" font-family="sans-serif" font-size="14" lengthAdjust="spacing" textLength="159" x="2848.5" y="576.792">Recovery: $200K-400K</text></g><!--entity b3_timeline--><g id="elem_b3_timeline"><rect fill="#F1F1F1" height="46.2969" rx="2.5" ry="2.5" style="stroke:#181818;stroke-width:0.5;" width="227" x="3067.5" y="543.7969"/><rect fill="#F1F1F1" height="10" style="stroke:#181818;stroke-width:0.5;" width="15" x="3274.5" y="548.7969"/><rect fill="#F1F1F1" height="2" style="stroke:#181818;stroke-width:0.5;" width="4" x="3272.5" y="550.7969"/><rect fill="#F1F1F1" height="2" style="stroke:#181818;stroke-width:0.5;" width="4" x="3272.5" y="554.7969"/><text fill="#000000" font-family="sans-serif" font-size="14" lengthAdjust="spacing" textLength="187" x="3082.5" y="576.792">Timeline: Month 6 onwards</text></g><!--entity b4_risk--><g id="elem_b4_risk"><rect fill="#F1F1F1" height="46.2969" rx="2.5" ry="2.5" style="stroke:#181818;stroke-width:0.5;" width="192" x="3920" y="753.7969"/><rect fill="#F1F1F1" height="10" style="stroke:#181818;stroke-width:0.5;" width="15" x="4092" y="758.7969"/><rect fill="#F1F1F1" height="2" style="stroke:#181818;stroke-width:0.5;" width="4" x="4090" y="760.7969"/><rect fill="#F1F1F1" height="2" style="stroke:#181818;stroke-width:0.5;" width="4" x="4090" y="764.7969"/><text fill="#000000" font-family="sans-serif" font-size="14" lengthAdjust="spacing" textLength="152" x="3935" y="786.792">Risk mitigation: No lag</text></g><!--entity b4_audit--><g id="elem_b4_audit"><rect fill="#F1F1F1" height="46.2969" rx="2.5" ry="2.5" style="stroke:#181818;stroke-width:0.5;" width="208" x="4147" y="753.7969"/><rect fill="#F1F1F1" height="10" style="stroke:#181818;stroke-width:0.5;" width="15" x="4335" y="758.7969"/><rect fill="#F1F1F1" height="2" style="stroke:#181818;stroke-width:0.5;" width="4" x="4333" y="760.7969"/><rect fill="#F1F1F1" height="2" style="stroke:#181818;stroke-width:0.5;" width="4" x="4333" y="764.7969"/><text fill="#000000" font-family="sans-serif" font-size="14" lengthAdjust="spacing" textLength="168" x="4162" y="786.792">Audit findings prevented</text></g><!--entity b4_labor--><g id="elem_b4_labor"><rect fill="#F1F1F1" height="46.2969" rx="2.5" ry="2.5" style="stroke:#181818;stroke-width:0.5;" width="179" x="3920.5" y="955.2969"/><rect fill="#F1F1F1" height="10" style="stroke:#181818;stroke-width:0.5;" width="15" x="4079.5" y="960.2969"/><rect fill="#F1F1F1" height="2" style="stroke:#181818;stroke-width:0.5;" width="4" x="4077.5" y="962.2969"/><rect fill="#F1F1F1" height="2" style="stroke:#181818;stroke-width:0.5;" width="4" x="4077.5" y="966.2969"/><text fill="#000000" font-family="sans-serif" font-size="14" lengthAdjust="spacing" textLength="139" x="3935.5" y="988.292">Labor savings: $40K</text></g><!--entity b4_timeline--><g id="elem_b4_timeline"><rect fill="#F1F1F1" height="46.2969" rx="2.5" ry="2.5" style="stroke:#181818;stroke-width:0.5;" width="227" x="4134.5" y="955.2969"/><rect fill="#F1F1F1" height="10" style="stroke:#181818;stroke-width:0.5;" width="15" x="4341.5" y="960.2969"/><rect fill="#F1F1F1" height="2" style="stroke:#181818;stroke-width:0.5;" width="4" x="4339.5" y="962.2969"/><rect fill="#F1F1F1" height="2" style="stroke:#181818;stroke-width:0.5;" width="4" x="4339.5" y="966.2969"/><text fill="#000000" font-family="sans-serif" font-size="14" lengthAdjust="spacing" textLength="187" x="4149.5" y="988.292">Timeline: Month 6 onwards</text></g><!--entity b5_compliance--><g id="elem_b5_compliance"><rect fill="#F1F1F1" height="46.2969" rx="2.5" ry="2.5" style="stroke:#181818;stroke-width:0.5;" width="253" x="3381.5" y="753.7969"/><rect fill="#F1F1F1" height="10" style="stroke:#181818;stroke-width:0.5;" width="15" x="3614.5" y="758.7969"/><rect fill="#F1F1F1" height="2" style="stroke:#181818;stroke-width:0.5;" width="4" x="3612.5" y="760.7969"/><rect fill="#F1F1F1" height="2" style="stroke:#181818;stroke-width:0.5;" width="4" x="3612.5" y="764.7969"/><text fill="#000000" font-family="sans-serif" font-size="14" lengthAdjust="spacing" textLength="213" x="3396.5" y="786.792">Compliance: Q2 2026 deadline</text></g><!--entity b5_labor--><g id="elem_b5_labor"><rect fill="#F1F1F1" height="46.2969" rx="2.5" ry="2.5" style="stroke:#181818;stroke-width:0.5;" width="195" x="3669.5" y="753.7969"/><rect fill="#F1F1F1" height="10" style="stroke:#181818;stroke-width:0.5;" width="15" x="3844.5" y="758.7969"/><rect fill="#F1F1F1" height="2" style="stroke:#181818;stroke-width:0.5;" width="4" x="3842.5" y="760.7969"/><rect fill="#F1F1F1" height="2" style="stroke:#181818;stroke-width:0.5;" width="4" x="3842.5" y="764.7969"/><text fill="#000000" font-family="sans-serif" font-size="14" lengthAdjust="spacing" textLength="155" x="3684.5" y="786.792">Labor savings: 0.5 FTE</text></g><!--entity b5_penalty--><g id="elem_b5_penalty"><rect fill="#F1F1F1" height="46.2969" rx="2.5" ry="2.5" style="stroke:#181818;stroke-width:0.5;" width="191" x="3410.5" y="955.2969"/><rect fill="#F1F1F1" height="10" style="stroke:#181818;stroke-width:0.5;" width="15" x="3581.5" y="960.2969"/><rect fill="#F1F1F1" height="2" style="stroke:#181818;stroke-width:0.5;" width="4" x="3579.5" y="962.2969"/><rect fill="#F1F1F1" height="2" style="stroke:#181818;stroke-width:0.5;" width="4" x="3579.5" y="966.2969"/><text fill="#000000" font-family="sans-serif" font-size="14" lengthAdjust="spacing" textLength="151" x="3425.5" y="988.292">Penalty avoidance: $X</text></g><!--entity b5_timeline--><g id="elem_b5_timeline"><rect fill="#F1F1F1" height="46.2969" rx="2.5" ry="2.5" style="stroke:#181818;stroke-width:0.5;" width="227" x="3636.5" y="955.2969"/><rect fill="#F1F1F1" height="10" style="stroke:#181818;stroke-width:0.5;" width="15" x="3843.5" y="960.2969"/><rect fill="#F1F1F1" height="2" style="stroke:#181818;stroke-width:0.5;" width="4" x="3841.5" y="962.2969"/><rect fill="#F1F1F1" height="2" style="stroke:#181818;stroke-width:0.5;" width="4" x="3841.5" y="966.2969"/><text fill="#000000" font-family="sans-serif" font-size="14" lengthAdjust="spacing" textLength="187" x="3651.5" y="988.292">Timeline: Month 3 onwards</text></g><!--entity roi_ben--><g id="elem_roi_ben"><rect fill="#F1F1F1" height="46.2969" rx="2.5" ry="2.5" style="stroke:#181818;stroke-width:0.5;" width="230" x="1201" y="225.2969"/><rect fill="#F1F1F1" height="10" style="stroke:#181818;stroke-width:0.5;" width="15" x="1411" y="230.2969"/><rect fill="#F1F1F1" height="2" style="stroke:#181818;stroke-width:0.5;" width="4" x="1409" y="232.2969"/><rect fill="#F1F1F1" height="2" style="stroke:#181818;stroke-width:0.5;" width="4" x="1409" y="236.2969"/><text fill="#000000" font-family="sans-serif" font-size="14" lengthAdjust="spacing" textLength="190" x="1216" y="258.292">Year 1 Benefit: $722K-1.2M</text></g><!--entity roi_cost--><g id="elem_roi_cost"><rect fill="#F1F1F1" height="46.2969" rx="2.5" ry="2.5" style="stroke:#181818;stroke-width:0.5;" width="187" x="1466.5" y="225.2969"/><rect fill="#F1F1F1" height="10" style="stroke:#181818;stroke-width:0.5;" width="15" x="1633.5" y="230.2969"/><rect fill="#F1F1F1" height="2" style="stroke:#181818;stroke-width:0.5;" width="4" x="1631.5" y="232.2969"/><rect fill="#F1F1F1" height="2" style="stroke:#181818;stroke-width:0.5;" width="4" x="1631.5" y="236.2969"/><text fill="#000000" font-family="sans-serif" font-size="14" lengthAdjust="spacing" textLength="147" x="1481.5" y="258.292">Year 1 Cost: $1,000K</text></g><!--entity roi_net--><g id="elem_roi_net"><rect fill="#F1F1F1" height="46.2969" rx="2.5" ry="2.5" style="stroke:#181818;stroke-width:0.5;" width="291" x="1688.5" y="225.2969"/><rect fill="#F1F1F1" height="10" style="stroke:#181818;stroke-width:0.5;" width="15" x="1959.5" y="230.2969"/><rect fill="#F1F1F1" height="2" style="stroke:#181818;stroke-width:0.5;" width="4" x="1957.5" y="232.2969"/><rect fill="#F1F1F1" height="2" style="stroke:#181818;stroke-width:0.5;" width="4" x="1957.5" y="236.2969"/><text fill="#000000" font-family="sans-serif" font-size="14" lengthAdjust="spacing" textLength="251" x="1703.5" y="258.292">Net Benefit Year 1: -$278K to $200K</text></g><!--entity roi_payback--><g id="elem_roi_payback"><rect fill="#F1F1F1" height="46.2969" rx="2.5" ry="2.5" style="stroke:#181818;stroke-width:0.5;" width="252" x="1201" y="389.7969"/><rect fill="#F1F1F1" height="10" style="stroke:#181818;stroke-width:0.5;" width="15" x="1433" y="394.7969"/><rect fill="#F1F1F1" height="2" style="stroke:#181818;stroke-width:0.5;" width="4" x="1431" y="396.7969"/><rect fill="#F1F1F1" height="2" style="stroke:#181818;stroke-width:0.5;" width="4" x="1431" y="400.7969"/><text fill="#000000" font-family="sans-serif" font-size="14" lengthAdjust="spacing" textLength="212" x="1216" y="422.792">Payback Period: 10-16 months</text></g><!--entity roi_year2--><g id="elem_roi_year2"><rect fill="#F1F1F1" height="46.2969" rx="2.5" ry="2.5" style="stroke:#181818;stroke-width:0.5;" width="244" x="1488" y="389.7969"/><rect fill="#F1F1F1" height="10" style="stroke:#181818;stroke-width:0.5;" width="15" x="1712" y="394.7969"/><rect fill="#F1F1F1" height="2" style="stroke:#181818;stroke-width:0.5;" width="4" x="1710" y="396.7969"/><rect fill="#F1F1F1" height="2" style="stroke:#181818;stroke-width:0.5;" width="4" x="1710" y="400.7969"/><text fill="#000000" font-family="sans-serif" font-size="14" lengthAdjust="spacing" textLength="204" x="1503" y="422.792">Year 2 Net: $722K-1.2M profit</text></g><g id="elem_GMN46"><path d="M2015,175.2969 L2015,321.4922 L2343,321.4922 L2343,185.2969 L2333,175.2969 L2015,175.2969 " fill="#FEFFDD" style="stroke:#181818;stroke-width:0.5;"/><path d="M2333,175.2969 L2333,185.2969 L2343,185.2969 L2333,175.2969 " fill="#FEFFDD" style="stroke:#181818;stroke-width:1.0;"/><text fill="#000000" font-family="sans-serif" font-size="13" font-weight="bold" lengthAdjust="spacing" textLength="162" x="2021" y="192.3638">3-Year ROI Projection:</text><text fill="#000000" font-family="sans-serif" font-size="13" lengthAdjust="spacing" textLength="4" x="2021" y="207.4966">&#160;</text><text fill="#000000" font-family="sans-serif" font-size="13" lengthAdjust="spacing" textLength="283" x="2021" y="222.6294">Year 1: -$278K to $200K (investment phase)</text><text fill="#000000" font-family="sans-serif" font-size="13" lengthAdjust="spacing" textLength="307" x="2021" y="237.7622">Year 2: +$722K-1.2M (payback complete, profit)</text><text fill="#000000" font-family="sans-serif" font-size="13" lengthAdjust="spacing" textLength="254" x="2021" y="252.895">Year 3: +$722K-1.2M (recurring benefit)</text><text fill="#000000" font-family="sans-serif" font-size="13" lengthAdjust="spacing" textLength="4" x="2021" y="268.0278">&#160;</text><text fill="#000000" font-family="sans-serif" font-size="13" font-weight="bold" lengthAdjust="spacing" textLength="292" x="2021" y="283.1606">3-Year Total Net Benefit: $1.166M-2.1M</text><text fill="#000000" font-family="sans-serif" font-size="13" font-weight="bold" lengthAdjust="spacing" textLength="171" x="2021" y="298.2935">IRR: 45-65% (Excellent)</text><text fill="#000000" font-family="sans-serif" font-size="13" font-weight="bold" lengthAdjust="spacing" textLength="248" x="2021" y="313.4263">NPV @ 10%: $800K-1.5M (Strong)</text></g><!--entity int_ops--><g id="elem_int_ops"><rect fill="#F1F1F1" height="62.5938" rx="2.5" ry="2.5" style="stroke:#181818;stroke-width:0.5;" width="306" x="23" y="535.2969"/><rect fill="#F1F1F1" height="10" style="stroke:#181818;stroke-width:0.5;" width="15" x="309" y="540.2969"/><rect fill="#F1F1F1" height="2" style="stroke:#181818;stroke-width:0.5;" width="4" x="307" y="542.2969"/><rect fill="#F1F1F1" height="2" style="stroke:#181818;stroke-width:0.5;" width="4" x="307" y="546.2969"/><text fill="#000000" font-family="sans-serif" font-size="14" lengthAdjust="spacing" textLength="162" x="38" y="568.292">Operational Excellence:</text><text fill="#000000" font-family="sans-serif" font-size="14" lengthAdjust="spacing" textLength="266" x="38" y="584.5889">Faster GL close, automated processes</text></g><!--entity int_risk--><g id="elem_int_risk"><rect fill="#F1F1F1" height="62.5938" rx="2.5" ry="2.5" style="stroke:#181818;stroke-width:0.5;" width="303" x="679.5" y="535.2969"/><rect fill="#F1F1F1" height="10" style="stroke:#181818;stroke-width:0.5;" width="15" x="962.5" y="540.2969"/><rect fill="#F1F1F1" height="2" style="stroke:#181818;stroke-width:0.5;" width="4" x="960.5" y="542.2969"/><rect fill="#F1F1F1" height="2" style="stroke:#181818;stroke-width:0.5;" width="4" x="960.5" y="546.2969"/><text fill="#000000" font-family="sans-serif" font-size="14" lengthAdjust="spacing" textLength="109" x="694.5" y="568.292">Risk Reduction:</text><text fill="#000000" font-family="sans-serif" font-size="14" lengthAdjust="spacing" textLength="263" x="694.5" y="584.5889">Real-time compliance, SoD monitoring</text></g><!--entity int_data--><g id="elem_int_data"><rect fill="#F1F1F1" height="62.5938" rx="2.5" ry="2.5" style="stroke:#181818;stroke-width:0.5;" width="188" x="82" y="745.2969"/><rect fill="#F1F1F1" height="10" style="stroke:#181818;stroke-width:0.5;" width="15" x="250" y="750.2969"/><rect fill="#F1F1F1" height="2" style="stroke:#181818;stroke-width:0.5;" width="4" x="248" y="752.2969"/><rect fill="#F1F1F1" height="2" style="stroke:#181818;stroke-width:0.5;" width="4" x="248" y="756.2969"/><text fill="#000000" font-family="sans-serif" font-size="14" lengthAdjust="spacing" textLength="87" x="97" y="778.292">Data Quality:</text><text fill="#000000" font-family="sans-serif" font-size="14" lengthAdjust="spacing" textLength="148" x="97" y="794.5889">Single source of truth</text></g><!--entity int_future--><g id="elem_int_future"><rect fill="#F1F1F1" height="62.5938" rx="2.5" ry="2.5" style="stroke:#181818;stroke-width:0.5;" width="254" x="305" y="745.2969"/><rect fill="#F1F1F1" height="10" style="stroke:#181818;stroke-width:0.5;" width="15" x="539" y="750.2969"/><rect fill="#F1F1F1" height="2" style="stroke:#181818;stroke-width:0.5;" width="4" x="537" y="752.2969"/><rect fill="#F1F1F1" height="2" style="stroke:#181818;stroke-width:0.5;" width="4" x="537" y="756.2969"/><text fill="#000000" font-family="sans-serif" font-size="14" lengthAdjust="spacing" textLength="114" x="320" y="778.292">Future Flexibility:</text><text fill="#000000" font-family="sans-serif" font-size="14" lengthAdjust="spacing" textLength="214" x="320" y="794.5889">S/4HANA ready for cloud, AI, ML</text></g><!--entity int_compete--><g id="elem_int_compete"><rect fill="#F1F1F1" height="62.5938" rx="2.5" ry="2.5" style="stroke:#181818;stroke-width:0.5;" width="280" x="364" y="535.2969"/><rect fill="#F1F1F1" height="10" style="stroke:#181818;stroke-width:0.5;" width="15" x="624" y="540.2969"/><rect fill="#F1F1F1" height="2" style="stroke:#181818;stroke-width:0.5;" width="4" x="622" y="542.2969"/><rect fill="#F1F1F1" height="2" style="stroke:#181818;stroke-width:0.5;" width="4" x="622" y="546.2969"/><text fill="#000000" font-family="sans-serif" font-size="14" lengthAdjust="spacing" textLength="164" x="379" y="568.292">Competitive Advantage:</text><text fill="#000000" font-family="sans-serif" font-size="14" lengthAdjust="spacing" textLength="240" x="379" y="584.5889">Modern platform vs. 13-year legacy</text></g><g id="elem_GMN55"><path d="M1015.5,658.2969 L1015.5,895.2891 L1456.5,895.2891 L1456.5,668.2969 L1446.5,658.2969 L1015.5,658.2969 " fill="#FEFFDD" style="stroke:#181818;stroke-width:0.5;"/><path d="M1446.5,658.2969 L1446.5,668.2969 L1456.5,668.2969 L1446.5,658.2969 " fill="#FEFFDD" style="stroke:#181818;stroke-width:1.0;"/><text fill="#000000" font-family="sans-serif" font-size="13" font-weight="bold" lengthAdjust="spacing" textLength="204" x="1021.5" y="675.3638">INVESTMENT JUSTIFICATION:</text><text fill="#000000" font-family="sans-serif" font-size="13" lengthAdjust="spacing" textLength="4" x="1021.5" y="690.4966">&#160;</text><text fill="#000000" font-family="sans-serif" font-size="13" font-weight="bold" lengthAdjust="spacing" textLength="381" x="1021.5" y="705.6294">Tangible ROI: 10-16 months (Strong Business Case)</text><text fill="#000000" font-family="sans-serif" font-size="13" lengthAdjust="spacing" textLength="331" x="1021.5" y="720.7622">- Every dollar invested returns $0.70-$1.20 in Year 1</text><text fill="#000000" font-family="sans-serif" font-size="13" lengthAdjust="spacing" textLength="376" x="1021.5" y="735.895">- Every dollar invested returns $0.70+ annually in Years 2+</text><text fill="#000000" font-family="sans-serif" font-size="13" lengthAdjust="spacing" textLength="4" x="1021.5" y="751.0278">&#160;</text><text fill="#000000" font-family="sans-serif" font-size="13" font-weight="bold" lengthAdjust="spacing" textLength="137" x="1021.5" y="766.1606">Risk-Adjusted ROI:</text><text fill="#000000" font-family="sans-serif" font-size="13" lengthAdjust="spacing" textLength="331" x="1021.5" y="781.2935">- Even with 30% scope creep: 13-21 month payback</text><text fill="#000000" font-family="sans-serif" font-size="13" lengthAdjust="spacing" textLength="367" x="1021.5" y="796.4263">- Even with 50% benefit realization: 20-32 month payback</text><text fill="#000000" font-family="sans-serif" font-size="13" lengthAdjust="spacing" textLength="4" x="1021.5" y="811.5591">&#160;</text><text fill="#000000" font-family="sans-serif" font-size="13" font-weight="bold" lengthAdjust="spacing" textLength="118" x="1021.5" y="826.6919">Strategic Value:</text><text fill="#000000" font-family="sans-serif" font-size="13" lengthAdjust="spacing" textLength="316" x="1021.5" y="841.8247">- Compliance deadline (Q2 2026): Non-negotiable</text><text fill="#000000" font-family="sans-serif" font-size="13" lengthAdjust="spacing" textLength="362" x="1021.5" y="856.9575">- Operational improvement: Foundation for future growth</text><text fill="#000000" font-family="sans-serif" font-size="13" lengthAdjust="spacing" textLength="420" x="1021.5" y="872.0903">- Technical debt reduction: 100+ customizations -&gt; MVP modules</text><text fill="#000000" font-family="sans-serif" font-size="13" lengthAdjust="spacing" textLength="334" x="1021.5" y="887.2231">- Scalability: Ready for multi-plant rollout (Phase 3+)</text></g><!--link investment to GMN8--><g id="link_investment_GMN8"><path d="M22.123,173.6021 C22.1422,173.3265 22.1619,173.0508 22.1822,172.775 C22.2227,172.2233 22.2654,171.671 22.3101,171.1182 C22.4892,168.9072 22.7026,166.6882 22.9536,164.4673 C23.4554,160.0255 24.1075,155.5759 24.9359,151.1658 C26.5925,142.3456 28.9541,133.6837 32.2288,125.5594 C38.7781,109.3106 48.98,95.2119 64.5,86.2969 C129.54,48.9469 668.98,60.7769 739.5,86.2969 C824.63,117.1069 898.7,203.2269 924.38,235.6969 " fill="none" id="investment-GMN8" style="stroke:#181818;stroke-width:1.0;stroke-dasharray:7.0,7.0;"/></g><!--link benefits to GMN37--><g id="link_benefits_GMN37"><path d="M2616,249.4169 C2616,253.2669 2616,350.6969 2616,392.7569 " fill="none" id="benefits-GMN37" style="stroke:#181818;stroke-width:1.0;stroke-dasharray:7.0,7.0;"/></g><!--link roi to GMN46--><g id="link_roi_GMN46"><path d="M1168.1579,131.7257 C1168.8534,129.6335 1169.6031,127.5691 1170.4102,125.5383 C1176.8669,109.2919 1187,95.1994 1202.5,86.2969 C1277.36,43.2969 1898.14,57.4269 1979.5,86.2969 C2029.96,104.2069 2076.95,140.9169 2112.63,174.8769 " fill="none" id="roi-GMN46" style="stroke:#181818;stroke-width:1.0;stroke-dasharray:7.0,7.0;"/></g><!--link int_compete to GMN55--><g id="link_int_compete_GMN55"><path d="M600.34,598.3669 C620.57,604.0769 641.87,609.5669 662,613.7969 C809.84,644.8869 854.48,614.2569 999,658.2969 C1004.38,659.9369 1009.79,661.6869 1015.21,663.5369 " fill="none" id="int_compete-GMN55" style="stroke:#181818;stroke-width:1.0;stroke-dasharray:7.0,7.0;"/></g><!--SRC=[dLTRSzeu57xdLvpP99sGn2asbsPvs5b2e6K390MIsSwsmoYs0cfjYP5aMhhJ_xv7acqk2Mrc9o_4qdTqz9tlNAIPZYbycFIXJHFADNWmkkd1AsXndf8OBbF5E5KAxacSqfBwmlY2I9B00mc_pAH8UTGMiP1mqAsRlr99qb0JFaEhl_M6zvtnPD0PJc3KUN_N6tMkVWEYWF4bLTeUTz3jTXgT1lnR0WX5iX3SVFrd_BhshZLiGP-5b2lwaH_xiA94bfjm65GgrrvGhrn_MjkQncxZjfKUVvH4QPc6EfNqzJiYewz4qkP7VkZNZP7AjX5czk-OI1Qn9OPe9ZYCgLpYISeuT5QfL61mLRXKtRM6q6rZW_jR68WeZQc2upeaxcVP-jCm_jIsBIJBnRQ1zXoPfJ0WdCnSk5x1H1B66PzPAyOFVuSQdMqeeIqkD0N9PdCDud4Z3hW4S78o4HfZVZidYe8FlM8PhtZX6zDdFhfuSeBRAO-ijTAFhP2tXiExLXykEyDEjpSPm_47Z1hufsKR-0VAwIFJ2Wuw3HDu33kQse1dEF2RvdI1LEDbTJX7zvq17mxQxMwttRQAsIBdNiHfGfiGN5oRcncmUfq8hkUV77Iw5F4kg9rAQNx4Ggac-5vm10bJYJcJgXnd5dU1TpoY6Xsd4NvLXg7W0XcgDpBopN4sPNPm4vRG65EgYKf0rw06WgCee-8mdMr0u8yzx0HDUDl731K9YLTmPVqGqX4Kx2UeJnw4H7wWE-d0Wae8yMBKdHjCOxFwX1wy6deGOGQX_9jGEuM8h1GeigHHZZJ_x0Apyc4fG6xytuFhVFl_eILu2ItL9joZBB4ONH5Du3qwmFJAqLBTJqic0IIcUWHHki1IGdGU_EeKl-nJseKj0KjxPh7_6P6DQ2YMLAxoIb7BAuNP_X8s6jjiL5_2Hgq9Ot65Aa6DVAUPEchxQHWnzGMrhzcCk5WF1SHavawiJIKkFmbo6Z4DZun7c9yA5f8Y5peNHcrApFgpAZG2CXXa9AzvkFzP2Vw2YzfBkAWtWNf5GR5br_5H_uaiy6VC20_nvFS119MW0H4baJdA7LsVXiMUNzooSbutMPVZdhteBSLGwHKGT3Dovnx-dICMRl5Nv5ItoQa_8SSsW0UXjKXC1yWBybRzToKRBjqQUl4c2B3sdmS3M_dDnXi-4tYpOafmMxDg7voMdu3sj0ipQxHR_VPTlpNftGnjKAHWPYmeeh9ntVsUVSgGKxpHivYsAzAsQryNkqtftju-fBguZeCsmJiCtc1JqSBbRu7cT0TyIrPcBe9RAfc8i9zKFBy1jWUf0hLmcvxnCW0yVVDMc5827IcWPWGAdlPnNChYKlMi8KFhhHIVgIlR606xlkS-SBmna2rCyo-ljsElETrmw3ZptleUO-SvotpSW5Ht81XlBB56BfdSogLjTvtiDfWtWJht6us15vpxQzNrHYDiGNMlKJ-2uywtaCOnkbmkreUtz_0dadvavXKx2ftNyVonbeBFoZ_JOMyuQGtVzYxxdOtHPIYursKSKv6Hk9nDhWR17X1pOERMRdTNeZVOM6q1nHlbBePcvEpY98ez5nktRRjdG59CGc8626GGPnMLzHmyOoeMglIqEe-AHloHZoY9FPFTi2v2PxRYezmOZWF8Ts4kAzuRzZOx95eRCyk34gd42ecImg4vcviCFiBTs_XkQaPgwCRq6tjWkPLiQfTO9bVmAEo4aKPdqEgTmQ1Vc7kquDAJSairjfybXLQq94ZqpD26rPfA3ekOQ3IOm5ATWr_rJ2P0J6SaN1LcGsl2XdQZp9MiSjOlaR_knfDUjzUs1ITB3QnyULWnTRRpDjVF-YdKDXbYrUH1n_HrY4GSepykZJ2Wak85kOB3olcRYeTQ3YgucENVIt6dG6nrnH4lmoeihSvT8mUl5NrEBSpulFQ7mrTcMa7b25Ge5YWGIUcYQLWBV7SfMDUWJKWT8LcAcXZ6x7is2WGLhnhiGAqVI0qgUCP2zpxClLZtpg9bmd7MHCjcik0UfpEX6K7ABM8pRV3X975USW-FhdbYkiUN4PIJ3k3BywkUM-I4XdEE8rkCHpri3Qlu6Zg542aIINOJ1TuVO5vXsTFB6XWZbcGQnXJBfPkaiMOUwWxLAJ5E8iN-vfv6rTDogIWa_m40]--></g></svg>