<?xml version="1.0" encoding="UTF-8"?>
<svg width="96" height="96" viewBox="0 0 96 96" xmlns="http://www.w3.org/2000/svg">
  <!-- Background -->
  <rect width="96" height="96" fill="#2563eb" rx="9.600000000000001"/>

  <!-- Grid pattern (subtle) -->
  <defs>
    <pattern id="grid" width="20" height="20" patternUnits="userSpaceOnUse">
      <path d="M 20 0 L 0 0 0 20" fill="none" stroke="rgba(255,255,255,0.1)" stroke-width="1"/>
    </pattern>
  </defs>
  <rect width="96" height="96" fill="url(#grid)"/>

  <!-- SAP Cockpit Logo - Stylized "S" -->
  <g transform="translate(48, 48)">
    <!-- Letter S -->
    <path d="
      M -14.399999999999999 -24
      Q -24 -33.599999999999994 -14.399999999999999 -33.599999999999994
      L 14.399999999999999 -33.599999999999994
      Q 24 -33.599999999999994 24 -24
      L 24 -14.399999999999999
      Q 24 -4.800000000000001 14.399999999999999 -4.800000000000001
      L -14.399999999999999 -4.800000000000001
      Q -24 -4.800000000000001 -24 4.800000000000001
      L -24 14.399999999999999
      Q -24 24 -14.399999999999999 24
      L 14.399999999999999 24
      Q 24 24 14.399999999999999 33.599999999999994
      L -14.399999999999999 33.599999999999994
      Q -24 33.599999999999994 -24 24
      Z
    " fill="white" fill-opacity="0.95"/>

    <!-- Accent dot -->
    <circle cx="26.880000000000003" cy="-26.880000000000003" r="4.800000000000001" fill="#fbbf24"/>
  </g>

  <!-- Text label for smaller sizes -->
  
</svg>