<?xml version="1.0" encoding="UTF-8"?>
<svg width="152" height="152" viewBox="0 0 152 152" xmlns="http://www.w3.org/2000/svg">
  <!-- Background -->
  <rect width="152" height="152" fill="#2563eb" rx="15.200000000000001"/>

  <!-- Grid pattern (subtle) -->
  <defs>
    <pattern id="grid" width="20" height="20" patternUnits="userSpaceOnUse">
      <path d="M 20 0 L 0 0 0 20" fill="none" stroke="rgba(255,255,255,0.1)" stroke-width="1"/>
    </pattern>
  </defs>
  <rect width="152" height="152" fill="url(#grid)"/>

  <!-- SAP Cockpit Logo - Stylized "S" -->
  <g transform="translate(76, 76)">
    <!-- Letter S -->
    <path d="
      M -22.8 -38
      Q -38 -53.199999999999996 -22.8 -53.199999999999996
      L 22.8 -53.199999999999996
      Q 38 -53.199999999999996 38 -38
      L 38 -22.8
      Q 38 -7.6000000000000005 22.8 -7.6000000000000005
      L -22.8 -7.6000000000000005
      Q -38 -7.6000000000000005 -38 7.6000000000000005
      L -38 22.8
      Q -38 38 -22.8 38
      L 22.8 38
      Q 38 38 22.8 53.199999999999996
      L -22.8 53.199999999999996
      Q -38 53.199999999999996 -38 38
      Z
    " fill="white" fill-opacity="0.95"/>

    <!-- Accent dot -->
    <circle cx="42.56" cy="-42.56" r="7.6000000000000005" fill="#fbbf24"/>
  </g>

  <!-- Text label for smaller sizes -->
  
</svg>