<?xml version="1.0" encoding="UTF-8"?>
<svg width="192" height="192" viewBox="0 0 192 192" xmlns="http://www.w3.org/2000/svg">
  <!-- Background -->
  <rect width="192" height="192" fill="#2563eb" rx="19.200000000000003"/>

  <!-- Grid pattern (subtle) -->
  <defs>
    <pattern id="grid" width="20" height="20" patternUnits="userSpaceOnUse">
      <path d="M 20 0 L 0 0 0 20" fill="none" stroke="rgba(255,255,255,0.1)" stroke-width="1"/>
    </pattern>
  </defs>
  <rect width="192" height="192" fill="url(#grid)"/>

  <!-- SAP Cockpit Logo - Stylized "S" -->
  <g transform="translate(96, 96)">
    <!-- Letter S -->
    <path d="
      M -28.799999999999997 -48
      Q -48 -67.19999999999999 -28.799999999999997 -67.19999999999999
      L 28.799999999999997 -67.19999999999999
      Q 48 -67.19999999999999 48 -48
      L 48 -28.799999999999997
      Q 48 -9.600000000000001 28.799999999999997 -9.600000000000001
      L -28.799999999999997 -9.600000000000001
      Q -48 -9.600000000000001 -48 9.600000000000001
      L -48 28.799999999999997
      Q -48 48 -28.799999999999997 48
      L 28.799999999999997 48
      Q 48 48 28.799999999999997 67.19999999999999
      L -28.799999999999997 67.19999999999999
      Q -48 67.19999999999999 -48 48
      Z
    " fill="white" fill-opacity="0.95"/>

    <!-- Accent dot -->
    <circle cx="53.760000000000005" cy="-53.760000000000005" r="9.600000000000001" fill="#fbbf24"/>
  </g>

  <!-- Text label for smaller sizes -->
  
  <text
    x="96"
    y="163.2"
    font-family="Arial, sans-serif"
    font-size="23.04"
    font-weight="700"
    fill="white"
    text-anchor="middle"
    fill-opacity="0.9"
  >SAP COCKPIT</text>
  
</svg>