<?xml version="1.0" encoding="UTF-8"?>
<svg width="384" height="384" viewBox="0 0 384 384" xmlns="http://www.w3.org/2000/svg">
  <!-- Background -->
  <rect width="384" height="384" fill="#2563eb" rx="38.400000000000006"/>

  <!-- Grid pattern (subtle) -->
  <defs>
    <pattern id="grid" width="20" height="20" patternUnits="userSpaceOnUse">
      <path d="M 20 0 L 0 0 0 20" fill="none" stroke="rgba(255,255,255,0.1)" stroke-width="1"/>
    </pattern>
  </defs>
  <rect width="384" height="384" fill="url(#grid)"/>

  <!-- SAP Cockpit Logo - Stylized "S" -->
  <g transform="translate(192, 192)">
    <!-- Letter S -->
    <path d="
      M -57.599999999999994 -96
      Q -96 -134.39999999999998 -57.599999999999994 -134.39999999999998
      L 57.599999999999994 -134.39999999999998
      Q 96 -134.39999999999998 96 -96
      L 96 -57.599999999999994
      Q 96 -19.200000000000003 57.599999999999994 -19.200000000000003
      L -57.599999999999994 -19.200000000000003
      Q -96 -19.200000000000003 -96 19.200000000000003
      L -96 57.599999999999994
      Q -96 96 -57.599999999999994 96
      L 57.599999999999994 96
      Q 96 96 57.599999999999994 134.39999999999998
      L -57.599999999999994 134.39999999999998
      Q -96 134.39999999999998 -96 96
      Z
    " fill="white" fill-opacity="0.95"/>

    <!-- Accent dot -->
    <circle cx="107.52000000000001" cy="-107.52000000000001" r="19.200000000000003" fill="#fbbf24"/>
  </g>

  <!-- Text label for smaller sizes -->
  
  <text
    x="192"
    y="326.4"
    font-family="Arial, sans-serif"
    font-size="46.08"
    font-weight="700"
    fill="white"
    text-anchor="middle"
    fill-opacity="0.9"
  >SAP COCKPIT</text>
  
</svg>